<svg xmlns="http://www.w3.org/2000/svg" width="24" height="24" viewBox="0 0 24 24" fill="none">
<path fill-rule="evenodd" clip-rule="evenodd" d="M15.9697 8.46967C16.2626 8.17678 16.7374 8.17678 17.0303 8.46967L20.0303 11.4697C20.3232 11.7626 20.3232 12.2374 20.0303 12.5303L17.0303 15.5303C16.7374 15.8232 16.2626 15.8232 15.9697 15.5303C15.6768 15.2374 15.6768 14.7626 15.9697 14.4697L18.4393 12L15.9697 9.53033C15.6768 9.23744 15.6768 8.76256 15.9697 8.46967Z" fill="#FD9552"/>
<path fill-rule="evenodd" clip-rule="evenodd" d="M3.75 12C3.75 11.5858 4.08579 11.25 4.5 11.25H19.5C19.9142 11.25 20.25 11.5858 20.25 12C20.25 12.4142 19.9142 12.75 19.5 12.75H4.5C4.08579 12.75 3.75 12.4142 3.75 12Z" fill="#FD9552"/>
</svg>