<svg xmlns="http://www.w3.org/2000/svg" width="64" height="64" viewBox="0 0 64 64" fill="none">
  <g clip-path="url(#clip0_2995_8421)">
    <path fill-rule="evenodd" clip-rule="evenodd" d="M32 -0.000610352C49.673 -0.000610352 64.0009 14.3273 64.0009 32.0003C64.0009 49.6733 49.673 64.0003 32 64.0003C14.327 64.0003 0 49.6724 0 32.0003C0 14.3281 14.328 -0.000610352 32 -0.000610352ZM25.8423 21.5415C25.9576 21.6569 26.0946 21.7484 26.2453 21.8109C26.3961 21.8733 26.5576 21.9055 26.7208 21.9055C26.884 21.9055 27.0456 21.8733 27.1963 21.8109C27.347 21.7484 27.484 21.6569 27.5994 21.5415L28.8605 20.2798V25.8276C28.8605 26.1571 28.9914 26.4731 29.2244 26.7061C29.4574 26.9391 29.7734 27.07 30.1029 27.07C30.4324 27.07 30.7484 26.9391 30.9814 26.7061C31.2144 26.4731 31.3453 26.1571 31.3453 25.8276V20.2798L32.6066 21.5415C32.84 21.7723 33.1552 21.9013 33.4834 21.9003C33.8116 21.8994 34.126 21.7686 34.3581 21.5365C34.5901 21.3044 34.7208 20.9899 34.7217 20.6617C34.7225 20.3335 34.5934 20.0183 34.3626 19.785L30.9805 16.4024C30.7474 16.1698 30.4315 16.0392 30.1023 16.0392C29.773 16.0392 29.4571 16.1698 29.224 16.4024L25.8423 19.785C25.7269 19.9003 25.6353 20.0372 25.5729 20.1879C25.5104 20.3386 25.4783 20.5001 25.4783 20.6633C25.4783 20.8264 25.5104 20.9879 25.5729 21.1386C25.6353 21.2893 25.7269 21.4262 25.8423 21.5415ZM19.7059 46.079C19.7059 46.2421 19.738 46.4037 19.8004 46.5544C19.8629 46.7051 19.9544 46.842 20.0698 46.9573C20.1851 47.0726 20.3221 47.1641 20.4728 47.2265C20.6236 47.2888 20.7851 47.3209 20.9482 47.3208H29.7396C29.9038 47.3224 30.0666 47.2915 30.2188 47.2298C30.3709 47.1681 30.5093 47.0769 30.626 46.9614C30.7426 46.8459 30.8353 46.7084 30.8985 46.5569C30.9617 46.4054 30.9942 46.2429 30.9942 46.0787C30.9942 45.9145 30.9617 45.752 30.8985 45.6005C30.8353 45.449 30.7426 45.3115 30.626 45.196C30.5093 45.0805 30.3709 44.9893 30.2188 44.9276C30.0666 44.8659 29.9038 44.835 29.7396 44.8366H20.9482C20.6188 44.8367 20.3028 44.9676 20.0698 45.2006C19.8368 45.4335 19.7059 45.7495 19.7059 46.079ZM43.4339 39.4058C43.1044 39.4058 42.7884 39.5367 42.5554 39.7696C42.3224 40.0026 42.1915 40.3186 42.1915 40.6481C42.1915 40.9776 42.3224 41.2936 42.5554 41.5266C42.7884 41.7596 43.1044 41.8905 43.4339 41.8905H43.4549C43.7844 41.8905 44.1004 41.7596 44.3334 41.5266C44.5664 41.2936 44.6973 40.9776 44.6973 40.6481C44.6973 40.3186 44.5664 40.0026 44.3334 39.7696C44.1004 39.5367 43.7844 39.4058 43.4549 39.4058H43.4339ZM24.9089 29.4209C23.3267 28.3727 22.0952 26.8741 21.3736 25.1188H19.6826C19.3988 25.1166 19.1173 25.1706 18.8545 25.2778C18.5917 25.3849 18.3526 25.543 18.1511 25.7429C17.9497 25.9428 17.7898 26.1807 17.6807 26.4427C17.5715 26.7047 17.5154 26.9857 17.5154 27.2696C17.5154 27.5534 17.5715 27.8344 17.6807 28.0965C17.7898 28.3585 17.9497 28.5963 18.1511 28.7963C18.3526 28.9962 18.5917 29.1543 18.8545 29.2614C19.1173 29.3685 19.3988 29.4226 19.6826 29.4204L24.9089 29.4209ZM30.1029 14.6096C28.7292 14.6097 27.3864 15.017 26.2442 15.7802C25.1021 16.5434 24.2119 17.6282 23.6862 18.8973C23.1606 20.1664 23.0231 21.5629 23.2911 22.9102C23.5592 24.2575 24.2207 25.495 25.1921 26.4663C26.1634 27.4376 27.401 28.0991 28.7483 28.367C30.0956 28.6349 31.4921 28.4973 32.7612 27.9716C34.0303 27.4458 35.1149 26.5556 35.8781 25.4134C36.6412 24.2712 37.0484 22.9283 37.0484 21.5546C37.0464 19.7132 36.3139 17.9479 35.0118 16.6458C33.7097 15.3438 31.9443 14.6115 30.1029 14.6096ZM40.5265 25.1188H38.8326C38.111 26.8741 36.8793 28.3726 35.2969 29.4204H40.5265V25.1188ZM44.1465 31.9051H19.6826C18.9332 31.9058 18.1949 31.7238 17.5316 31.375V47.2395C17.5324 47.8098 17.7593 48.3565 18.1626 48.7597C18.5659 49.1629 19.1127 49.3897 19.683 49.3903H44.1465V45.3038H42.5914C41.3565 45.3038 40.1721 44.8132 39.2989 43.94C38.4257 43.0668 37.9351 41.8824 37.9351 40.6475C37.9351 39.4126 38.4257 38.2283 39.2989 37.355C40.1721 36.4818 41.3565 35.9913 42.5914 35.9913H44.1465V31.9053V31.9051ZM46.4699 38.4763H42.5914C42.3048 38.4741 42.0207 38.5286 41.7554 38.6368C41.49 38.7449 41.2487 38.9045 41.0453 39.1064C40.842 39.3082 40.6805 39.5483 40.5704 39.8128C40.4602 40.0773 40.4035 40.361 40.4035 40.6476C40.4035 40.9341 40.4602 41.2178 40.5704 41.4823C40.6805 41.7468 40.842 41.9869 41.0453 42.1888C41.2487 42.3906 41.49 42.5502 41.7554 42.6584C42.0207 42.7665 42.3048 42.8211 42.5914 42.8189H46.4699V38.4764V38.4763ZM15.0471 27.2688V47.2395C15.0485 48.4685 15.5373 49.6468 16.4064 50.5158C17.2754 51.3848 18.4536 51.8736 19.6826 51.875H44.4799C45.0503 51.8745 45.5972 51.6476 46.0006 51.2443C46.404 50.841 46.631 50.2941 46.6316 49.7236V45.3038H47.7126C47.8757 45.3037 48.0372 45.2716 48.1879 45.2092C48.3386 45.1467 48.4755 45.0552 48.5908 44.9398C48.7061 44.8245 48.7976 44.6876 48.86 44.5368C48.9223 44.3861 48.9544 44.2246 48.9544 44.0615V37.234C48.9544 37.0709 48.9223 36.9094 48.86 36.7587C48.7976 36.6079 48.7061 36.471 48.5908 36.3556C48.4755 36.2403 48.3386 36.1487 48.1879 36.0863C48.0372 36.0238 47.8757 35.9917 47.7126 35.9916H46.6316V31.5719C46.631 31.0015 46.4041 30.4547 46.0008 30.0513C45.5975 29.648 45.0506 29.4211 44.4802 29.4205H43.0106V24.7861C43.0101 24.2158 42.7833 23.669 42.3801 23.2657C41.9769 22.8623 41.4302 22.6354 40.8599 22.6346H39.4699C39.6172 21.3591 39.5024 20.067 39.1326 18.8374C38.7629 17.6078 38.1459 16.4667 37.3195 15.484C36.4931 14.5013 35.4748 13.6977 34.3268 13.1225C33.1789 12.5473 31.9256 12.2126 30.6437 12.139C29.3618 12.0653 28.0784 12.2542 26.8722 12.6941C25.6659 13.1339 24.5621 13.8155 23.6286 14.6971C22.6951 15.5786 21.9514 16.6415 21.4432 17.8207C20.935 18.9998 20.6729 20.2703 20.6731 21.5543C20.6735 21.9153 20.6943 22.276 20.7356 22.6346H19.683C18.4542 22.6359 17.276 23.1245 16.4069 23.9932C15.5379 24.862 15.0488 26.0399 15.0471 27.2688Z" fill="url(#paint0_linear_2995_8421)" fill-opacity="0.12"/>
    <path fill-rule="evenodd" clip-rule="evenodd" d="M26.1982 21.6875C26.0475 21.625 25.9105 21.5335 25.7951 21.4181C25.6797 21.3028 25.5882 21.1659 25.5258 21.0152C25.4633 20.8645 25.4312 20.703 25.4312 20.5398C25.4312 20.3767 25.4633 20.2152 25.5258 20.0645C25.5882 19.9138 25.6797 19.7769 25.7951 19.6616L29.1769 16.279C29.41 16.0464 29.7258 15.9157 30.0551 15.9157C30.3844 15.9157 30.7003 16.0464 30.9334 16.279L34.3155 19.6616C34.5463 19.8949 34.6754 20.2101 34.6746 20.5382C34.6737 20.8664 34.543 21.1809 34.3109 21.413C34.0789 21.6451 33.7644 21.7759 33.4363 21.7769C33.1081 21.7778 32.7929 21.6488 32.5595 21.4181L31.2981 20.1563V25.7042C31.2981 26.0337 31.1672 26.3497 30.9342 26.5827C30.7013 26.8157 30.3853 26.9466 30.0558 26.9466C29.7263 26.9466 29.4102 26.8157 29.1773 26.5827C28.9443 26.3497 28.8134 26.0337 28.8134 25.7042V20.1563L27.5523 21.4181C27.4369 21.5335 27.2999 21.625 27.1492 21.6875C26.9984 21.7499 26.8369 21.782 26.6737 21.782C26.5105 21.782 26.349 21.7499 26.1982 21.6875ZM19.7533 46.4309C19.6909 46.2802 19.6587 46.1187 19.6588 45.9556C19.6588 45.6261 19.7897 45.3101 20.0227 45.0771C20.2557 44.8442 20.5716 44.7132 20.9011 44.7132H29.6925C29.8567 44.7116 30.0195 44.7425 30.1717 44.8042C30.3238 44.8658 30.4622 44.9571 30.5789 45.0726C30.6955 45.1881 30.7881 45.3255 30.8513 45.4771C30.9145 45.6286 30.9471 45.7911 30.9471 45.9553C30.9471 46.1194 30.9145 46.282 30.8513 46.4335C30.7881 46.585 30.6955 46.7225 30.5789 46.838C30.4622 46.9535 30.3238 47.0447 30.1717 47.1064C30.0195 47.1681 29.8567 47.199 29.6925 47.1973H20.9011C20.738 47.1974 20.5765 47.1654 20.4257 47.103C20.275 47.0407 20.138 46.9492 20.0226 46.8339C19.9073 46.7186 19.8157 46.5816 19.7533 46.4309ZM42.5083 39.6462C42.7412 39.4132 43.0572 39.2823 43.3867 39.2823H43.4077C43.7372 39.2823 44.0533 39.4132 44.2862 39.6462C44.5192 39.8792 44.6501 40.1952 44.6501 40.5247C44.6501 40.8542 44.5192 41.1702 44.2862 41.4032C44.0533 41.6362 43.7372 41.7671 43.4077 41.7671H43.3867C43.0572 41.7671 42.7412 41.6362 42.5083 41.4032C42.2753 41.1702 42.1444 40.8542 42.1444 40.5247C42.1444 40.1952 42.2753 39.8792 42.5083 39.6462ZM21.3265 24.9953C22.0481 26.7507 23.2796 28.2493 24.8618 29.2975L19.6355 29.297C19.3517 29.2991 19.0702 29.2451 18.8074 29.138C18.5445 29.0309 18.3055 28.8728 18.104 28.6728C17.9025 28.4729 17.7426 28.2351 17.6335 27.973C17.5244 27.711 17.4682 27.43 17.4682 27.1461C17.4682 26.8623 17.5244 26.5813 17.6335 26.3193C17.7426 26.0572 17.9025 25.8194 18.104 25.6195C18.3055 25.4195 18.5445 25.2614 18.8074 25.1543C19.0702 25.0472 19.3517 24.9932 19.6355 24.9953H21.3265ZM26.1971 15.6568C27.3393 14.8936 28.6821 14.4862 30.0558 14.4862C31.8971 14.4881 33.6626 15.2204 34.9647 16.5224C36.2668 17.8244 36.9992 19.5898 37.0012 21.4312C37.0013 22.8049 36.5941 24.1477 35.8309 25.2899C35.0678 26.4322 33.9831 27.3224 32.714 27.8482C31.445 28.3739 30.0485 28.5115 28.7012 28.2436C27.3539 27.9756 26.1163 27.3142 25.1449 26.3429C24.1736 25.3716 23.512 24.134 23.244 22.7868C22.976 21.4395 23.1135 20.043 23.6391 18.7739C24.1648 17.5048 25.0549 16.42 26.1971 15.6568ZM38.7855 24.9953H40.4794V29.297H35.2498C36.8322 28.2492 38.0639 26.7507 38.7855 24.9953ZM19.6355 31.7817H44.0994V31.7818V35.8678H42.5442C41.3093 35.8678 40.125 36.3584 39.2518 37.2316C38.3786 38.1048 37.888 39.2892 37.888 40.5241C37.888 41.759 38.3786 42.9433 39.2518 43.8166C40.125 44.6898 41.3093 45.1803 42.5442 45.1803H44.0994V49.2668H19.6359C19.0656 49.2663 18.5188 49.0395 18.1155 48.6363C17.7121 48.2331 17.4852 47.6864 17.4845 47.1161V31.2516C18.1478 31.6004 18.8861 31.7823 19.6355 31.7817ZM42.5442 38.3528H46.4228V38.353V42.6955H42.5442C42.2577 42.6976 41.9736 42.6431 41.7083 42.5349C41.4429 42.4268 41.2016 42.2672 40.9982 42.0654C40.7948 41.8635 40.6334 41.6234 40.5233 41.3589C40.4131 41.0944 40.3564 40.8107 40.3564 40.5242C40.3564 40.2376 40.4131 39.9539 40.5233 39.6894C40.6334 39.4249 40.7948 39.1848 40.9982 38.9829C41.2016 38.7811 41.4429 38.6215 41.7083 38.5134C41.9736 38.4052 42.2577 38.3507 42.5442 38.3528ZM15 47.1161V27.1453C15.0017 25.9165 15.4908 24.7385 16.3598 23.8698C17.2289 23.0011 18.4071 22.5125 19.6359 22.5112H20.6885C20.6472 22.1526 20.6263 21.7919 20.626 21.4308C20.6258 20.1469 20.8879 18.8764 21.3961 17.6972C21.9043 16.5181 22.6479 15.4552 23.5815 14.5737C24.515 13.6921 25.6188 13.0105 26.825 12.5706C28.0313 12.1308 29.3147 11.9419 30.5966 12.0155C31.8785 12.0892 33.1318 12.4239 34.2797 12.9991C35.4276 13.5743 36.446 14.3779 37.2724 15.3606C38.0988 16.3433 38.7158 17.4844 39.0855 18.714C39.4553 19.9436 39.57 21.2357 39.4228 22.5112H40.8127C41.3831 22.512 41.9298 22.7389 42.333 23.1423C42.7362 23.5456 42.9629 24.0924 42.9635 24.6627V29.2971H44.4331C45.0035 29.2977 45.5504 29.5246 45.9537 29.9279C46.357 30.3312 46.5839 30.8781 46.5845 31.4485V35.8682H47.6655C47.8286 35.8682 47.9901 35.9004 48.1408 35.9629C48.2915 36.0253 48.4284 36.1168 48.5437 36.2322C48.659 36.3476 48.7505 36.4845 48.8128 36.6352C48.8752 36.7859 48.9073 36.9475 48.9072 37.1106V43.9381C48.9073 44.1012 48.8752 44.2627 48.8128 44.4134C48.7505 44.5641 48.659 44.7011 48.5437 44.8164C48.4284 44.9318 48.2915 45.0233 48.1408 45.0857C47.9901 45.1482 47.8286 45.1803 47.6655 45.1803H46.5845V49.6002C46.5838 50.1707 46.3569 50.7175 45.9535 51.1209C45.5501 51.5242 45.0032 51.751 44.4327 51.7516H19.6355C18.4065 51.7502 17.2283 51.2614 16.3592 50.3923C15.4902 49.5233 15.0014 48.3451 15 47.1161Z" fill="url(#paint1_linear_2995_8421)"/>
  </g>
  <defs>
    <linearGradient id="paint0_linear_2995_8421" x1="44.5673" y1="50.5864" x2="28.9206" y2="9.82976" gradientUnits="userSpaceOnUse">
      <stop stop-color="#FFD569"/>
      <stop offset="0.515056" stop-color="#FC8E4F"/>
      <stop offset="1" stop-color="#FF697B"/>
    </linearGradient>
    <linearGradient id="paint1_linear_2995_8421" x1="38.6115" y1="43.4201" x2="27.7409" y2="19.2674" gradientUnits="userSpaceOnUse">
      <stop stop-color="#FFD569"/>
      <stop offset="0.515056" stop-color="#FC8E4F"/>
      <stop offset="1" stop-color="#FF697B"/>
    </linearGradient>
    <clipPath id="clip0_2995_8421">
      <rect width="64" height="64" fill="white"/>
    </clipPath>
  </defs>
</svg>