<svg width="106" height="24" viewBox="0 0 106 24" fill="none" xmlns="http://www.w3.org/2000/svg">
<path d="M64.27 4.1543H61.503V7.131H59.8464V9.74273H61.503V16.5762C61.4842 17.1753 61.5719 17.773 61.7618 18.3415C61.9188 18.7652 62.1775 19.1439 62.515 19.4442C62.8398 19.7405 63.2287 19.9575 63.6514 20.0784C64.6107 20.3113 65.6118 20.3113 66.5711 20.0784C66.9522 19.9778 67.3198 19.8318 67.666 19.6435V17.5417C67.1477 17.7603 66.5925 17.878 66.0301 17.8885C65.7977 17.915 65.5623 17.8897 65.3408 17.8145C65.1193 17.7394 64.9172 17.6161 64.7489 17.4537C64.4305 17.1534 64.2622 16.76 64.2622 16.0973V9.74273H67.666V7.131H64.27V4.1543ZM55.5651 8.05766C54.5581 7.32048 53.3666 6.87664 52.1227 6.77537C50.8788 6.6741 49.6312 6.91935 48.5182 7.48392C47.4052 8.04849 46.4704 8.91032 45.8174 9.97382C45.1643 11.0373 44.8186 12.2609 44.8186 13.5089C44.8186 14.7569 45.1643 15.9805 45.8174 17.044C46.4704 18.1075 47.4052 18.9693 48.5182 19.5339C49.6312 20.0985 50.8788 20.3437 52.1227 20.2424C53.3666 20.1412 54.5581 19.6973 55.5651 18.9602V19.8946H58.3321V7.12064H55.5651V8.05766ZM51.5737 17.4873C50.7842 17.4873 50.0124 17.2532 49.3559 16.8145C48.6995 16.3758 48.1879 15.7523 47.8859 15.0228C47.5839 14.2933 47.505 13.4907 47.6592 12.7163C47.8134 11.942 48.1938 11.2308 48.7523 10.6727C49.3108 10.1146 50.0222 9.73469 50.7966 9.58098C51.571 9.42726 52.3737 9.50667 53.1029 9.80917C53.8322 10.1117 54.4554 10.6236 54.8937 11.2804C55.3319 11.9371 55.5656 12.709 55.5651 13.4986C55.5651 14.0226 55.4618 14.5415 55.2612 15.0256C55.0606 15.5097 54.7665 15.9495 54.3959 16.32C54.0252 16.6904 53.5852 16.9842 53.1009 17.1845C52.6167 17.3848 52.0977 17.4877 51.5737 17.4873ZM36.4106 11.0162V14.0965H40.5754C40.3167 15.1909 39.6891 16.1629 38.7983 16.8492C37.9074 17.5354 36.8075 17.8942 35.6833 17.8653C34.7955 17.8635 33.9223 17.6391 33.1437 17.2127C32.365 16.7862 31.7057 16.1713 31.2262 15.4242C30.7466 14.677 30.462 13.8216 30.3986 12.9361C30.3351 12.0506 30.4946 11.1633 30.8627 10.3554C31.2308 9.54747 31.7956 8.84478 32.5054 8.31159C33.2153 7.7784 34.0475 7.43173 34.9259 7.30332C35.8044 7.1749 36.701 7.26884 37.5338 7.57653C38.3665 7.88422 39.1089 8.39583 39.6928 9.06456L42.0767 7.11806C41.1657 6.04422 39.999 5.21706 38.6842 4.71287C37.3694 4.20867 35.9487 4.04368 34.5533 4.23311C33.1579 4.42253 31.8327 4.96028 30.6999 5.79674C29.567 6.63321 28.663 7.74147 28.0713 9.0193C27.4796 10.2971 27.2191 11.7034 27.314 13.1084C27.4088 14.5134 27.856 15.8719 28.6141 17.0586C29.3723 18.2453 30.417 19.2219 31.652 19.8985C32.887 20.5751 34.2725 20.9298 35.6807 20.93C36.761 20.9496 37.8342 20.7509 38.8359 20.3457C39.8376 19.9405 40.7471 19.3372 41.5099 18.5719C42.8006 17.2356 43.6023 15.5027 43.7851 13.6539C43.8601 12.7723 43.8731 11.8866 43.8239 11.0033L36.4106 11.0162ZM98.6574 6.7505C97.3207 6.7505 96.014 7.14687 94.9026 7.8895C93.7912 8.63212 92.925 9.68764 92.4134 10.9226C91.9019 12.1575 91.7681 13.5164 92.0288 14.8274C92.2896 16.1384 92.9333 17.3426 93.8785 18.2878C94.8236 19.233 96.0279 19.8767 97.3389 20.1375C98.6499 20.3982 100.009 20.2644 101.244 19.7529C102.479 19.2413 103.534 18.3751 104.277 17.2637C105.019 16.1523 105.416 14.8456 105.416 13.5089C105.417 12.6205 105.243 11.7406 104.904 10.9194C104.565 10.0982 104.068 9.35197 103.44 8.7233C102.812 8.09462 102.067 7.59588 101.246 7.25559C100.425 6.9153 99.5458 6.74014 98.6574 6.74014V6.7505ZM98.6574 17.4977C97.8679 17.4977 97.0961 17.2635 96.4396 16.8248C95.7832 16.3862 95.2716 15.7626 94.9696 15.0332C94.6676 14.3037 94.5887 13.501 94.7429 12.7267C94.8971 11.9524 95.2775 11.2412 95.836 10.6831C96.3944 10.125 97.1059 9.74504 97.8803 9.59133C98.6547 9.43761 99.4573 9.51702 100.187 9.81952C100.916 10.122 101.539 10.634 101.977 11.2907C102.416 11.9474 102.649 12.7194 102.649 13.5089C102.646 14.5655 102.224 15.5777 101.476 16.3236C100.728 17.0695 99.7139 17.488 98.6574 17.4873V17.4977ZM87.3718 19.9049H90.3485V8.44075H87.3718V19.9049ZM82.8239 19.9049H85.8006V16.9179H82.8239V19.9049ZM75.2812 6.7505C74.0871 6.74935 72.914 7.06459 71.8813 7.66415C70.8486 8.26371 69.9933 9.12617 69.4022 10.1637C68.8112 11.2013 68.5056 12.377 68.5166 13.571C68.5275 14.7651 68.8547 15.9349 69.4647 16.9615C70.0747 17.988 70.9458 18.8346 71.9893 19.4151C73.0329 19.9955 74.2116 20.2892 75.4054 20.2661C76.5993 20.243 77.7658 19.9039 78.7861 19.2835C79.8064 18.6631 80.6441 17.7835 81.2139 16.7341L78.7161 15.5201C78.3165 16.1984 77.7253 16.7434 77.0168 17.0866C76.3082 17.4297 75.5141 17.5557 74.7342 17.4486C73.9542 17.3415 73.2234 17.0062 72.6336 16.4848C72.0437 15.9634 71.6212 15.2793 71.4193 14.5184H79.1432H81.9697C82.117 13.5555 82.0545 12.5721 81.7865 11.6356C81.5185 10.6991 81.0512 9.83161 80.4168 9.09246C79.7824 8.3533 78.9957 7.75996 78.1106 7.35306C77.2256 6.94617 76.2631 6.73533 75.289 6.73497L75.2812 6.7505ZM71.5461 12.1008C71.8316 11.3412 72.3419 10.6867 73.0091 10.2247C73.6762 9.76273 74.4684 9.51521 75.2799 9.51521C76.0914 9.51521 76.8836 9.76273 77.5507 10.2247C78.2179 10.6867 78.7283 11.3412 79.0137 12.1008H71.5461ZM87.3718 7.14135H90.3485V4.16465H87.3718V7.14135Z" fill="white"/>
<path d="M12.584 18.6005C10.8334 18.6005 9.15455 17.9051 7.91672 16.6673C6.67888 15.4294 5.98347 13.7506 5.98347 12C5.98347 10.2494 6.67888 8.57056 7.91672 7.33273C9.15455 6.09489 10.8334 5.39948 12.584 5.39948V0C10.2106 0 7.89053 0.703786 5.91714 2.02236C3.94375 3.34094 2.40569 5.21508 1.49744 7.40779C0.589184 9.60051 0.351544 12.0133 0.814566 14.3411C1.27759 16.6688 2.42048 18.807 4.09871 20.4853C5.77694 22.1635 7.91513 23.3064 10.2429 23.7694C12.5707 24.2324 14.9835 23.9948 17.1762 23.0865C19.3689 22.1783 21.243 20.6402 22.5616 18.6668C23.8802 16.6934 24.584 14.3734 24.584 12H19.1845C19.1845 13.7506 18.4891 15.4294 17.2513 16.6673C16.0134 17.9051 14.3346 18.6005 12.584 18.6005Z" fill="#2354E6"/>
<path d="M19.1845 5.39941H12.584V11.9999H19.1845V5.39941Z" fill="#17E6A1"/>
</svg>
