<svg width="64" height="65" viewBox="0 0 64 65" fill="none" xmlns="http://www.w3.org/2000/svg">
<g id="Group 427320534">
<g id="Group 427320525">
<g id="Group 427320520">
<rect id="Rectangle 857" y="0.234375" width="64" height="64" rx="32" fill="url(#paint0_linear_1156_7753)" fill-opacity="0.08"/>
</g>
</g>
<path id="&#244;&#128;&#141;&#176;" d="M20.2386 41.4863H23.9953C24.4487 41.4863 24.8104 41.3514 25.0802 41.0815C25.3609 40.8009 25.5012 40.4446 25.5012 40.0128V37.1791C25.5012 36.7473 25.3609 36.3965 25.0802 36.1266C24.8104 35.8459 24.4487 35.7056 23.9953 35.7056H20.2386C19.796 35.7056 19.4344 35.8459 19.1537 36.1266C18.873 36.3965 18.7327 36.7473 18.7327 37.1791V40.0128C18.7327 40.4446 18.873 40.8009 19.1537 41.0815C19.4344 41.3514 19.796 41.4863 20.2386 41.4863ZM13.7939 29.8114H50.1465V26.2005H13.7939V29.8114ZM18.9108 46.4089C17.2376 46.4089 15.9638 45.9771 15.0894 45.1135C14.2257 44.2607 13.7939 43.0031 13.7939 41.3406V24.8403C13.7939 23.167 14.2257 21.904 15.0894 21.0512C15.9638 20.1984 17.2376 19.772 18.9108 19.772H45.0296C46.7137 19.772 47.9875 20.2038 48.8511 21.0674C49.7147 21.9202 50.1465 23.1778 50.1465 24.8403V41.3406C50.1465 43.0031 49.7147 44.2607 48.8511 45.1135C47.9875 45.9771 46.7137 46.4089 45.0296 46.4089H18.9108Z" fill="url(#paint1_linear_1156_7753)"/>
</g>
<defs>
<linearGradient id="paint0_linear_1156_7753" x1="44.5667" y1="50.8207" x2="28.9202" y2="10.0646" gradientUnits="userSpaceOnUse">
<stop stop-color="#FFD569"/>
<stop offset="0.515056" stop-color="#FC8E4F"/>
<stop offset="1" stop-color="#FF697B"/>
</linearGradient>
<linearGradient id="paint1_linear_1156_7753" x1="39.1082" y1="40.8261" x2="34.0347" y2="22.7905" gradientUnits="userSpaceOnUse">
<stop stop-color="#FFD569"/>
<stop offset="0.515056" stop-color="#FC8E4F"/>
<stop offset="1" stop-color="#FF697B"/>
</linearGradient>
</defs>
</svg>
