<svg width="613" height="201" viewBox="0 0 613 201" fill="none" xmlns="http://www.w3.org/2000/svg">
<path d="M301.459 92.1102C301.459 54.4308 270.914 23.8856 233.234 23.8856C195.555 23.8856 165.01 54.4308 165.01 92.1102C165.01 129.79 195.555 160.335 233.234 160.335C270.914 160.335 301.459 129.79 301.459 92.1102Z" fill="url(#paint0_radial_1156_3897)"/>
<path d="M279.804 141.474C279.804 138.516 277.354 136.119 274.332 136.119C271.31 136.119 268.86 138.516 268.86 141.474C268.86 144.432 271.31 146.83 274.332 146.83C277.354 146.83 279.804 144.432 279.804 141.474Z" fill="url(#paint1_radial_1156_3897)"/>
<path d="M0.154541 115.395L248.836 115.101L248.836 86.1337L0.15454 86.0562L0.154541 115.395Z" fill="url(#paint2_linear_1156_3897)"/>
<path d="M272.121 129.599L222.524 100.751L272.121 71.8524" fill="black"/>
<path d="M272.121 129.599L222.524 100.751L272.121 71.8525" stroke="url(#paint3_linear_1156_3897)" stroke-width="0.232849" stroke-miterlimit="10"/>
<path style="mix-blend-mode:screen" d="M612.775 158.239L272.121 115.102L272.121 86.1318L612.775 43.212L612.775 158.239Z" fill="url(#paint4_linear_1156_3897)"/>
<path d="M272.121 115.162L243.015 101.03L272.121 86.5219" stroke="url(#paint5_linear_1156_3897)" stroke-width="0.232849" stroke-miterlimit="10"/>
<path d="M272.12 122.613L232.769 100.987L272.12 79.3036" stroke="url(#paint6_linear_1156_3897)" stroke-width="0.232849" stroke-miterlimit="10"/>
<path d="M607.758 200.618L272.121 114.985L272.121 86.0164L607.758 0.600785L607.758 200.618Z" fill="url(#paint7_linear_1156_3897)"/>
<path d="M272.354 115.162L243.015 100.796L272.354 86.0562" fill="url(#paint8_linear_1156_3897)"/>
<path d="M263.626 93.8974C263.697 93.8216 263.79 93.7714 263.892 93.7545C264.04 93.7305 264.191 93.7367 264.336 93.7727C264.879 93.8907 265.609 94.3112 266.299 94.9477C266.988 95.5842 267.47 96.2772 267.636 96.814C267.684 96.9565 267.704 97.1074 267.693 97.2577C267.686 97.3624 267.646 97.4621 267.578 97.5418C267.193 97.9673 265.996 97.497 264.904 96.4915C263.811 95.4861 263.239 94.3228 263.626 93.8974Z" fill="url(#paint9_linear_1156_3897)"/>
<path d="M263.505 93.8847L263.905 93.4395C264.308 92.9926 265.559 93.4847 266.7 94.5386C267.841 95.5925 268.44 96.7995 268.036 97.2534L267.635 97.6986C267.706 97.6151 267.748 97.5109 267.756 97.4012C267.766 97.2439 267.746 97.0861 267.695 96.9369C267.523 96.3769 267.018 95.6482 266.298 94.9838C265.578 94.3195 264.815 93.8778 264.247 93.7543C264.096 93.7166 263.938 93.7101 263.783 93.7352C263.677 93.7529 263.579 93.8054 263.505 93.8847Z" fill="url(#paint10_linear_1156_3897)"/>
<g style="mix-blend-mode:lighten">
<path style="mix-blend-mode:lighten" d="M162.184 81.3078C162.184 79.6443 160.836 78.2958 159.172 78.2958C157.509 78.2958 156.16 79.6443 156.16 81.3078C156.16 82.9714 157.509 84.3199 159.172 84.3199C160.836 84.3199 162.184 82.9714 162.184 81.3078Z" fill="url(#paint11_radial_1156_3897)"/>
<path d="M159.868 81.3078C159.868 80.9235 159.557 80.6121 159.172 80.6121C158.788 80.6121 158.477 80.9235 158.477 81.3078C158.477 81.692 158.788 82.0035 159.172 82.0035C159.557 82.0035 159.868 81.692 159.868 81.3078Z" fill="#FFFEE9"/>
<path style="mix-blend-mode:color-dodge" d="M222.888 107.505C222.888 106.031 221.692 104.836 220.218 104.836C218.744 104.836 217.549 106.031 217.549 107.505C217.549 108.98 218.744 110.175 220.218 110.175C221.692 110.175 222.888 108.98 222.888 107.505Z" fill="url(#paint12_radial_1156_3897)"/>
<path d="M220.835 107.505C220.835 107.165 220.559 106.889 220.218 106.889C219.878 106.889 219.602 107.165 219.602 107.505C219.602 107.846 219.878 108.122 220.218 108.122C220.559 108.122 220.835 107.846 220.835 107.505Z" fill="#FFFEE9"/>
<g opacity="0.97">
<path style="mix-blend-mode:lighten" d="M235.859 121.191C235.859 120.023 234.911 119.075 233.742 119.075C232.574 119.075 231.626 120.023 231.626 121.191C231.626 122.36 232.574 123.308 233.742 123.308C234.911 123.308 235.859 122.36 235.859 121.191Z" fill="url(#paint13_radial_1156_3897)"/>
<path d="M234.232 121.191C234.232 120.921 234.013 120.702 233.743 120.702C233.473 120.702 233.254 120.921 233.254 121.191C233.254 121.462 233.473 121.681 233.743 121.681C234.013 121.681 234.232 121.462 234.232 121.191Z" fill="#FF3A1A"/>
</g>
<g opacity="0.97">
<path style="mix-blend-mode:lighten" d="M177.705 87.4129C177.705 86.829 177.231 86.3555 176.647 86.3555C176.063 86.3555 175.59 86.829 175.59 87.4129C175.59 87.9969 176.063 88.4703 176.647 88.4703C177.231 88.4703 177.705 87.9969 177.705 87.4129Z" fill="url(#paint14_radial_1156_3897)"/>
<path d="M176.892 87.4131C176.892 87.278 176.783 87.1685 176.648 87.1685C176.513 87.1685 176.403 87.278 176.403 87.4131C176.403 87.5481 176.513 87.6576 176.648 87.6576C176.783 87.6576 176.892 87.5481 176.892 87.4131Z" fill="#FF3A1A"/>
</g>
<g opacity="0.97">
<path style="mix-blend-mode:lighten" d="M210.492 124.166C210.492 123.447 209.909 122.864 209.19 122.864C208.471 122.864 207.888 123.447 207.888 124.166C207.888 124.885 208.471 125.468 209.19 125.468C209.909 125.468 210.492 124.885 210.492 124.166Z" fill="url(#paint15_radial_1156_3897)"/>
<path d="M209.491 124.166C209.491 123.999 209.356 123.864 209.19 123.864C209.024 123.864 208.889 123.999 208.889 124.166C208.889 124.332 209.024 124.467 209.19 124.467C209.356 124.467 209.491 124.332 209.491 124.166Z" fill="#FF3A1A"/>
</g>
<g opacity="0.43">
<path style="mix-blend-mode:lighten" d="M184.254 100.987C184.254 100.332 183.723 99.8006 183.068 99.8006C182.412 99.8006 181.881 100.332 181.881 100.987C181.881 101.642 182.412 102.174 183.068 102.174C183.723 102.174 184.254 101.642 184.254 100.987Z" fill="url(#paint16_radial_1156_3897)"/>
<path d="M183.342 100.987C183.342 100.836 183.219 100.713 183.068 100.713C182.917 100.713 182.794 100.836 182.794 100.987C182.794 101.138 182.917 101.261 183.068 101.261C183.219 101.261 183.342 101.138 183.342 100.987Z" fill="#FF9E94"/>
</g>
<g opacity="0.43">
<path style="mix-blend-mode:lighten" d="M163.535 88.627C163.535 88.2542 163.233 87.9519 162.86 87.9519C162.487 87.9519 162.185 88.2542 162.185 88.627C162.185 88.9998 162.487 89.3021 162.86 89.3021C163.233 89.3021 163.535 88.9998 163.535 88.627Z" fill="url(#paint17_radial_1156_3897)"/>
<path d="M163.018 88.6267C163.018 88.5399 162.947 88.4695 162.861 88.4695C162.774 88.4695 162.703 88.5399 162.703 88.6267C162.703 88.7134 162.774 88.7838 162.861 88.7838C162.947 88.7838 163.018 88.7134 163.018 88.6267Z" fill="#FF3B12"/>
</g>
<g opacity="0.43">
<path style="mix-blend-mode:lighten" d="M190.302 82.8353C190.302 82.3026 189.87 81.8708 189.337 81.8708C188.805 81.8708 188.373 82.3026 188.373 82.8353C188.373 83.3679 188.805 83.7997 189.337 83.7997C189.87 83.7997 190.302 83.3679 190.302 82.8353Z" fill="url(#paint18_radial_1156_3897)"/>
<path d="M189.56 82.8352C189.56 82.7125 189.46 82.613 189.337 82.613C189.215 82.613 189.115 82.7125 189.115 82.8352C189.115 82.9579 189.215 83.0574 189.337 83.0574C189.46 83.0574 189.56 82.9579 189.56 82.8352Z" fill="#FF3406"/>
</g>
<g opacity="0.65">
<path style="mix-blend-mode:lighten" d="M222.047 82.6132C222.047 81.7924 221.381 81.127 220.56 81.127C219.74 81.127 219.074 81.7924 219.074 82.6132C219.074 83.4341 219.74 84.0995 220.56 84.0995C221.381 84.0995 222.047 83.4341 222.047 82.6132Z" fill="url(#paint19_radial_1156_3897)"/>
<path d="M220.903 82.6133C220.903 82.4241 220.75 82.2706 220.56 82.2706C220.371 82.2706 220.218 82.4241 220.218 82.6133C220.218 82.8026 220.371 82.9561 220.56 82.9561C220.75 82.9561 220.903 82.8026 220.903 82.6133Z" fill="#FFE0DC"/>
</g>
</g>
<path d="M483.853 170.464C483.853 160.626 475.878 152.651 466.04 152.651C456.203 152.651 448.228 160.626 448.228 170.464C448.228 180.302 456.203 188.277 466.04 188.277C475.878 188.277 483.853 180.302 483.853 170.464Z" fill="url(#paint20_radial_1156_3897)"/>
<path d="M143.336 144.701L147.917 144.05L153.672 145.914L159.868 143.784L151.602 138.929L143.336 144.701Z" fill="url(#paint21_linear_1156_3897)"/>
<path d="M151.729 150.106L153.581 145.876L147.876 144.052L143.336 144.689L151.729 150.106Z" fill="url(#paint22_radial_1156_3897)"/>
<path d="M159.867 143.819L156.097 147.394L151.718 150.106L153.606 145.895L159.867 143.819Z" fill="url(#paint23_radial_1156_3897)"/>
<path d="M393.066 23.711L402.228 24.9917L413.739 21.3243L426.131 25.5156L409.599 35.0624L393.066 23.711Z" fill="url(#paint24_linear_1156_3897)"/>
<path d="M410.045 12.7088L413.79 21.3298L402.251 25.0498L393.066 23.7508L410.045 12.7088Z" fill="url(#paint25_radial_1156_3897)"/>
<path d="M426.131 25.5155L418.701 18.231L410.064 12.7088L413.786 21.2858L426.131 25.5155Z" fill="url(#paint26_radial_1156_3897)"/>
<path d="M216.702 64.2848C216.702 59.9767 213.262 56.4844 209.018 56.4844C204.774 56.4844 201.334 59.9767 201.334 64.2848C201.334 68.5928 204.774 72.0852 209.018 72.0852C213.262 72.0852 216.702 68.5928 216.702 64.2848Z" fill="url(#paint27_radial_1156_3897)"/>
<path d="M108.783 83.7997C108.783 79.4916 105.343 75.9992 101.099 75.9992C96.8553 75.9992 93.415 79.4916 93.415 83.7997C93.415 88.1077 96.8553 91.6001 101.099 91.6001C105.343 91.6001 108.783 88.1077 108.783 83.7997Z" fill="url(#paint28_radial_1156_3897)"/>
<path d="M50.4062 126.231C50.4062 124.371 48.921 122.864 47.0889 122.864C45.2567 122.864 43.7715 124.371 43.7715 126.231C43.7715 128.091 45.2567 129.599 47.0889 129.599C48.921 129.599 50.4062 128.091 50.4062 126.231Z" fill="url(#paint29_radial_1156_3897)"/>
<path d="M509.35 27.3784C509.35 13.3611 497.935 1.99793 483.853 1.99794C469.772 1.99794 458.356 13.3611 458.356 27.3784C458.356 41.3957 469.772 52.7589 483.853 52.7589C497.935 52.7589 509.35 41.3957 509.35 27.3784Z" fill="url(#paint30_radial_1156_3897)"/>
<path d="M341.743 41.5821C341.743 36.6953 337.781 32.7338 332.894 32.7338C328.008 32.7338 324.046 36.6953 324.046 41.5821C324.046 46.4688 328.008 50.4303 332.894 50.4303C337.781 50.4303 341.743 46.4688 341.743 41.5821Z" fill="url(#paint31_radial_1156_3897)"/>
<g opacity="0.46">
<path style="mix-blend-mode:screen" d="M293.042 82.9597L293.122 83.2859L360.794 66.6765L360.714 66.3504L293.042 82.9597Z" fill="url(#paint32_linear_1156_3897)"/>
</g>
<g opacity="0.46">
<path style="mix-blend-mode:screen" d="M272.038 90.6821L272.111 91.0099L340.132 75.8926L340.059 75.5648L272.038 90.6821Z" fill="url(#paint33_linear_1156_3897)"/>
</g>
<g opacity="0.46">
<path style="mix-blend-mode:screen" d="M283.236 96.0515L283.265 96.3861L352.693 90.4584L352.664 90.1238L283.236 96.0515Z" fill="url(#paint34_linear_1156_3897)"/>
</g>
<g opacity="0.46">
<path style="mix-blend-mode:screen" d="M328.333 116.05L395.976 132.777L396.056 132.451L328.413 115.724L328.333 116.05Z" fill="url(#paint35_linear_1156_3897)"/>
</g>
<g opacity="0.46">
<path style="mix-blend-mode:screen" d="M353.396 119.154L402.14 128.496L402.185 128.261L353.441 118.919L353.396 119.154Z" fill="url(#paint36_linear_1156_3897)"/>
</g>
<path style="mix-blend-mode:screen" d="M341.466 132.85L379.821 145.193L379.88 145.008L341.526 132.664L341.466 132.85Z" fill="url(#paint37_linear_1156_3897)"/>
<path style="mix-blend-mode:screen" d="M341.932 64.5994L342.016 64.8801L400.186 47.6382L400.103 47.3575L341.932 64.5994Z" fill="url(#paint38_linear_1156_3897)"/>
<path style="mix-blend-mode:screen" d="M272.031 104.93L310.959 115.324L311.009 115.136L272.081 104.742L272.031 104.93Z" fill="url(#paint39_linear_1156_3897)"/>
<g opacity="0.46">
<path style="mix-blend-mode:screen" d="M317.869 102.07L358.022 105.406L358.038 105.212L317.885 101.876L317.869 102.07Z" fill="url(#paint40_linear_1156_3897)"/>
</g>
<path style="mix-blend-mode:screen" d="M332.005 99.1403L372.296 99.4005L372.297 99.2059L332.006 98.9457L332.005 99.1403Z" fill="url(#paint41_linear_1156_3897)"/>
<g opacity="0.46">
<path style="mix-blend-mode:screen" d="M353.846 77.4236L353.892 77.6128L393.067 68.1932L393.021 68.004L353.846 77.4236Z" fill="url(#paint42_linear_1156_3897)"/>
</g>
<path d="M298.576 83.2167C298.954 82.8695 299.41 82.6193 299.906 82.4875C300.528 82.3271 301.175 82.2892 301.812 82.376C304.304 82.6677 307.448 84.452 310.133 87.3345C312.817 90.2169 314.374 93.4785 314.489 95.9835C314.529 96.6226 314.445 97.2635 314.242 97.8708C314.075 98.3556 313.793 98.7925 313.42 99.1438C311.137 101.27 305.962 99.4269 301.863 95.0261C297.764 90.6252 296.293 85.3425 298.576 83.2167Z" fill="url(#paint43_linear_1156_3897)"/>
<path d="M298.666 83.1283L300.802 81.1199C303.066 78.9894 308.201 80.8379 312.267 85.2467C316.334 89.6556 317.793 94.9586 315.529 97.089L313.395 99.0957C313.765 98.7436 314.045 98.3057 314.21 97.8198C314.412 97.2112 314.496 96.5689 314.456 95.9284C314.342 93.4179 312.797 90.1474 310.134 87.2603C307.47 84.3732 304.344 82.5832 301.878 82.2909C301.246 82.2039 300.604 82.2419 299.987 82.4027C299.495 82.5329 299.042 82.7819 298.666 83.1283Z" fill="url(#paint44_radial_1156_3897)"/>
<path d="M386.638 118.984C387.263 119.326 387.759 119.864 388.049 120.515C388.467 121.453 388.693 122.465 388.712 123.491C388.902 127.299 387.419 132.895 384.453 138.578C381.486 144.26 377.752 148.692 374.523 150.725C373.669 151.297 372.71 151.694 371.701 151.892C370.999 152.029 370.272 151.932 369.631 151.616C366.141 149.805 367.118 141.028 371.812 132.017C376.506 123.005 383.141 117.176 386.638 118.984Z" fill="url(#paint45_linear_1156_3897)"/>
<path d="M386.645 118.888L390.128 120.689C393.62 122.499 392.642 131.253 387.944 140.245C383.245 149.237 376.609 155.059 373.117 153.254L369.635 151.447C370.276 151.763 371.004 151.86 371.707 151.724C372.716 151.527 373.676 151.131 374.53 150.559C377.761 148.53 381.501 144.116 384.466 138.441C387.431 132.767 388.914 127.184 388.726 123.388C388.707 122.364 388.482 121.355 388.063 120.419C387.772 119.768 387.274 119.23 386.645 118.888Z" fill="url(#paint46_radial_1156_3897)"/>
<defs>
<radialGradient id="paint0_radial_1156_3897" cx="0" cy="0" r="1" gradientUnits="userSpaceOnUse" gradientTransform="translate(233.234 92.1119) rotate(-90) scale(68.2246)">
<stop stop-color="#8E7F66"/>
<stop offset="0.33" stop-color="#554C3D" stop-opacity="0.6"/>
<stop offset="0.63" stop-color="#27231C" stop-opacity="0.28"/>
<stop offset="0.87" stop-color="#0B0908" stop-opacity="0.07"/>
<stop offset="1" stop-opacity="0"/>
</radialGradient>
<radialGradient id="paint1_radial_1156_3897" cx="0" cy="0" r="1" gradientUnits="userSpaceOnUse" gradientTransform="translate(275.928 149.903) rotate(-32.1773) scale(12.3744 11.8194)">
<stop offset="0.65" stop-color="#C47E34"/>
<stop offset="0.71" stop-color="#C58038"/>
<stop offset="0.76" stop-color="#C88843"/>
<stop offset="0.81" stop-color="#CE9555"/>
<stop offset="0.87" stop-color="#D5A770"/>
<stop offset="0.92" stop-color="#DFBE91"/>
<stop offset="0.97" stop-color="#EBDABA"/>
<stop offset="1" stop-color="#F5F1DC"/>
</radialGradient>
<linearGradient id="paint2_linear_1156_3897" x1="-39.8375" y1="100.726" x2="242.453" y2="100.726" gradientUnits="userSpaceOnUse">
<stop offset="0.16" stop-color="#0A101B" stop-opacity="0"/>
<stop offset="0.19" stop-color="#252024" stop-opacity="0.03"/>
<stop offset="0.31" stop-color="#7E5443" stop-opacity="0.15"/>
<stop offset="0.42" stop-color="#BF7959" stop-opacity="0.23"/>
<stop offset="0.54" stop-color="#E59066" stop-opacity="0.28"/>
<stop offset="0.66" stop-color="#F2976A" stop-opacity="0.3"/>
<stop offset="0.7" stop-color="#F39D6E" stop-opacity="0.36"/>
<stop offset="0.79" stop-color="#F6AE77" stop-opacity="0.53"/>
<stop offset="0.91" stop-color="#FBC986" stop-opacity="0.8"/>
<stop offset="1" stop-color="#FFDE91"/>
</linearGradient>
<linearGradient id="paint3_linear_1156_3897" x1="272.164" y1="100.725" x2="222.353" y2="100.725" gradientUnits="userSpaceOnUse">
<stop stop-color="#090503" stop-opacity="0.04"/>
<stop offset="0.02" stop-color="#371F0F" stop-opacity="0.22"/>
<stop offset="0.04" stop-color="#62371B" stop-opacity="0.39"/>
<stop offset="0.06" stop-color="#884D26" stop-opacity="0.53"/>
<stop offset="0.09" stop-color="#A85F2F" stop-opacity="0.66"/>
<stop offset="0.11" stop-color="#C46E36" stop-opacity="0.77"/>
<stop offset="0.14" stop-color="#DA7B3D" stop-opacity="0.85"/>
<stop offset="0.18" stop-color="#EB8441" stop-opacity="0.92"/>
<stop offset="0.22" stop-color="#F68B45" stop-opacity="0.97"/>
<stop offset="0.28" stop-color="#FD8F46" stop-opacity="0.99"/>
<stop offset="0.44" stop-color="#FF9047"/>
<stop offset="0.81" stop-color="#F7716E"/>
<stop offset="1" stop-color="#F4657D"/>
</linearGradient>
<linearGradient id="paint4_linear_1156_3897" x1="270.894" y1="100.726" x2="657.587" y2="100.726" gradientUnits="userSpaceOnUse">
<stop stop-color="white"/>
<stop offset="0.01" stop-color="#F2E5E5" stop-opacity="0.94"/>
<stop offset="0.02" stop-color="#DEBFBD" stop-opacity="0.85"/>
<stop offset="0.03" stop-color="#CC9C9A" stop-opacity="0.76"/>
<stop offset="0.04" stop-color="#BD7E7B" stop-opacity="0.69"/>
<stop offset="0.05" stop-color="#B06461" stop-opacity="0.63"/>
<stop offset="0.07" stop-color="#A5504C" stop-opacity="0.58"/>
<stop offset="0.08" stop-color="#9D403C" stop-opacity="0.55"/>
<stop offset="0.1" stop-color="#973530" stop-opacity="0.52"/>
<stop offset="0.13" stop-color="#942F2A" stop-opacity="0.5"/>
<stop offset="0.2" stop-color="#932D28" stop-opacity="0.5"/>
<stop offset="0.34" stop-color="#882B27" stop-opacity="0.46"/>
<stop offset="0.52" stop-color="#6B2424" stop-opacity="0.35"/>
<stop offset="0.73" stop-color="#391A1F" stop-opacity="0.17"/>
<stop offset="0.89" stop-color="#0A101B" stop-opacity="0"/>
</linearGradient>
<linearGradient id="paint5_linear_1156_3897" x1="272.16" y1="100.841" x2="242.819" y2="100.841" gradientUnits="userSpaceOnUse">
<stop stop-color="#090503" stop-opacity="0.04"/>
<stop offset="0.02" stop-color="#371F0F" stop-opacity="0.22"/>
<stop offset="0.04" stop-color="#62371B" stop-opacity="0.39"/>
<stop offset="0.06" stop-color="#884D26" stop-opacity="0.53"/>
<stop offset="0.09" stop-color="#A85F2F" stop-opacity="0.66"/>
<stop offset="0.11" stop-color="#C46E36" stop-opacity="0.77"/>
<stop offset="0.14" stop-color="#DA7B3D" stop-opacity="0.85"/>
<stop offset="0.18" stop-color="#EB8441" stop-opacity="0.92"/>
<stop offset="0.22" stop-color="#F68B45" stop-opacity="0.97"/>
<stop offset="0.28" stop-color="#FD8F46" stop-opacity="0.99"/>
<stop offset="0.44" stop-color="#FF9047"/>
<stop offset="0.81" stop-color="#F7716E"/>
<stop offset="1" stop-color="#F4657D"/>
</linearGradient>
<linearGradient id="paint6_linear_1156_3897" x1="272.163" y1="100.959" x2="232.592" y2="100.959" gradientUnits="userSpaceOnUse">
<stop stop-color="#090503" stop-opacity="0.04"/>
<stop offset="0.02" stop-color="#371F0F" stop-opacity="0.22"/>
<stop offset="0.04" stop-color="#62371B" stop-opacity="0.39"/>
<stop offset="0.06" stop-color="#884D26" stop-opacity="0.53"/>
<stop offset="0.09" stop-color="#A85F2F" stop-opacity="0.66"/>
<stop offset="0.11" stop-color="#C46E36" stop-opacity="0.77"/>
<stop offset="0.14" stop-color="#DA7B3D" stop-opacity="0.85"/>
<stop offset="0.18" stop-color="#EB8441" stop-opacity="0.92"/>
<stop offset="0.22" stop-color="#F68B45" stop-opacity="0.97"/>
<stop offset="0.28" stop-color="#FD8F46" stop-opacity="0.99"/>
<stop offset="0.44" stop-color="#FF9047"/>
<stop offset="0.81" stop-color="#F7716E"/>
<stop offset="1" stop-color="#F4657D"/>
</linearGradient>
<linearGradient id="paint7_linear_1156_3897" x1="270.912" y1="100.609" x2="651.909" y2="100.609" gradientUnits="userSpaceOnUse">
<stop stop-color="#FFDE91"/>
<stop offset="0.03" stop-color="#FCCF89" stop-opacity="0.86"/>
<stop offset="0.08" stop-color="#F9BB7E" stop-opacity="0.66"/>
<stop offset="0.12" stop-color="#F6AC75" stop-opacity="0.5"/>
<stop offset="0.16" stop-color="#F4A06F" stop-opacity="0.39"/>
<stop offset="0.2" stop-color="#F2996B" stop-opacity="0.32"/>
<stop offset="0.22" stop-color="#F2976A" stop-opacity="0.3"/>
<stop offset="0.42" stop-color="#E99267" stop-opacity="0.29"/>
<stop offset="0.56" stop-color="#CB805D" stop-opacity="0.25"/>
<stop offset="0.69" stop-color="#99634C" stop-opacity="0.18"/>
<stop offset="0.8" stop-color="#523A34" stop-opacity="0.09"/>
<stop offset="0.89" stop-color="#0A101B" stop-opacity="0"/>
</linearGradient>
<linearGradient id="paint8_linear_1156_3897" x1="273.582" y1="100.608" x2="244.243" y2="100.608" gradientUnits="userSpaceOnUse">
<stop stop-color="white"/>
<stop offset="0.02" stop-color="#FBEBE7"/>
<stop offset="0.09" stop-color="#F1BDAD"/>
<stop offset="0.14" stop-color="#EA9980"/>
<stop offset="0.2" stop-color="#E47F5F"/>
<stop offset="0.24" stop-color="#E16F4B"/>
<stop offset="0.27" stop-color="#E06944"/>
<stop offset="0.33" stop-color="#D76541" stop-opacity="0.96"/>
<stop offset="0.43" stop-color="#C05A3A" stop-opacity="0.86"/>
<stop offset="0.56" stop-color="#9A482F" stop-opacity="0.69"/>
<stop offset="0.71" stop-color="#652F1F" stop-opacity="0.45"/>
<stop offset="0.87" stop-color="#22100A" stop-opacity="0.15"/>
<stop offset="0.95" stop-opacity="0"/>
</linearGradient>
<linearGradient id="paint9_linear_1156_3897" x1="264.437" y1="96.7689" x2="274.552" y2="87.7481" gradientUnits="userSpaceOnUse">
<stop offset="0.07" stop-color="white"/>
<stop offset="0.33" stop-color="#EA685E"/>
<stop offset="0.4" stop-color="#7D3832" stop-opacity="0.53"/>
<stop offset="0.47" stop-opacity="0"/>
</linearGradient>
<linearGradient id="paint10_linear_1156_3897" x1="268.406" y1="96.2348" x2="263.281" y2="94.5702" gradientUnits="userSpaceOnUse">
<stop stop-color="#FFAE59"/>
<stop offset="0.21" stop-color="#FEA65A"/>
<stop offset="0.54" stop-color="#FA905C"/>
<stop offset="0.94" stop-color="#F56D5F"/>
<stop offset="1" stop-color="#F46760"/>
</linearGradient>
<radialGradient id="paint11_radial_1156_3897" cx="0" cy="0" r="1" gradientUnits="userSpaceOnUse" gradientTransform="translate(159.172 81.3079) rotate(-90) scale(3.01209 3.01207)">
<stop offset="0.15" stop-color="#FF8E2C" stop-opacity="0.8"/>
<stop offset="0.22" stop-color="#D27526" stop-opacity="0.84"/>
<stop offset="0.31" stop-color="#9C5820" stop-opacity="0.88"/>
<stop offset="0.4" stop-color="#6E3F1A" stop-opacity="0.92"/>
<stop offset="0.5" stop-color="#492A15" stop-opacity="0.95"/>
<stop offset="0.6" stop-color="#2C1A12" stop-opacity="0.97"/>
<stop offset="0.71" stop-color="#170F0F" stop-opacity="0.99"/>
<stop offset="0.84" stop-color="#0B080D"/>
<stop offset="1" stop-color="#07060D"/>
</radialGradient>
<radialGradient id="paint12_radial_1156_3897" cx="0" cy="0" r="1" gradientUnits="userSpaceOnUse" gradientTransform="translate(220.218 107.505) rotate(-90) scale(2.66936)">
<stop offset="0.05" stop-color="#FF6E00" stop-opacity="0.8"/>
<stop offset="0.08" stop-color="#EF6701" stop-opacity="0.81"/>
<stop offset="0.22" stop-color="#A94A05" stop-opacity="0.87"/>
<stop offset="0.36" stop-color="#6F3208" stop-opacity="0.92"/>
<stop offset="0.5" stop-color="#421F0A" stop-opacity="0.95"/>
<stop offset="0.62" stop-color="#21110C" stop-opacity="0.98"/>
<stop offset="0.73" stop-color="#0E090D" stop-opacity="0.99"/>
<stop offset="0.82" stop-color="#07060D"/>
</radialGradient>
<radialGradient id="paint13_radial_1156_3897" cx="0" cy="0" r="1" gradientUnits="userSpaceOnUse" gradientTransform="translate(233.743 121.191) rotate(-90) scale(2.11655 2.11653)">
<stop offset="0.15" stop-color="#FF6100" stop-opacity="0.8"/>
<stop offset="0.22" stop-color="#D25002" stop-opacity="0.84"/>
<stop offset="0.31" stop-color="#9C3D05" stop-opacity="0.88"/>
<stop offset="0.4" stop-color="#6E2C08" stop-opacity="0.92"/>
<stop offset="0.5" stop-color="#491E0A" stop-opacity="0.95"/>
<stop offset="0.6" stop-color="#2C130B" stop-opacity="0.97"/>
<stop offset="0.71" stop-color="#170C0C" stop-opacity="0.99"/>
<stop offset="0.84" stop-color="#0B070D"/>
<stop offset="1" stop-color="#07060D"/>
</radialGradient>
<radialGradient id="paint14_radial_1156_3897" cx="0" cy="0" r="1" gradientUnits="userSpaceOnUse" gradientTransform="translate(176.647 87.4129) rotate(-90) scale(1.05741)">
<stop offset="0.15" stop-color="#FF6100" stop-opacity="0.8"/>
<stop offset="0.22" stop-color="#D25002" stop-opacity="0.84"/>
<stop offset="0.31" stop-color="#9C3D05" stop-opacity="0.88"/>
<stop offset="0.4" stop-color="#6E2C08" stop-opacity="0.92"/>
<stop offset="0.5" stop-color="#491E0A" stop-opacity="0.95"/>
<stop offset="0.6" stop-color="#2C130B" stop-opacity="0.97"/>
<stop offset="0.71" stop-color="#170C0C" stop-opacity="0.99"/>
<stop offset="0.84" stop-color="#0B070D"/>
<stop offset="1" stop-color="#07060D"/>
</radialGradient>
<radialGradient id="paint15_radial_1156_3897" cx="0" cy="0" r="1" gradientUnits="userSpaceOnUse" gradientTransform="translate(209.19 124.166) rotate(-90) scale(1.30197 1.30195)">
<stop offset="0.15" stop-color="#FF6100" stop-opacity="0.8"/>
<stop offset="0.22" stop-color="#D25002" stop-opacity="0.84"/>
<stop offset="0.31" stop-color="#9C3D05" stop-opacity="0.88"/>
<stop offset="0.4" stop-color="#6E2C08" stop-opacity="0.92"/>
<stop offset="0.5" stop-color="#491E0A" stop-opacity="0.95"/>
<stop offset="0.6" stop-color="#2C130B" stop-opacity="0.97"/>
<stop offset="0.71" stop-color="#170C0C" stop-opacity="0.99"/>
<stop offset="0.84" stop-color="#0B070D"/>
<stop offset="1" stop-color="#07060D"/>
</radialGradient>
<radialGradient id="paint16_radial_1156_3897" cx="0" cy="0" r="1" gradientUnits="userSpaceOnUse" gradientTransform="translate(183.068 100.987) rotate(-90) scale(1.18658)">
<stop offset="0.15" stop-color="#EF6F14" stop-opacity="0.8"/>
<stop offset="0.2" stop-color="#D26213" stop-opacity="0.83"/>
<stop offset="0.29" stop-color="#9C4A12" stop-opacity="0.87"/>
<stop offset="0.39" stop-color="#6E3510" stop-opacity="0.91"/>
<stop offset="0.49" stop-color="#49240F" stop-opacity="0.94"/>
<stop offset="0.59" stop-color="#2C170E" stop-opacity="0.97"/>
<stop offset="0.71" stop-color="#170D0D" stop-opacity="0.99"/>
<stop offset="0.83" stop-color="#0B080D"/>
<stop offset="1" stop-color="#07060D"/>
</radialGradient>
<radialGradient id="paint17_radial_1156_3897" cx="0" cy="0" r="1" gradientUnits="userSpaceOnUse" gradientTransform="translate(162.86 88.627) rotate(-90) scale(0.675097)">
<stop offset="0.15" stop-color="#D38A7A" stop-opacity="0.8"/>
<stop offset="0.16" stop-color="#D18979" stop-opacity="0.8"/>
<stop offset="0.25" stop-color="#9C665C" stop-opacity="0.85"/>
<stop offset="0.35" stop-color="#6E4944" stop-opacity="0.9"/>
<stop offset="0.46" stop-color="#493130" stop-opacity="0.94"/>
<stop offset="0.57" stop-color="#2C1E21" stop-opacity="0.96"/>
<stop offset="0.69" stop-color="#171016" stop-opacity="0.98"/>
<stop offset="0.83" stop-color="#0B080F"/>
<stop offset="1" stop-color="#07060D"/>
</radialGradient>
<radialGradient id="paint18_radial_1156_3897" cx="0" cy="0" r="1" gradientUnits="userSpaceOnUse" gradientTransform="translate(189.337 82.8353) rotate(-90) scale(0.96443 0.964409)">
<stop offset="0.15" stop-color="#F46311" stop-opacity="0.8"/>
<stop offset="0.2" stop-color="#D25610" stop-opacity="0.83"/>
<stop offset="0.3" stop-color="#9C4110" stop-opacity="0.87"/>
<stop offset="0.39" stop-color="#6E2E0F" stop-opacity="0.91"/>
<stop offset="0.49" stop-color="#49200E" stop-opacity="0.94"/>
<stop offset="0.6" stop-color="#2C140E" stop-opacity="0.97"/>
<stop offset="0.71" stop-color="#170C0D" stop-opacity="0.99"/>
<stop offset="0.84" stop-color="#0B080D"/>
<stop offset="1" stop-color="#07060D"/>
</radialGradient>
<radialGradient id="paint19_radial_1156_3897" cx="0" cy="0" r="1" gradientUnits="userSpaceOnUse" gradientTransform="translate(220.56 82.6133) rotate(-90) scale(1.48623)">
<stop offset="0.15" stop-color="#D3807A" stop-opacity="0.8"/>
<stop offset="0.16" stop-color="#D17F79" stop-opacity="0.8"/>
<stop offset="0.25" stop-color="#9C5F5C" stop-opacity="0.85"/>
<stop offset="0.35" stop-color="#6E4444" stop-opacity="0.9"/>
<stop offset="0.46" stop-color="#492D30" stop-opacity="0.94"/>
<stop offset="0.57" stop-color="#2C1C21" stop-opacity="0.96"/>
<stop offset="0.69" stop-color="#171016" stop-opacity="0.98"/>
<stop offset="0.83" stop-color="#0B080F"/>
<stop offset="1" stop-color="#07060D"/>
</radialGradient>
<radialGradient id="paint20_radial_1156_3897" cx="0" cy="0" r="1" gradientUnits="userSpaceOnUse" gradientTransform="translate(498.106 194.965) rotate(-96.54) scale(58.2303)">
<stop offset="0.27" stop-color="#FFDE91"/>
<stop offset="0.28" stop-color="#F7CB88"/>
<stop offset="0.29" stop-color="#DD946D"/>
<stop offset="0.3" stop-color="#C35951"/>
<stop offset="0.31" stop-color="#C25851"/>
<stop offset="0.38" stop-color="#B3474B"/>
<stop offset="0.46" stop-color="#AB3C47"/>
<stop offset="0.56" stop-color="#A83946"/>
<stop offset="0.61" stop-color="#AB3D48"/>
<stop offset="0.67" stop-color="#B2494D"/>
<stop offset="0.73" stop-color="#BF5D55"/>
<stop offset="0.78" stop-color="#D17A61"/>
<stop offset="0.84" stop-color="#E89E71"/>
<stop offset="0.87" stop-color="#F7B67B"/>
<stop offset="0.92" stop-color="#FBD08B"/>
<stop offset="0.97" stop-color="#FEE497"/>
<stop offset="1" stop-color="#FFEC9C"/>
</radialGradient>
<linearGradient id="paint21_linear_1156_3897" x1="154.48" y1="149.003" x2="147.884" y2="138.262" gradientUnits="userSpaceOnUse">
<stop offset="0.23" stop-color="#442810"/>
<stop offset="0.27" stop-color="#4B2E14"/>
<stop offset="0.33" stop-color="#5F4020"/>
<stop offset="0.41" stop-color="#7F5E34"/>
<stop offset="0.49" stop-color="#AC874F"/>
<stop offset="0.59" stop-color="#E6BA71"/>
<stop offset="0.6" stop-color="#EFC377"/>
<stop offset="0.66" stop-color="#F1A56F"/>
<stop offset="0.74" stop-color="#F38867"/>
<stop offset="0.81" stop-color="#F47662"/>
<stop offset="0.86" stop-color="#F47060"/>
</linearGradient>
<radialGradient id="paint22_radial_1156_3897" cx="0" cy="0" r="1" gradientUnits="userSpaceOnUse" gradientTransform="translate(144.976 150.652) rotate(-90) scale(10.2921 8.78915)">
<stop stop-color="#A36A62"/>
<stop offset="0.59" stop-color="#472A11"/>
</radialGradient>
<radialGradient id="paint23_radial_1156_3897" cx="0" cy="0" r="1" gradientUnits="userSpaceOnUse" gradientTransform="translate(155.793 146.948) rotate(-90) scale(6.54153 6.73075)">
<stop offset="0.16" stop-color="#A36A62"/>
<stop offset="0.23" stop-color="#805143"/>
<stop offset="0.31" stop-color="#613C28"/>
<stop offset="0.37" stop-color="#4E2F17"/>
<stop offset="0.41" stop-color="#472A11"/>
<stop offset="0.46" stop-color="#412710"/>
<stop offset="0.52" stop-color="#2F1D0D"/>
<stop offset="0.57" stop-color="#1B120A"/>
<stop offset="0.61" stop-color="#24160D"/>
<stop offset="0.68" stop-color="#3B2017"/>
<stop offset="0.77" stop-color="#613226"/>
<stop offset="0.86" stop-color="#964A3C"/>
<stop offset="0.97" stop-color="#DA6857"/>
<stop offset="1" stop-color="#EE715F"/>
</radialGradient>
<linearGradient id="paint24_linear_1156_3897" x1="415.352" y1="15.2463" x2="402.482" y2="36.5657" gradientUnits="userSpaceOnUse">
<stop offset="0.23" stop-color="#442810"/>
<stop offset="0.27" stop-color="#4B2E14"/>
<stop offset="0.33" stop-color="#5F4020"/>
<stop offset="0.41" stop-color="#7F5E34"/>
<stop offset="0.49" stop-color="#AC874F"/>
<stop offset="0.59" stop-color="#E6BA71"/>
<stop offset="0.6" stop-color="#EFC377"/>
<stop offset="0.66" stop-color="#F1A56F"/>
<stop offset="0.74" stop-color="#F38867"/>
<stop offset="0.81" stop-color="#F47662"/>
<stop offset="0.86" stop-color="#F47060"/>
</linearGradient>
<radialGradient id="paint25_radial_1156_3897" cx="0" cy="0" r="1" gradientUnits="userSpaceOnUse" gradientTransform="translate(397.094 11.5939) rotate(90) scale(20.9793 17.7798)">
<stop stop-color="#A36A62"/>
<stop offset="0.59" stop-color="#472A11"/>
</radialGradient>
<radialGradient id="paint26_radial_1156_3897" cx="0" cy="0" r="1" gradientUnits="userSpaceOnUse" gradientTransform="translate(418.097 19.1381) rotate(90) scale(13.3233 13.2686)">
<stop offset="0.16" stop-color="#A36A62"/>
<stop offset="0.23" stop-color="#805143"/>
<stop offset="0.31" stop-color="#613C28"/>
<stop offset="0.37" stop-color="#4E2F17"/>
<stop offset="0.41" stop-color="#472A11"/>
<stop offset="0.46" stop-color="#412710"/>
<stop offset="0.52" stop-color="#2F1D0D"/>
<stop offset="0.57" stop-color="#1B120A"/>
<stop offset="0.61" stop-color="#24160D"/>
<stop offset="0.68" stop-color="#3B2017"/>
<stop offset="0.77" stop-color="#613226"/>
<stop offset="0.86" stop-color="#964A3C"/>
<stop offset="0.97" stop-color="#DA6857"/>
<stop offset="1" stop-color="#EE715F"/>
</radialGradient>
<radialGradient id="paint27_radial_1156_3897" cx="0" cy="0" r="1" gradientUnits="userSpaceOnUse" gradientTransform="translate(197.133 61.2871) rotate(-139.035) scale(20.3789 15.6393)">
<stop stop-color="#22575B"/>
<stop offset="0.11" stop-color="#1D494E"/>
<stop offset="0.39" stop-color="#132A32"/>
<stop offset="0.63" stop-color="#0C1721"/>
<stop offset="0.8" stop-color="#0A101B"/>
<stop offset="0.82" stop-color="#0E141C"/>
<stop offset="0.85" stop-color="#1C1E21"/>
<stop offset="0.87" stop-color="#322F28"/>
<stop offset="0.9" stop-color="#504732"/>
<stop offset="0.93" stop-color="#78673F"/>
<stop offset="0.96" stop-color="#A88D4F"/>
<stop offset="0.99" stop-color="#E1B962"/>
<stop offset="1" stop-color="#FFD16C"/>
</radialGradient>
<radialGradient id="paint28_radial_1156_3897" cx="0" cy="0" r="1" gradientUnits="userSpaceOnUse" gradientTransform="translate(89.214 80.802) rotate(-139.035) scale(20.3789 15.6393)">
<stop stop-color="#22575B"/>
<stop offset="0.11" stop-color="#1D494E"/>
<stop offset="0.39" stop-color="#132A32"/>
<stop offset="0.63" stop-color="#0C1721"/>
<stop offset="0.8" stop-color="#0A101B"/>
<stop offset="0.82" stop-color="#0E141C"/>
<stop offset="0.85" stop-color="#1C1E21"/>
<stop offset="0.87" stop-color="#322F28"/>
<stop offset="0.9" stop-color="#504732"/>
<stop offset="0.93" stop-color="#78673F"/>
<stop offset="0.96" stop-color="#A88D4F"/>
<stop offset="0.99" stop-color="#E1B962"/>
<stop offset="1" stop-color="#FFD16C"/>
</radialGradient>
<radialGradient id="paint29_radial_1156_3897" cx="0" cy="0" r="1" gradientUnits="userSpaceOnUse" gradientTransform="translate(41.9578 124.937) rotate(-139.035) scale(8.79805 6.75186)">
<stop stop-color="#22575B"/>
<stop offset="0.11" stop-color="#1D494E"/>
<stop offset="0.39" stop-color="#132A32"/>
<stop offset="0.63" stop-color="#0C1721"/>
<stop offset="0.8" stop-color="#0A101B"/>
<stop offset="0.82" stop-color="#0E141C"/>
<stop offset="0.85" stop-color="#1C1E21"/>
<stop offset="0.87" stop-color="#322F28"/>
<stop offset="0.9" stop-color="#504732"/>
<stop offset="0.93" stop-color="#78673F"/>
<stop offset="0.96" stop-color="#A88D4F"/>
<stop offset="0.99" stop-color="#E1B962"/>
<stop offset="1" stop-color="#FFD16C"/>
</radialGradient>
<radialGradient id="paint30_radial_1156_3897" cx="0" cy="0" r="1" gradientUnits="userSpaceOnUse" gradientTransform="translate(494.671 17.4562) rotate(-74.2229) scale(51.8523 52.0551)">
<stop offset="0.34" stop-color="#0C0A09"/>
<stop offset="0.4" stop-color="#120D0B"/>
<stop offset="0.47" stop-color="#221612"/>
<stop offset="0.56" stop-color="#3D241E"/>
<stop offset="0.65" stop-color="#63372D"/>
<stop offset="0.7" stop-color="#7F4639"/>
<stop offset="0.72" stop-color="#854A3A"/>
<stop offset="0.75" stop-color="#97543E"/>
<stop offset="0.79" stop-color="#B46544"/>
<stop offset="0.82" stop-color="#DB7C4C"/>
<stop offset="0.85" stop-color="#FE9053"/>
</radialGradient>
<radialGradient id="paint31_radial_1156_3897" cx="0" cy="0" r="1" gradientUnits="userSpaceOnUse" gradientTransform="translate(335.901 36.3485) rotate(-80.1589) scale(14.6833)">
<stop stop-color="#0C0A09"/>
<stop offset="0.29" stop-color="#0E0B0A"/>
<stop offset="0.44" stop-color="#16100F"/>
<stop offset="0.56" stop-color="#231916"/>
<stop offset="0.66" stop-color="#362420"/>
<stop offset="0.75" stop-color="#4F342E"/>
<stop offset="0.76" stop-color="#51352F"/>
<stop offset="0.79" stop-color="#653D35"/>
<stop offset="0.87" stop-color="#985344"/>
<stop offset="0.97" stop-color="#E9755C"/>
<stop offset="1" stop-color="#FF7E63"/>
</radialGradient>
<linearGradient id="paint32_linear_1156_3897" x1="289.46" y1="79.4749" x2="355.432" y2="71.0607" gradientUnits="userSpaceOnUse">
<stop offset="0.06" stop-color="#FF6761"/>
<stop offset="0.08" stop-color="#F26855"/>
<stop offset="0.13" stop-color="#D8693D"/>
<stop offset="0.18" stop-color="#C6692C"/>
<stop offset="0.23" stop-color="#BB6A21"/>
<stop offset="0.29" stop-color="#B76A1E"/>
<stop offset="0.93" stop-color="#050505" stop-opacity="0"/>
</linearGradient>
<linearGradient id="paint33_linear_1156_3897" x1="268.535" y1="87.1155" x2="334.677" y2="80.1516" gradientUnits="userSpaceOnUse">
<stop offset="0.06" stop-color="#FF6761"/>
<stop offset="0.08" stop-color="#F26855"/>
<stop offset="0.13" stop-color="#D8693D"/>
<stop offset="0.18" stop-color="#C6692C"/>
<stop offset="0.23" stop-color="#BB6A21"/>
<stop offset="0.29" stop-color="#B76A1E"/>
<stop offset="0.93" stop-color="#050505" stop-opacity="0"/>
</linearGradient>
<linearGradient id="paint34_linear_1156_3897" x1="280.24" y1="92.0691" x2="346.718" y2="93.973" gradientUnits="userSpaceOnUse">
<stop offset="0.06" stop-color="#FF6761"/>
<stop offset="0.08" stop-color="#F26855"/>
<stop offset="0.13" stop-color="#D8693D"/>
<stop offset="0.18" stop-color="#C6692C"/>
<stop offset="0.23" stop-color="#BB6A21"/>
<stop offset="0.29" stop-color="#B76A1E"/>
<stop offset="0.93" stop-color="#050505" stop-opacity="0"/>
</linearGradient>
<linearGradient id="paint35_linear_1156_3897" x1="326.842" y1="111.04" x2="389.174" y2="134.233" gradientUnits="userSpaceOnUse">
<stop offset="0.06" stop-color="#FF6761"/>
<stop offset="0.08" stop-color="#F26855"/>
<stop offset="0.13" stop-color="#D8693D"/>
<stop offset="0.18" stop-color="#C6692C"/>
<stop offset="0.23" stop-color="#BB6A21"/>
<stop offset="0.29" stop-color="#B76A1E"/>
<stop offset="0.93" stop-color="#050505" stop-opacity="0"/>
</linearGradient>
<linearGradient id="paint36_linear_1156_3897" x1="352.07" y1="115.606" x2="397.28" y2="129.748" gradientUnits="userSpaceOnUse">
<stop offset="0.06" stop-color="#FF6761"/>
<stop offset="0.08" stop-color="#F26855"/>
<stop offset="0.13" stop-color="#D8693D"/>
<stop offset="0.18" stop-color="#C6692C"/>
<stop offset="0.23" stop-color="#BB6A21"/>
<stop offset="0.29" stop-color="#B76A1E"/>
<stop offset="0.93" stop-color="#050505" stop-opacity="0"/>
</linearGradient>
<linearGradient id="paint37_linear_1156_3897" x1="340.706" y1="129.836" x2="375.741" y2="145.701" gradientUnits="userSpaceOnUse">
<stop offset="0.06" stop-color="#FF6761"/>
<stop offset="0.08" stop-color="#F26855"/>
<stop offset="0.13" stop-color="#D8693D"/>
<stop offset="0.18" stop-color="#C6692C"/>
<stop offset="0.23" stop-color="#BB6A21"/>
<stop offset="0.29" stop-color="#B76A1E"/>
<stop offset="0.93" stop-color="#050505" stop-opacity="0"/>
</linearGradient>
<linearGradient id="paint38_linear_1156_3897" x1="338.636" y1="61.7099" x2="395.666" y2="51.6651" gradientUnits="userSpaceOnUse">
<stop offset="0.06" stop-color="#FF6761"/>
<stop offset="0.08" stop-color="#F26855"/>
<stop offset="0.13" stop-color="#D8693D"/>
<stop offset="0.18" stop-color="#C6692C"/>
<stop offset="0.23" stop-color="#BB6A21"/>
<stop offset="0.29" stop-color="#B76A1E"/>
<stop offset="0.93" stop-color="#050505" stop-opacity="0"/>
</linearGradient>
<linearGradient id="paint39_linear_1156_3897" x1="271.137" y1="101.932" x2="306.927" y2="116.008" gradientUnits="userSpaceOnUse">
<stop offset="0.06" stop-color="#FF6761"/>
<stop offset="0.08" stop-color="#F26855"/>
<stop offset="0.13" stop-color="#D8693D"/>
<stop offset="0.18" stop-color="#C6692C"/>
<stop offset="0.23" stop-color="#BB6A21"/>
<stop offset="0.29" stop-color="#B76A1E"/>
<stop offset="0.93" stop-color="#050505" stop-opacity="0"/>
</linearGradient>
<linearGradient id="paint40_linear_1156_3897" x1="316.447" y1="99.2701" x2="354.162" y2="106.787" gradientUnits="userSpaceOnUse">
<stop offset="0.06" stop-color="#FF6761"/>
<stop offset="0.08" stop-color="#F26855"/>
<stop offset="0.13" stop-color="#D8693D"/>
<stop offset="0.18" stop-color="#C6692C"/>
<stop offset="0.23" stop-color="#BB6A21"/>
<stop offset="0.29" stop-color="#B76A1E"/>
<stop offset="0.93" stop-color="#050505" stop-opacity="0"/>
</linearGradient>
<linearGradient id="paint41_linear_1156_3897" x1="330.369" y1="96.453" x2="368.548" y2="101.068" gradientUnits="userSpaceOnUse">
<stop offset="0.06" stop-color="#FF6761"/>
<stop offset="0.08" stop-color="#F26855"/>
<stop offset="0.13" stop-color="#D8693D"/>
<stop offset="0.18" stop-color="#C6692C"/>
<stop offset="0.23" stop-color="#BB6A21"/>
<stop offset="0.29" stop-color="#B76A1E"/>
<stop offset="0.93" stop-color="#050505" stop-opacity="0"/>
</linearGradient>
<linearGradient id="paint42_linear_1156_3897" x1="351.652" y1="75.377" x2="389.822" y2="70.691" gradientUnits="userSpaceOnUse">
<stop offset="0.06" stop-color="#FF6761"/>
<stop offset="0.08" stop-color="#F26855"/>
<stop offset="0.13" stop-color="#D8693D"/>
<stop offset="0.18" stop-color="#C6692C"/>
<stop offset="0.23" stop-color="#BB6A21"/>
<stop offset="0.29" stop-color="#B76A1E"/>
<stop offset="0.93" stop-color="#050505" stop-opacity="0"/>
</linearGradient>
<linearGradient id="paint43_linear_1156_3897" x1="266.996" y1="86.9589" x2="317.727" y2="92.4139" gradientUnits="userSpaceOnUse">
<stop/>
<stop offset="0.07" stop-color="#060402"/>
<stop offset="0.15" stop-color="#181008"/>
<stop offset="0.26" stop-color="#342412"/>
<stop offset="0.37" stop-color="#5C3F20"/>
<stop offset="0.49" stop-color="#906232"/>
<stop offset="0.62" stop-color="#CD8C48"/>
<stop offset="0.71" stop-color="#FFAE59"/>
<stop offset="0.77" stop-color="#FEA65A"/>
<stop offset="0.87" stop-color="#FA905C"/>
<stop offset="0.98" stop-color="#F56D5F"/>
<stop offset="1" stop-color="#F46760"/>
</linearGradient>
<radialGradient id="paint44_radial_1156_3897" cx="0" cy="0" r="1" gradientUnits="userSpaceOnUse" gradientTransform="translate(310.606 86.8675) rotate(-30.904) scale(8.78218 16.2339)">
<stop stop-color="#D69C63"/>
<stop offset="0.06" stop-color="#C1835A"/>
<stop offset="0.16" stop-color="#A3604D"/>
<stop offset="0.27" stop-color="#8B4543"/>
<stop offset="0.37" stop-color="#7A323C"/>
<stop offset="0.47" stop-color="#702637"/>
<stop offset="0.58" stop-color="#6D2236"/>
<stop offset="0.68" stop-color="#641F31"/>
<stop offset="0.83" stop-color="#4C1723"/>
<stop offset="1" stop-color="#2B0B0F"/>
</radialGradient>
<linearGradient id="paint45_linear_1156_3897" x1="362.518" y1="138.309" x2="390.988" y2="135.922" gradientUnits="userSpaceOnUse">
<stop offset="0.23" stop-color="#EC737E"/>
<stop offset="0.31" stop-color="#EC7977"/>
<stop offset="0.43" stop-color="#ED8A65"/>
<stop offset="0.44" stop-color="#ED8C63"/>
<stop offset="0.75" stop-color="#FFDF8F"/>
</linearGradient>
<radialGradient id="paint46_radial_1156_3897" cx="0" cy="0" r="1" gradientUnits="userSpaceOnUse" gradientTransform="translate(380.168 138.344) rotate(-27.227) scale(14.8377 14.7989)">
<stop stop-color="#0A101B"/>
<stop offset="0.32" stop-color="#0C101B"/>
<stop offset="0.44" stop-color="#13101B"/>
<stop offset="0.52" stop-color="#1E101B"/>
<stop offset="0.59" stop-color="#2F111B"/>
<stop offset="0.64" stop-color="#44111B"/>
<stop offset="0.69" stop-color="#48171E"/>
<stop offset="0.76" stop-color="#552928"/>
<stop offset="0.84" stop-color="#6A4638"/>
<stop offset="0.93" stop-color="#866D4E"/>
<stop offset="1" stop-color="#A09162"/>
</radialGradient>
</defs>
</svg>
