<svg width="16" height="16" viewBox="0 0 16 16" fill="none" xmlns="http://www.w3.org/2000/svg">
<path fill-rule="evenodd" clip-rule="evenodd" d="M4 2.5C4 2.22386 4.22386 2 4.5 2H13.5C13.7761 2 14 2.22386 14 2.5V11.5C14 11.7761 13.7761 12 13.5 12C13.2239 12 13 11.7761 13 11.5V3H4.5C4.22386 3 4 2.77614 4 2.5Z" fill="#FD9552"/>
<path fill-rule="evenodd" clip-rule="evenodd" d="M2 4.5C2 4.22386 2.22386 4 2.5 4H11.5C11.7761 4 12 4.22386 12 4.5V13.5C12 13.7761 11.7761 14 11.5 14H2.5C2.22386 14 2 13.7761 2 13.5V4.5ZM3 5V13H11V5H3Z" fill="#FD9552"/>
<path fill-rule="evenodd" clip-rule="evenodd" d="M9.11757 7.66104C9.30477 7.86404 9.29197 8.18036 9.08897 8.36757L6.92022 10.3676C6.72853 10.5443 6.43319 10.5441 6.24176 10.3671L5.16051 9.36708C4.95778 9.17958 4.94543 8.86324 5.13293 8.66051C5.32042 8.45778 5.63676 8.44543 5.83949 8.63293L6.58174 9.3194L8.41104 7.63244C8.61404 7.44523 8.93036 7.45804 9.11757 7.66104Z" fill="#FD9552"/>
</svg>
