<svg width="227" height="176" viewBox="0 0 227 176" fill="none" xmlns="http://www.w3.org/2000/svg">
<g id="Group 427320524">
<path id="Vector" style="mix-blend-mode:lighten" d="M135.322 163.933C185.561 163.933 226.288 123.206 226.288 72.9666C226.288 22.7271 185.561 -18 135.322 -18C85.0823 -18 44.3552 22.7271 44.3552 72.9666C44.3552 123.206 85.0823 163.933 135.322 163.933Z" fill="url(#paint0_radial_540_6657)"/>
<g id="Group" opacity="0.97">
<path id="Vector_2" style="mix-blend-mode:lighten" d="M43.7998 37.8845C48.0378 37.8845 51.4735 34.4488 51.4735 30.2108C51.4735 25.9727 48.0378 22.5371 43.7998 22.5371C39.5617 22.5371 36.1261 25.9727 36.1261 30.2108C36.1261 34.4488 39.5617 37.8845 43.7998 37.8845Z" fill="url(#paint1_radial_540_6657)"/>
<path id="Vector_3" d="M43.7998 31.9821C44.7782 31.9821 45.5714 31.1889 45.5714 30.2105C45.5714 29.2321 44.7782 28.439 43.7998 28.439C42.8214 28.439 42.0283 29.2321 42.0283 30.2105C42.0283 31.1889 42.8214 31.9821 43.7998 31.9821Z" fill="#FFF2CC"/>
</g>
<g id="Group_2" opacity="0.97">
<path id="Vector_4" style="mix-blend-mode:lighten" d="M68.0945 42.9947C69.7421 42.9947 71.0777 41.6591 71.0777 40.0115C71.0777 38.3639 69.7421 37.0283 68.0945 37.0283C66.4469 37.0283 65.1113 38.3639 65.1113 40.0115C65.1113 41.6591 66.4469 42.9947 68.0945 42.9947Z" fill="url(#paint2_radial_540_6657)"/>
<path id="Vector_5" d="M68.0945 40.7001C68.4747 40.7001 68.7829 40.3919 68.7829 40.0117C68.7829 39.6315 68.4747 39.3232 68.0945 39.3232C67.7143 39.3232 67.406 39.6315 67.406 40.0117C67.406 40.3919 67.7143 40.7001 68.0945 40.7001Z" fill="#FFF2CC"/>
</g>
<g id="Group_3" opacity="0.97">
<path id="Vector_6" style="mix-blend-mode:lighten" d="M184.354 102.955C186.181 102.955 187.663 101.473 187.663 99.6455C187.663 97.8179 186.181 96.3364 184.354 96.3364C182.526 96.3364 181.045 97.8179 181.045 99.6455C181.045 101.473 182.526 102.955 184.354 102.955Z" fill="url(#paint3_radial_540_6657)"/>
<path id="Vector_7" d="M184.354 100.41C184.776 100.41 185.118 100.068 185.118 99.6455C185.118 99.2235 184.776 98.8813 184.354 98.8813C183.932 98.8813 183.59 99.2235 183.59 99.6455C183.59 100.068 183.932 100.41 184.354 100.41Z" fill="#FFF2CC"/>
</g>
<g id="Group_4" opacity="0.43">
<path id="Vector_8" style="mix-blend-mode:lighten" d="M154.042 176.006C155.987 176.006 157.563 174.43 157.563 172.486C157.563 170.541 155.987 168.965 154.042 168.965C152.098 168.965 150.522 170.541 150.522 172.486C150.522 174.43 152.098 176.006 154.042 176.006Z" fill="url(#paint4_radial_540_6657)"/>
<path id="Vector_9" d="M154.042 173.298C154.491 173.298 154.855 172.934 154.855 172.485C154.855 172.037 154.491 171.673 154.042 171.673C153.594 171.673 153.23 172.037 153.23 172.485C153.23 172.934 153.594 173.298 154.042 173.298Z" fill="#F99F78"/>
</g>
<g id="Group_5" opacity="0.65">
<path id="Vector_10" style="mix-blend-mode:lighten" d="M46.3608 146.929C48.5293 146.929 50.2871 145.171 50.2871 143.003C50.2871 140.834 48.5293 139.076 46.3608 139.076C44.1924 139.076 42.4345 140.834 42.4345 143.003C42.4345 145.171 44.1924 146.929 46.3608 146.929Z" fill="url(#paint5_radial_540_6657)"/>
<path id="Vector_11" d="M46.3608 143.909C46.8614 143.909 47.2672 143.503 47.2672 143.003C47.2672 142.502 46.8614 142.096 46.3608 142.096C45.8602 142.096 45.4543 142.502 45.4543 143.003C45.4543 143.503 45.8602 143.909 46.3608 143.909Z" fill="#FFE7DE"/>
</g>
<g id="Group_6" opacity="0.65">
<path id="Vector_12" style="mix-blend-mode:lighten" d="M195.527 92.1967C196.064 92.1967 196.5 91.7611 196.5 91.2237C196.5 90.6863 196.064 90.2507 195.527 90.2507C194.99 90.2507 194.554 90.6863 194.554 91.2237C194.554 91.7611 194.99 92.1967 195.527 92.1967Z" fill="url(#paint6_radial_540_6657)"/>
<path id="Vector_13" d="M195.527 91.4486C195.651 91.4486 195.752 91.3479 195.752 91.2237C195.752 91.0995 195.651 90.9988 195.527 90.9988C195.403 90.9988 195.302 91.0995 195.302 91.2237C195.302 91.3479 195.403 91.4486 195.527 91.4486Z" fill="#FFEBCB"/>
</g>
<g id="Group_7" opacity="0.65">
<path id="Vector_14" style="mix-blend-mode:lighten" d="M168.22 55.7101C168.757 55.7101 169.193 55.2745 169.193 54.7371C169.193 54.1998 168.757 53.7642 168.22 53.7642C167.682 53.7642 167.247 54.1998 167.247 54.7371C167.247 55.2745 167.682 55.7101 168.22 55.7101Z" fill="url(#paint7_radial_540_6657)"/>
<path id="Vector_15" d="M168.22 54.962C168.344 54.962 168.444 54.8613 168.444 54.7371C168.444 54.6129 168.344 54.5122 168.22 54.5122C168.095 54.5122 167.995 54.6129 167.995 54.7371C167.995 54.8613 168.095 54.962 168.22 54.962Z" fill="#FFD2A2"/>
</g>
<path id="Vector_16" d="M138.28 30.2817L153.198 21.6694L168.116 30.2817L153.198 38.8939L138.28 30.2817Z" fill="url(#paint8_linear_540_6657)"/>
<path id="Vector_17" d="M168.116 47.5085L153.198 56.1207V38.894L168.116 30.2817V47.5085Z" fill="url(#paint9_linear_540_6657)"/>
<path id="Vector_18" d="M138.28 30.2817V47.5085L153.198 56.1207V38.894L138.28 30.2817Z" fill="url(#paint10_radial_540_6657)"/>
<path id="Vector_19" d="M123.364 140.889L138.282 132.277L153.2 140.889L138.282 149.501L123.364 140.889Z" fill="url(#paint11_linear_540_6657)"/>
<path id="Vector_20" d="M153.2 158.116L138.282 166.728V149.501L153.2 140.889V158.116Z" fill="url(#paint12_linear_540_6657)"/>
<path id="Vector_21" d="M123.364 140.889V158.116L138.282 166.728V149.501L123.364 140.889Z" fill="url(#paint13_radial_540_6657)"/>
<path id="Vector_22" d="M43.7355 64.4163L92.3386 36.356L140.942 64.4163L92.3386 92.4766L43.7355 64.4163Z" fill="url(#paint14_linear_540_6657)"/>
<path id="Vector_23" d="M140.942 120.539L92.3386 148.6V92.4766L140.942 64.4163V120.539Z" fill="url(#paint15_linear_540_6657)"/>
<path id="Vector_24" d="M43.7355 64.4163V120.539L92.3386 148.6V92.4766L43.7355 64.4163Z" fill="url(#paint16_radial_540_6657)"/>
<path id="Vector_25" d="M107.305 101.206L92.3868 109.818L77.4685 101.206L92.3868 92.5913L107.305 101.206Z" fill="url(#paint17_linear_540_6657)"/>
<path id="Vector_26" d="M77.4685 83.9789L92.3868 75.3667V92.5912L77.4685 101.206V83.9789Z" fill="url(#paint18_linear_540_6657)"/>
<path id="Vector_27" d="M107.305 101.206V83.9789L92.3868 75.3667V92.5912L107.305 101.206Z" fill="url(#paint19_radial_540_6657)"/>
<path id="Vector_28" d="M101.793 97.977L116.711 89.3647L131.629 97.977L116.711 106.589L101.793 97.977Z" fill="url(#paint20_linear_540_6657)"/>
<path id="Vector_29" d="M131.629 115.204L116.711 123.816V106.59L131.629 97.9773V115.204Z" fill="url(#paint21_linear_540_6657)"/>
<path id="Vector_30" d="M101.793 97.9773V115.204L116.711 123.816V106.59L101.793 97.9773Z" fill="url(#paint22_radial_540_6657)"/>
<path id="Vector_31" opacity="0.42" d="M140.942 70.1444C168.912 67.5995 188.778 70.6355 190.903 79.2018C194.134 92.2315 155.077 113.13 103.668 125.877C52.2584 138.625 7.96031 138.391 4.72929 125.359C2.63188 116.898 18.367 105.119 43.7402 94.4069" stroke="#DBCDAB" stroke-width="2" stroke-miterlimit="10"/>
<path id="Vector_32" d="M166.631 97.6489L171.786 94.6726L176.94 97.6489L171.786 100.623L166.631 97.6489Z" fill="url(#paint23_linear_540_6657)"/>
<path id="Vector_33" d="M176.939 103.599L171.785 106.576V100.623L176.939 97.6489V103.599Z" fill="url(#paint24_linear_540_6657)"/>
<path id="Vector_34" d="M166.631 97.6489V103.599L171.786 106.576V100.623L166.631 97.6489Z" fill="url(#paint25_radial_540_6657)"/>
<path id="Vector_35" d="M18.8191 69.708C28.9364 69.708 37.1381 61.5062 37.1381 51.3889C37.1381 41.2716 28.9364 33.0698 18.8191 33.0698C8.70173 33.0698 0.5 41.2716 0.5 51.3889C0.5 61.5062 8.70173 69.708 18.8191 69.708Z" fill="url(#paint26_radial_540_6657)"/>
<path id="Vector_36" d="M19.2023 100.173L25.1504 96.738L31.0984 100.173L25.1504 103.606L19.2023 100.173Z" fill="url(#paint27_linear_540_6657)"/>
<path id="Vector_37" d="M31.0983 107.042L25.1503 110.477V103.606L31.0983 100.173V107.042Z" fill="url(#paint28_linear_540_6657)"/>
<path id="Vector_38" d="M19.2023 100.173V107.042L25.1503 110.477V103.606L19.2023 100.173Z" fill="url(#paint29_radial_540_6657)"/>
</g>
<defs>
<radialGradient id="paint0_radial_540_6657" cx="0" cy="0" r="1" gradientUnits="userSpaceOnUse" gradientTransform="translate(135.322 72.9666) scale(90.9666)">
<stop stop-color="#8E7F66"/>
<stop offset="0.33" stop-color="#554C3D" stop-opacity="0.6"/>
<stop offset="0.63" stop-color="#27231C" stop-opacity="0.28"/>
<stop offset="0.87" stop-color="#0B0908" stop-opacity="0.07"/>
<stop offset="1" stop-opacity="0"/>
</radialGradient>
<radialGradient id="paint1_radial_540_6657" cx="0" cy="0" r="1" gradientUnits="userSpaceOnUse" gradientTransform="translate(43.8066 30.232) rotate(100.32) scale(7.67368)">
<stop offset="0.15" stop-color="#ED915F"/>
<stop offset="0.18" stop-color="#DA8558"/>
<stop offset="0.26" stop-color="#A96847"/>
<stop offset="0.35" stop-color="#7E4E37"/>
<stop offset="0.44" stop-color="#59382A"/>
<stop offset="0.53" stop-color="#3B2520"/>
<stop offset="0.63" stop-color="#241817"/>
<stop offset="0.73" stop-color="#140E12"/>
<stop offset="0.85" stop-color="#0A080E"/>
<stop offset="1" stop-color="#07060D"/>
</radialGradient>
<radialGradient id="paint2_radial_540_6657" cx="0" cy="0" r="1" gradientUnits="userSpaceOnUse" gradientTransform="translate(68.1044 40.0303) rotate(100.32) scale(2.98319 2.98319)">
<stop offset="0.15" stop-color="#ED915F"/>
<stop offset="0.18" stop-color="#DA8558"/>
<stop offset="0.26" stop-color="#A96847"/>
<stop offset="0.35" stop-color="#7E4E37"/>
<stop offset="0.44" stop-color="#59382A"/>
<stop offset="0.53" stop-color="#3B2520"/>
<stop offset="0.63" stop-color="#241817"/>
<stop offset="0.73" stop-color="#140E12"/>
<stop offset="0.85" stop-color="#0A080E"/>
<stop offset="1" stop-color="#07060D"/>
</radialGradient>
<radialGradient id="paint3_radial_540_6657" cx="0" cy="0" r="1" gradientUnits="userSpaceOnUse" gradientTransform="translate(184.367 99.659) rotate(100.32) scale(3.30905 3.30904)">
<stop offset="0.15" stop-color="#ED915F"/>
<stop offset="0.18" stop-color="#DA8558"/>
<stop offset="0.26" stop-color="#A96847"/>
<stop offset="0.35" stop-color="#7E4E37"/>
<stop offset="0.44" stop-color="#59382A"/>
<stop offset="0.53" stop-color="#3B2520"/>
<stop offset="0.63" stop-color="#241817"/>
<stop offset="0.73" stop-color="#140E12"/>
<stop offset="0.85" stop-color="#0A080E"/>
<stop offset="1" stop-color="#07060D"/>
</radialGradient>
<radialGradient id="paint4_radial_540_6657" cx="0" cy="0" r="1" gradientUnits="userSpaceOnUse" gradientTransform="translate(154.058 172.5) rotate(100.32) scale(3.52016)">
<stop offset="0.15" stop-color="#FF946E"/>
<stop offset="0.2" stop-color="#DA7F60"/>
<stop offset="0.28" stop-color="#A9634C"/>
<stop offset="0.37" stop-color="#7E4A3B"/>
<stop offset="0.45" stop-color="#59352D"/>
<stop offset="0.54" stop-color="#3B2421"/>
<stop offset="0.64" stop-color="#241718"/>
<stop offset="0.74" stop-color="#140D12"/>
<stop offset="0.85" stop-color="#0A080E"/>
<stop offset="1" stop-color="#07060D"/>
</radialGradient>
<radialGradient id="paint5_radial_540_6657" cx="0" cy="0" r="1" gradientUnits="userSpaceOnUse" gradientTransform="translate(46.3763 143.023) rotate(100.32) scale(3.92633 3.92633)">
<stop offset="0.15" stop-color="#C16F7B"/>
<stop offset="0.2" stop-color="#A8616C"/>
<stop offset="0.29" stop-color="#7D4953"/>
<stop offset="0.39" stop-color="#59343D"/>
<stop offset="0.49" stop-color="#3B232C"/>
<stop offset="0.59" stop-color="#24161E"/>
<stop offset="0.71" stop-color="#140D15"/>
<stop offset="0.83" stop-color="#0A080F"/>
<stop offset="1" stop-color="#07060D"/>
</radialGradient>
<radialGradient id="paint6_radial_540_6657" cx="0" cy="0" r="1" gradientUnits="userSpaceOnUse" gradientTransform="translate(195.539 91.2344) rotate(100.32) scale(0.972976)">
<stop offset="0.15" stop-color="#D3A96C" stop-opacity="0.8"/>
<stop offset="0.16" stop-color="#D1A86B" stop-opacity="0.8"/>
<stop offset="0.25" stop-color="#9C7D52" stop-opacity="0.85"/>
<stop offset="0.35" stop-color="#6E593D" stop-opacity="0.9"/>
<stop offset="0.46" stop-color="#493A2C" stop-opacity="0.94"/>
<stop offset="0.57" stop-color="#2C231E" stop-opacity="0.96"/>
<stop offset="0.69" stop-color="#171314" stop-opacity="0.98"/>
<stop offset="0.83" stop-color="#0B090F"/>
<stop offset="1" stop-color="#07060D"/>
</radialGradient>
<radialGradient id="paint7_radial_540_6657" cx="0" cy="0" r="1" gradientUnits="userSpaceOnUse" gradientTransform="translate(168.229 54.7495) rotate(100.32) scale(0.972976)">
<stop offset="0.15" stop-color="#D38C4A" stop-opacity="0.8"/>
<stop offset="0.16" stop-color="#D18B49" stop-opacity="0.8"/>
<stop offset="0.25" stop-color="#9C6839" stop-opacity="0.85"/>
<stop offset="0.35" stop-color="#6E4A2C" stop-opacity="0.9"/>
<stop offset="0.46" stop-color="#493121" stop-opacity="0.94"/>
<stop offset="0.57" stop-color="#2C1E18" stop-opacity="0.96"/>
<stop offset="0.69" stop-color="#171112" stop-opacity="0.98"/>
<stop offset="0.83" stop-color="#0B090E"/>
<stop offset="1" stop-color="#07060D"/>
</radialGradient>
<linearGradient id="paint8_linear_540_6657" x1="136.331" y1="23.2804" x2="167.673" y2="36.2894" gradientUnits="userSpaceOnUse">
<stop offset="0.23" stop-color="#EC737E"/>
<stop offset="0.31" stop-color="#EC7977"/>
<stop offset="0.43" stop-color="#ED8A65"/>
<stop offset="0.44" stop-color="#ED8C63"/>
<stop offset="0.75" stop-color="#FFDF8F"/>
</linearGradient>
<linearGradient id="paint9_linear_540_6657" x1="171.806" y1="51.88" x2="150.807" y2="35.5321" gradientUnits="userSpaceOnUse">
<stop offset="0.38" stop-color="#ED8C63"/>
<stop offset="0.73" stop-color="#FFD67B"/>
</linearGradient>
<radialGradient id="paint10_radial_540_6657" cx="0" cy="0" r="1" gradientUnits="userSpaceOnUse" gradientTransform="translate(134.444 50.4087) rotate(-129.84) scale(33.951 22.0681)">
<stop stop-color="#EAD08F"/>
<stop offset="0.06" stop-color="#E0B17F"/>
<stop offset="0.15" stop-color="#D48E6C"/>
<stop offset="0.24" stop-color="#CB735E"/>
<stop offset="0.33" stop-color="#C46053"/>
<stop offset="0.41" stop-color="#C0544D"/>
<stop offset="0.51" stop-color="#BF504B"/>
<stop offset="0.72" stop-color="#AA4046"/>
<stop offset="0.94" stop-color="#993342"/>
</radialGradient>
<linearGradient id="paint11_linear_540_6657" x1="121.415" y1="133.888" x2="152.757" y2="146.897" gradientUnits="userSpaceOnUse">
<stop offset="0.23" stop-color="#EC737E"/>
<stop offset="0.31" stop-color="#EC7977"/>
<stop offset="0.43" stop-color="#ED8A65"/>
<stop offset="0.44" stop-color="#ED8C63"/>
<stop offset="0.75" stop-color="#FFDF8F"/>
</linearGradient>
<linearGradient id="paint12_linear_540_6657" x1="156.89" y1="162.487" x2="135.891" y2="146.14" gradientUnits="userSpaceOnUse">
<stop offset="0.39" stop-color="#ED8C63"/>
<stop offset="0.77" stop-color="#FFD67B"/>
</linearGradient>
<radialGradient id="paint13_radial_540_6657" cx="0" cy="0" r="1" gradientUnits="userSpaceOnUse" gradientTransform="translate(119.913 160.691) rotate(-129.84) scale(33.951 22.0681)">
<stop stop-color="#EAD08F"/>
<stop offset="0.06" stop-color="#E0B17F"/>
<stop offset="0.15" stop-color="#D48E6C"/>
<stop offset="0.24" stop-color="#CB735E"/>
<stop offset="0.33" stop-color="#C46053"/>
<stop offset="0.41" stop-color="#C0544D"/>
<stop offset="0.51" stop-color="#BF504B"/>
<stop offset="0.72" stop-color="#AA4046"/>
<stop offset="0.94" stop-color="#993342"/>
</radialGradient>
<linearGradient id="paint14_linear_540_6657" x1="37.3905" y1="41.6064" x2="139.496" y2="83.9906" gradientUnits="userSpaceOnUse">
<stop offset="0.23" stop-color="#EC737E"/>
<stop offset="0.31" stop-color="#EC7977"/>
<stop offset="0.43" stop-color="#ED8A65"/>
<stop offset="0.44" stop-color="#ED8C63"/>
<stop offset="0.75" stop-color="#FFDF8F"/>
</linearGradient>
<linearGradient id="paint15_linear_540_6657" x1="152.966" y1="134.785" x2="84.5456" y2="81.526" gradientUnits="userSpaceOnUse">
<stop offset="0.39" stop-color="#ED8C63"/>
<stop offset="0.77" stop-color="#FFD67B"/>
</linearGradient>
<radialGradient id="paint16_radial_540_6657" cx="0" cy="0" r="1" gradientUnits="userSpaceOnUse" gradientTransform="translate(29.9741 131.063) rotate(-129.84) scale(110.614 71.8993)">
<stop stop-color="#EAD08F"/>
<stop offset="0.06" stop-color="#E0B17F"/>
<stop offset="0.15" stop-color="#D48E6C"/>
<stop offset="0.24" stop-color="#CB735E"/>
<stop offset="0.33" stop-color="#C46053"/>
<stop offset="0.41" stop-color="#C0544D"/>
<stop offset="0.51" stop-color="#BF504B"/>
<stop offset="0.76" stop-color="#A23545"/>
<stop offset="0.94" stop-color="#912642"/>
</radialGradient>
<linearGradient id="paint17_linear_540_6657" x1="91.6203" y1="92.7749" x2="93.564" y2="114.157" gradientUnits="userSpaceOnUse">
<stop offset="0.13" stop-color="#EC737E"/>
<stop offset="0.29" stop-color="#ED826D"/>
<stop offset="0.44" stop-color="#ED8C63"/>
<stop offset="0.75" stop-color="#FFDF8F"/>
</linearGradient>
<linearGradient id="paint18_linear_540_6657" x1="95.3814" y1="92.6256" x2="75.9563" y2="84.5618" gradientUnits="userSpaceOnUse">
<stop offset="0.23" stop-color="#EC737E"/>
<stop offset="0.31" stop-color="#EC7977"/>
<stop offset="0.43" stop-color="#ED8A65"/>
<stop offset="0.44" stop-color="#ED8C63"/>
<stop offset="0.75" stop-color="#FFDF8F"/>
</linearGradient>
<radialGradient id="paint19_radial_540_6657" cx="0" cy="0" r="1" gradientUnits="userSpaceOnUse" gradientTransform="translate(111.83 80.4931) rotate(50.16) scale(33.951 22.0681)">
<stop stop-color="#EAD08F"/>
<stop offset="0.06" stop-color="#E0B17F"/>
<stop offset="0.15" stop-color="#D48E6C"/>
<stop offset="0.24" stop-color="#CB735E"/>
<stop offset="0.33" stop-color="#C46053"/>
<stop offset="0.41" stop-color="#C0544D"/>
<stop offset="0.51" stop-color="#BF504B"/>
<stop offset="0.72" stop-color="#AA4046"/>
<stop offset="0.94" stop-color="#993342"/>
</radialGradient>
<linearGradient id="paint20_linear_540_6657" x1="99.8447" y1="90.9757" x2="131.187" y2="103.985" gradientUnits="userSpaceOnUse">
<stop offset="0.23" stop-color="#EC737E"/>
<stop offset="0.31" stop-color="#EC7977"/>
<stop offset="0.43" stop-color="#ED8A65"/>
<stop offset="0.44" stop-color="#ED8C63"/>
<stop offset="0.75" stop-color="#FFDF8F"/>
</linearGradient>
<linearGradient id="paint21_linear_540_6657" x1="133.683" y1="119.895" x2="109.754" y2="97.2613" gradientUnits="userSpaceOnUse">
<stop offset="0.18" stop-color="#EC737E"/>
<stop offset="0.29" stop-color="#EC7977"/>
<stop offset="0.44" stop-color="#ED8A65"/>
<stop offset="0.45" stop-color="#ED8C63"/>
<stop offset="0.51" stop-color="#EE9366"/>
<stop offset="0.59" stop-color="#F2A570"/>
<stop offset="0.68" stop-color="#F9C380"/>
<stop offset="0.75" stop-color="#FFDF8F"/>
</linearGradient>
<radialGradient id="paint22_radial_540_6657" cx="0" cy="0" r="1" gradientUnits="userSpaceOnUse" gradientTransform="translate(98.1927 117.903) rotate(-129.84) scale(33.951 22.0681)">
<stop stop-color="#EAD08F"/>
<stop offset="0.06" stop-color="#E0B17F"/>
<stop offset="0.15" stop-color="#D48E6C"/>
<stop offset="0.24" stop-color="#CB735E"/>
<stop offset="0.33" stop-color="#C46053"/>
<stop offset="0.41" stop-color="#C0544D"/>
<stop offset="0.51" stop-color="#BF504B"/>
<stop offset="0.72" stop-color="#AA4046"/>
<stop offset="0.94" stop-color="#993342"/>
</radialGradient>
<linearGradient id="paint23_linear_540_6657" x1="165.959" y1="95.2302" x2="176.786" y2="99.7234" gradientUnits="userSpaceOnUse">
<stop offset="0.23" stop-color="#EC737E"/>
<stop offset="0.31" stop-color="#EC7977"/>
<stop offset="0.43" stop-color="#ED8A65"/>
<stop offset="0.44" stop-color="#ED8C63"/>
<stop offset="0.75" stop-color="#FFDF8F"/>
</linearGradient>
<linearGradient id="paint24_linear_540_6657" x1="178.215" y1="105.109" x2="170.959" y2="99.4618" gradientUnits="userSpaceOnUse">
<stop offset="0.39" stop-color="#ED8C63"/>
<stop offset="0.77" stop-color="#FFD67B"/>
</linearGradient>
<radialGradient id="paint25_radial_540_6657" cx="0" cy="0" r="1" gradientUnits="userSpaceOnUse" gradientTransform="translate(165.941 104.064) rotate(-129.84) scale(11.7285 7.62354)">
<stop stop-color="#EAD08F"/>
<stop offset="0.06" stop-color="#E0B17F"/>
<stop offset="0.15" stop-color="#D48E6C"/>
<stop offset="0.24" stop-color="#CB735E"/>
<stop offset="0.33" stop-color="#C46053"/>
<stop offset="0.41" stop-color="#C0544D"/>
<stop offset="0.51" stop-color="#BF504B"/>
<stop offset="0.72" stop-color="#AA4046"/>
<stop offset="0.94" stop-color="#993342"/>
</radialGradient>
<radialGradient id="paint26_radial_540_6657" cx="0" cy="0" r="1" gradientUnits="userSpaceOnUse" gradientTransform="translate(12.4122 42.9016) rotate(-173.09) scale(30.5639 30.5639)">
<stop offset="0.24" stop-color="#020202"/>
<stop offset="0.4" stop-color="#040405"/>
<stop offset="0.53" stop-color="#0B0C0E"/>
<stop offset="0.64" stop-color="#16191E"/>
<stop offset="0.72" stop-color="#232830"/>
<stop offset="0.75" stop-color="#292B32"/>
<stop offset="0.79" stop-color="#3B3436"/>
<stop offset="0.84" stop-color="#58433E"/>
<stop offset="0.89" stop-color="#805749"/>
<stop offset="0.94" stop-color="#B37157"/>
<stop offset="1" stop-color="#EF8F67"/>
</radialGradient>
<linearGradient id="paint27_linear_540_6657" x1="18.4244" y1="97.3806" x2="30.9217" y2="102.569" gradientUnits="userSpaceOnUse">
<stop offset="0.23" stop-color="#EC737E"/>
<stop offset="0.31" stop-color="#EC7977"/>
<stop offset="0.43" stop-color="#ED8A65"/>
<stop offset="0.44" stop-color="#ED8C63"/>
<stop offset="0.75" stop-color="#FFDF8F"/>
</linearGradient>
<linearGradient id="paint28_linear_540_6657" x1="32.5716" y1="108.786" x2="24.1957" y2="102.266" gradientUnits="userSpaceOnUse">
<stop offset="0.39" stop-color="#ED8C63"/>
<stop offset="0.77" stop-color="#FFD67B"/>
</linearGradient>
<radialGradient id="paint29_radial_540_6657" cx="0" cy="0" r="1" gradientUnits="userSpaceOnUse" gradientTransform="translate(18.2904 107.675) rotate(-129.84) scale(13.5391 8.80041)">
<stop stop-color="#EAD08F"/>
<stop offset="0.06" stop-color="#E0B17F"/>
<stop offset="0.15" stop-color="#D48E6C"/>
<stop offset="0.24" stop-color="#CB735E"/>
<stop offset="0.33" stop-color="#C46053"/>
<stop offset="0.41" stop-color="#C0544D"/>
<stop offset="0.51" stop-color="#BF504B"/>
<stop offset="0.72" stop-color="#AA4046"/>
<stop offset="0.94" stop-color="#993342"/>
</radialGradient>
</defs>
</svg>
