<svg width="16" height="16" viewBox="0 0 16 16" fill="none" xmlns="http://www.w3.org/2000/svg">
<path fill-rule="evenodd" clip-rule="evenodd" d="M4 2.5C4 2.22386 4.22386 2 4.5 2H13.5C13.7761 2 14 2.22386 14 2.5V11.5C14 11.7761 13.7761 12 13.5 12C13.2239 12 13 11.7761 13 11.5V3H4.5C4.22386 3 4 2.77614 4 2.5Z" fill="#FD9552"/>
<path fill-rule="evenodd" clip-rule="evenodd" d="M2 4.5C2 4.22386 2.22386 4 2.5 4H11.5C11.7761 4 12 4.22386 12 4.5V13.5C12 13.7761 11.7761 14 11.5 14H2.5C2.22386 14 2 13.7761 2 13.5V4.5ZM3 5V13H11V5H3Z" fill="#FD9552"/>
</svg>
