<svg width="48" height="48" viewBox="0 0 48 48" fill="none" xmlns="http://www.w3.org/2000/svg">
<circle cx="24" cy="24" r="24" fill="url(#paint0_linear_3_432)" fill-opacity="0.08"/>
<path d="M27.6609 18.259C26.1075 18.8804 24.4438 19.2848 22.707 19.4347C22.2064 19.4779 21.6996 19.4999 21.1875 19.4999H20.625C18.4504 19.4999 16.6875 21.2628 16.6875 23.4374C16.6875 25.3871 18.1046 27.0059 19.965 27.3198C20.2157 28.3466 20.5635 29.3352 20.9982 30.2755C21.3463 31.0283 22.2539 31.2655 22.9352 30.8721L23.4275 30.5879C24.0875 30.2068 24.3017 29.3934 24.0065 28.7368C23.8304 28.345 23.6732 27.9429 23.5361 27.5316C24.9741 27.7252 26.3564 28.094 27.6609 28.6158C28.2052 26.9888 28.5 25.2475 28.5 23.4374C28.5 21.6273 28.2052 19.886 27.6609 18.259Z" fill="url(#paint1_linear_3_432)"/>
<path d="M28.6955 17.8054C29.2981 19.5722 29.625 21.4666 29.625 23.4374C29.625 25.4082 29.2981 27.3026 28.6955 29.0694V29.0694C28.6541 29.1907 28.6115 29.3115 28.5676 29.4316C28.4608 29.7233 28.6107 30.0463 28.9025 30.1531C29.1942 30.2599 29.5173 30.11 29.624 29.8183C29.7291 29.5314 29.8272 29.2412 29.9182 28.9479C30.311 27.6828 30.572 26.36 30.6855 24.9957C31.0732 24.5919 31.3125 24.0424 31.3125 23.4374C31.3125 22.8324 31.0732 22.2829 30.6855 21.8791C30.572 20.5148 30.311 19.192 29.9182 17.9269C29.8272 17.6336 29.7291 17.3434 29.624 17.0566C29.5173 16.7648 29.1942 16.6149 28.9025 16.7217C28.6107 16.8285 28.4608 17.1515 28.5676 17.4433C28.6115 17.5634 28.6541 17.6841 28.6955 17.8054V17.8054Z" fill="url(#paint2_linear_3_432)"/>
<defs>
<linearGradient id="paint0_linear_3_432" x1="33.425" y1="37.9397" x2="21.6902" y2="7.37268" gradientUnits="userSpaceOnUse">
<stop stop-color="#FFD569"/>
<stop offset="0.515056" stop-color="#FC8E4F"/>
<stop offset="1" stop-color="#FF697B"/>
</linearGradient>
<linearGradient id="paint1_linear_3_432" x1="26.8717" y1="28.0475" x2="23.4033" y2="18.8544" gradientUnits="userSpaceOnUse">
<stop stop-color="#FFD569"/>
<stop offset="0.515056" stop-color="#FC8E4F"/>
<stop offset="1" stop-color="#FF697B"/>
</linearGradient>
<linearGradient id="paint2_linear_3_432" x1="26.8717" y1="28.0475" x2="23.4033" y2="18.8544" gradientUnits="userSpaceOnUse">
<stop stop-color="#FFD569"/>
<stop offset="0.515056" stop-color="#FC8E4F"/>
<stop offset="1" stop-color="#FF697B"/>
</linearGradient>
</defs>
</svg>
