<svg width="48" height="48" viewBox="0 0 48 48" fill="none" xmlns="http://www.w3.org/2000/svg">
<rect width="48" height="48" rx="8" fill="#0F274F"/>
<path fill-rule="evenodd" clip-rule="evenodd" d="M19.6857 20.3697H13.3237C13.1302 20.3697 12.9451 20.291 12.8109 20.1517C12.5848 19.9172 12.5467 19.5592 12.7182 19.2823L13.3075 18.3313C13.4292 18.1348 13.6189 17.99 13.8404 17.9243L14.1975 17.8185C14.2844 17.7927 14.3746 17.7796 14.4652 17.7796H21.1578C22.4708 15.5244 24.5801 12.5996 28.0845 12.6001C31.2882 12.6005 33.4216 15.1509 34.0887 16.3674L34.0781 16.3695C34.2233 16.6358 34.3498 16.9127 34.4562 17.1984L40.6816 33.9085L40.5639 34.8504L39.7397 35.3213H34.6774L33.7355 34.8504L33.1469 34.2617L31.7341 30.3767H28.1848H28.1148V30.3763L23.9056 30.3527C23.822 30.3523 23.7444 30.3962 23.7018 30.4681L21.8791 33.5408C21.6257 33.9679 21.284 34.336 20.877 34.6204C20.2913 35.0295 19.5942 35.2489 18.8798 35.2489H12.9859C12.8655 35.2489 12.7457 35.2317 12.6301 35.198L12.4343 35.1407C12.1522 35.0583 11.9295 34.8411 11.84 34.5612C11.7641 34.324 11.7917 34.0659 11.9161 33.8501L13.918 30.3767H10.0014C9.82046 30.3767 9.64693 30.3048 9.51898 30.1768C9.29204 29.9499 9.25395 29.5954 9.42751 29.3255L9.99769 28.4385C10.1215 28.246 10.3111 28.1051 10.5312 28.0422L10.887 27.9406C10.9711 27.9165 11.0582 27.9043 11.1457 27.9043H15.343L16.9037 25.1966H7.88228C7.70133 25.1966 7.5278 25.1247 7.39985 24.9967C7.17291 24.7698 7.13483 24.4154 7.30838 24.1454L7.87856 23.2584C8.00233 23.0659 8.19198 22.925 8.41207 22.8621L8.76787 22.7605C8.85201 22.7364 8.9391 22.7242 9.02661 22.7242H18.3286H20.0847C20.1689 22.7242 20.2527 22.713 20.3338 22.6907L20.6909 22.5928C20.9091 22.5329 21.0984 22.3965 21.2243 22.2086L21.7759 21.3849C21.952 21.1219 21.914 20.7705 21.6857 20.5514C21.5642 20.4348 21.4023 20.3697 21.2339 20.3697H19.6857ZM27.496 24.1369C27.496 24.9171 26.8635 25.5496 26.0832 25.5496C25.303 25.5496 24.6705 24.9171 24.6705 24.1369C24.6705 23.3566 25.303 22.7241 26.0832 22.7241C26.8635 22.7241 27.496 23.3566 27.496 24.1369ZM32.4406 24.1369C32.4406 24.9171 31.8081 25.5496 31.0278 25.5496C30.2476 25.5496 29.6151 24.9171 29.6151 24.1369C29.6151 23.3566 30.2476 22.7241 31.0278 22.7241C31.8081 22.7241 32.4406 23.3566 32.4406 24.1369Z" fill="#FF5712"/>
</svg>
