<svg width="48" height="48" viewBox="0 0 48 48" fill="none" xmlns="http://www.w3.org/2000/svg">
<rect width="48" height="48" rx="8" fill="#A4EC48"/>
<path fill-rule="evenodd" clip-rule="evenodd" d="M8.27951 13.0261C7.70463 12.8835 7.02857 13.1217 6.73512 13.7446C6.32176 14.6221 6.37648 15.4905 6.56244 16.1755C6.74653 16.8537 7.07061 17.4003 7.27243 17.703C7.53628 18.0988 8.07101 18.2057 8.46678 17.9419C8.86256 17.678 8.9695 17.1433 8.70565 16.7475C8.55522 16.5219 8.34067 16.1511 8.2248 15.7243C8.13941 15.4097 8.11431 15.0928 8.18659 14.7848C10.203 15.3691 14.1078 17.2122 17.3454 21.1965C17.8024 21.7589 18.0371 22.4968 18.0371 23.2807V24.4525L19.7596 25.7575V23.2807C19.7596 22.1623 19.4248 21.0241 18.6822 20.1102C14.9996 15.5782 10.4949 13.5757 8.27951 13.0261ZM20.1394 26.7999L16.8868 24.3356L16.8978 24.321L11.3136 20.0508C10.2617 19.2464 8.77441 20.174 9.03411 21.4725L9.80709 25.3374C9.89386 25.7713 10.1214 26.1644 10.4543 26.4557L14.7543 30.2182C15.1123 30.5314 15.6564 30.4951 15.9696 30.1372C16.2829 29.7792 16.2466 29.2351 15.8886 28.9219L11.5886 25.1594C11.5411 25.1177 11.5086 25.0616 11.4962 24.9996L10.8726 21.882L17.3927 26.8679L17.3994 26.8591L21.0608 29.633L21.0416 29.6583L22.0178 30.4048L23.4311 29.317L20.1394 26.7999ZM23.9946 29.748L22.5814 30.8357L22.5822 30.8363L22.3412 31.0206L21.8445 31.4029L21.8433 31.4013L19.7596 32.9948V29.4891L18.0371 28.1841V33.5757C18.0371 34.7648 19.3999 35.4382 20.3445 34.716L22.9849 32.6968L22.9762 32.6855L26.6163 29.8839L26.6337 29.9065L27.5359 29.2166V27.0482L24 29.7521L23.9946 29.748ZM28.2211 26.5242V28.6926L28.2404 28.6779V32.9948L25.9619 31.2524L24.5486 32.3401L27.6555 34.716C28.6001 35.4382 29.9629 34.7648 29.9629 33.5757V27.3607L29.9698 27.3554V25.187L29.9629 25.1922V23.2807C29.9629 22.4968 30.1976 21.7589 30.6546 21.1965C33.8922 17.2122 37.797 15.3691 39.8134 14.7848C39.8857 15.0928 39.8606 15.4097 39.7752 15.7243C39.6593 16.1511 39.4448 16.5219 39.2943 16.7475C39.0305 17.1433 39.1374 17.678 39.5332 17.9419C39.929 18.2057 40.4637 18.0988 40.7276 17.703C40.9294 17.4003 41.2535 16.8537 41.4376 16.1755C41.6235 15.4905 41.6782 14.6221 41.2649 13.7446C40.9714 13.1217 40.2954 12.8835 39.7205 13.0261C37.5051 13.5757 33.0004 15.5782 29.3178 20.1102C28.5752 21.0241 28.2404 22.1623 28.2404 23.2807V26.5095L28.2211 26.5242ZM30.6413 24.6735V26.8419L37.1274 21.882L36.5038 24.9996C36.4914 25.0616 36.4589 25.1177 36.4114 25.1594L32.1114 28.9219C31.7534 29.2351 31.7171 29.7792 32.0304 30.1372C32.3436 30.4951 32.8877 30.5314 33.2457 30.2182L37.5457 26.4557C37.8786 26.1644 38.1061 25.7713 38.1929 25.3374L38.9659 21.4725C39.2256 20.174 37.7383 19.2464 36.6864 20.0508L30.6413 24.6735Z" fill="black"/>
</svg>
