<svg width="95" height="41" viewBox="0 0 95 41" fill="none" xmlns="http://www.w3.org/2000/svg">
<g id="logo">
<path id="Vector" d="M7.02196 12.5293C7.02196 13.4487 7.88713 14.0716 12.3436 14.0716C16.5042 14.0716 17.1246 13.8008 17.1246 13.0966C17.1246 12.2856 16.5042 12.1773 12.0733 12.0433C3.53877 11.777 0.273369 10.3641 0.273369 5.95397C0.273369 1.78605 4.35137 0 11.8074 0C19.1808 0 23.34 1.78605 23.34 6.62956H16.315C16.315 5.62896 14.6943 5.41227 11.2637 5.41227C7.96824 5.41227 7.29233 5.57479 7.29233 6.30605C7.29233 7.03732 7.96824 7.00873 12.0733 7.17124C19.5293 7.47217 24.148 7.98224 24.148 12.9356C24.148 18.1568 19.8267 19.4839 12.0733 19.4839C4.31982 19.4839 0 18.1568 0 12.5293H7.02196Z" fill="black"/>
<path id="Vector_2" d="M84.1127 9.20122L94.9979 19.2133H85.2737L79.2236 13.2051L76.3067 15.6126V19.2118H69.2832V0.269531H76.3067V7.68452L85.0034 0.269531H94.9979L84.1127 9.20122Z" fill="black"/>
<path id="Vector_3" d="M23.5803 21.0586V39.9993H16.5568V33.5052H7.02196V39.9993H0V21.0586H7.02196V27.5527H16.5568V21.0586H23.5803Z" fill="black"/>
<path id="Vector_4" d="M24.3359 21.0586H32.4394L37.4651 28.0944L42.4879 21.0586H50.5913L40.9784 33.776V39.9993H33.9534V33.776L24.3359 21.0586Z" fill="black"/>
<path id="Vector_5" d="M73.4451 28.3096C73.4451 32.5317 70.4996 35.5621 66.2053 35.5621H58.3722V39.9993H51.3428V21.0586H66.2128C70.4996 21.0586 73.4451 24.089 73.4451 28.3096ZM66.4216 28.3096C66.4216 27.0111 65.5564 27.0111 64.855 27.0111H58.3722V29.6096H64.861C65.5564 29.6096 66.4216 29.6096 66.4216 28.3096Z" fill="black"/>
<path id="Vector_6" d="M82.0332 26.4688V28.2277H94.9987V32.8275H82.0332V34.5864H94.9987V40.0032H75.0098V21.0625H94.9987V26.4793L82.0332 26.4688Z" fill="black"/>
<path id="Vector_7" d="M32.7373 5.6851V7.44404H45.7028V12.0438H32.7373V13.8028H41.1096V19.2195H25.7139V0.277344H52.0504V5.69414L32.7373 5.6851Z" fill="#FF0192"/>
<path id="Vector_8" d="M60.4258 5.6851V7.44404H47.4604V12.0438H60.4258V13.8028H41.1113V19.2195H67.4478V0.277344H52.0521V5.69414L60.4258 5.6851Z" fill="black"/>
</g>
</svg>
