<svg width="345" height="345" viewBox="0 0 345 345" fill="none" xmlns="http://www.w3.org/2000/svg">
<circle cx="172.5" cy="172.5" r="172.5" fill="url(#paint0_linear_543_7229)" fill-opacity="0.02"/>
<circle cx="172.5" cy="172.5" r="172" stroke="url(#paint1_linear_543_7229)" stroke-opacity="0.04"/>
<circle cx="172.5" cy="172.5" r="114.281" fill="url(#paint2_linear_543_7229)" fill-opacity="0.03"/>
<circle cx="172.5" cy="172.5" r="113.781" stroke="url(#paint3_linear_543_7229)" stroke-opacity="0.04"/>
<circle cx="172.5" cy="172.5" r="69" fill="url(#paint4_linear_543_7229)" fill-opacity="0.03"/>
<circle cx="172.5" cy="172.5" r="68.5" stroke="url(#paint5_linear_543_7229)" stroke-opacity="0.04"/>
<g clip-path="url(#clip0_543_7229)">
<rect x="138" y="138" width="69" height="69" rx="34.5" fill="url(#paint6_linear_543_7229)"/>
<rect x="126.936" y="126.936" width="92.9327" height="92.9327" rx="46.4664" stroke="white" stroke-opacity="0.12" stroke-width="3.8722"/>
<g filter="url(#filter0_d_543_7229)">
<path d="M190.177 177.176C189.889 177.015 189.604 176.845 189.325 176.674C186.845 175.143 186.845 171.604 189.325 170.076C189.604 169.902 189.889 169.735 190.177 169.574C192.875 168.057 193.8 164.695 192.243 162.067C190.686 159.44 187.235 158.538 184.537 160.055C184.399 160.133 184.258 160.21 184.117 160.285C181.454 161.715 178.146 159.885 178.14 156.926V156.869C178.14 153.835 175.614 151.375 172.5 151.375C169.386 151.375 166.86 153.835 166.86 156.869C166.86 156.887 166.86 156.908 166.86 156.926C166.854 159.888 163.546 161.715 160.883 160.285C160.742 160.21 160.604 160.133 160.463 160.055C157.765 158.538 154.314 159.437 152.757 162.067C151.2 164.695 152.122 168.057 154.823 169.574C155.111 169.735 155.396 169.905 155.675 170.076C158.155 171.607 158.155 175.146 155.675 176.674C155.396 176.848 155.111 177.015 154.823 177.176C152.125 178.693 151.2 182.052 152.757 184.683C154.314 187.313 157.765 188.212 160.463 186.695C160.601 186.617 160.742 186.54 160.883 186.465C163.546 185.035 166.854 186.865 166.86 189.824C166.86 189.842 166.86 189.863 166.86 189.881C166.86 192.915 169.386 195.375 172.5 195.375C175.614 195.375 178.14 192.915 178.14 189.881V189.824C178.146 186.862 181.454 185.035 184.117 186.462C184.258 186.537 184.396 186.614 184.537 186.692C187.235 188.209 190.686 187.31 192.243 184.68C193.8 182.052 192.878 178.69 190.177 177.173V177.176ZM189.852 183.339C189.341 184.205 188.381 184.742 187.351 184.742C186.852 184.742 186.355 184.611 185.917 184.366C181.843 182.076 177.205 180.864 172.5 180.864C167.795 180.864 163.157 182.076 159.083 184.366C158.639 184.617 158.155 184.742 157.649 184.742C156.619 184.742 155.663 184.205 155.148 183.339C154.354 181.998 154.826 180.278 156.202 179.505C164.478 174.85 169.619 166.176 169.619 156.869C169.619 155.322 170.912 154.062 172.5 154.062C174.088 154.062 175.381 155.322 175.381 156.869C175.381 166.176 180.522 174.85 188.798 179.505C189.463 179.881 189.941 180.484 190.141 181.21C190.34 181.936 190.239 182.691 189.852 183.339Z" fill="white"/>
</g>
</g>
<rect x="137.516" y="137.516" width="69.968" height="69.968" rx="34.984" stroke="url(#paint7_linear_543_7229)" stroke-width="0.968049"/>
<defs>
<filter id="filter0_d_543_7229" x="137" y="140.375" width="71" height="74" filterUnits="userSpaceOnUse" color-interpolation-filters="sRGB">
<feFlood flood-opacity="0" result="BackgroundImageFix"/>
<feColorMatrix in="SourceAlpha" type="matrix" values="0 0 0 0 0 0 0 0 0 0 0 0 0 0 0 0 0 0 127 0" result="hardAlpha"/>
<feOffset dy="4"/>
<feGaussianBlur stdDeviation="7.5"/>
<feComposite in2="hardAlpha" operator="out"/>
<feColorMatrix type="matrix" values="0 0 0 0 0 0 0 0 0 0 0 0 0 0 0 0 0 0 0.25 0"/>
<feBlend mode="normal" in2="BackgroundImageFix" result="effect1_dropShadow_543_7229"/>
<feBlend mode="normal" in="SourceGraphic" in2="effect1_dropShadow_543_7229" result="shape"/>
</filter>
<linearGradient id="paint0_linear_543_7229" x1="240.242" y1="272.692" x2="155.898" y2="52.9911" gradientUnits="userSpaceOnUse">
<stop stop-color="#FFD569"/>
<stop offset="0.515056" stop-color="#FC8E4F"/>
<stop offset="1" stop-color="#FF697B"/>
</linearGradient>
<linearGradient id="paint1_linear_543_7229" x1="240.242" y1="272.692" x2="155.898" y2="52.9911" gradientUnits="userSpaceOnUse">
<stop stop-color="#FFD569"/>
<stop offset="0.515056" stop-color="#FC8E4F"/>
<stop offset="1" stop-color="#FF697B"/>
</linearGradient>
<linearGradient id="paint2_linear_543_7229" x1="217.379" y1="238.877" x2="161.501" y2="93.3254" gradientUnits="userSpaceOnUse">
<stop stop-color="#FFD569"/>
<stop offset="0.515056" stop-color="#FC8E4F"/>
<stop offset="1" stop-color="#FF697B"/>
</linearGradient>
<linearGradient id="paint3_linear_543_7229" x1="217.379" y1="238.877" x2="161.501" y2="93.3254" gradientUnits="userSpaceOnUse">
<stop stop-color="#FFD569"/>
<stop offset="0.515056" stop-color="#FC8E4F"/>
<stop offset="1" stop-color="#FF697B"/>
</linearGradient>
<linearGradient id="paint4_linear_543_7229" x1="199.597" y1="212.577" x2="165.859" y2="124.696" gradientUnits="userSpaceOnUse">
<stop stop-color="#FFD569"/>
<stop offset="0.515056" stop-color="#FC8E4F"/>
<stop offset="1" stop-color="#FF697B"/>
</linearGradient>
<linearGradient id="paint5_linear_543_7229" x1="199.597" y1="212.577" x2="165.859" y2="124.696" gradientUnits="userSpaceOnUse">
<stop stop-color="#FFD569"/>
<stop offset="0.515056" stop-color="#FC8E4F"/>
<stop offset="1" stop-color="#FF697B"/>
</linearGradient>
<linearGradient id="paint6_linear_543_7229" x1="186.048" y1="192.538" x2="169.18" y2="148.598" gradientUnits="userSpaceOnUse">
<stop stop-color="#FFD569"/>
<stop offset="0.515056" stop-color="#FC8E4F"/>
<stop offset="1" stop-color="#FF697B"/>
</linearGradient>
<linearGradient id="paint7_linear_543_7229" x1="186.048" y1="192.538" x2="169.18" y2="148.598" gradientUnits="userSpaceOnUse">
<stop stop-color="#FFD569"/>
<stop offset="0.515056" stop-color="#FC8E4F"/>
<stop offset="1" stop-color="#FF697B"/>
</linearGradient>
<clipPath id="clip0_543_7229">
<rect x="138" y="138" width="69" height="69" rx="34.5" fill="white"/>
</clipPath>
</defs>
</svg>
