<svg width="32" height="32" viewBox="0 0 32 32" fill="none" xmlns="http://www.w3.org/2000/svg">
<path fill-rule="evenodd" clip-rule="evenodd" d="M12 5C12.5523 5 13 5.44772 13 6V9C13 9.55228 12.5523 10 12 10C11.4477 10 11 9.55228 11 9V6C11 5.44772 11.4477 5 12 5Z" fill="#968C7C"/>
<path fill-rule="evenodd" clip-rule="evenodd" d="M20 22C20.5523 22 21 22.4477 21 23V26C21 26.5523 20.5523 27 20 27C19.4477 27 19 26.5523 19 26V23C19 22.4477 19.4477 22 20 22Z" fill="#968C7C"/>
<path fill-rule="evenodd" clip-rule="evenodd" d="M5 12C5 11.4477 5.44772 11 6 11H9C9.55228 11 10 11.4477 10 12C10 12.5523 9.55228 13 9 13H6C5.44772 13 5 12.5523 5 12Z" fill="#968C7C"/>
<path fill-rule="evenodd" clip-rule="evenodd" d="M22 20C22 19.4477 22.4477 19 23 19H26C26.5523 19 27 19.4477 27 20C27 20.5523 26.5523 21 26 21H23C22.4477 21 22 20.5523 22 20Z" fill="#968C7C"/>
<path fill-rule="evenodd" clip-rule="evenodd" d="M9.58196 15.3429C9.97248 15.7334 9.97248 16.3666 9.58196 16.7571L8.16946 18.1696C7.41879 18.9203 6.99707 19.9384 6.99707 21C6.99707 21.5256 7.10061 22.0461 7.30176 22.5318C7.50292 23.0174 7.79776 23.4587 8.16946 23.8304C8.54115 24.2021 8.98241 24.4969 9.46805 24.6981C9.95369 24.8992 10.4742 25.0028 10.9999 25.0028C12.0615 25.0028 13.0796 24.581 13.8302 23.8304L15.2427 22.4179C15.6333 22.0274 16.2664 22.0274 16.657 22.4179C17.0475 22.8084 17.0475 23.4416 16.657 23.8321L15.2445 25.2446C14.1187 26.3703 12.5919 27.0028 10.9999 27.0028C10.2116 27.0028 9.43098 26.8475 8.70269 26.5458C7.97439 26.2442 7.31265 25.802 6.75524 25.2446C6.19783 24.6872 5.75567 24.0254 5.454 23.2972C5.15234 22.5689 4.99707 21.7883 4.99707 21C4.99707 19.408 5.6295 17.8811 6.75524 16.7554L8.16774 15.3429C8.55827 14.9524 9.19143 14.9524 9.58196 15.3429Z" fill="#968C7C"/>
<path fill-rule="evenodd" clip-rule="evenodd" d="M16.7552 6.75537C17.8809 5.62963 19.4078 4.99719 20.9998 4.99719C22.5918 4.99719 24.1187 5.62963 25.2444 6.75537C26.3702 7.88111 27.0026 9.40794 27.0026 11C27.0026 12.592 26.3702 14.1188 25.2444 15.2446L23.8319 16.6571C23.4414 17.0476 22.8082 17.0476 22.4177 16.6571C22.0272 16.2666 22.0272 15.6334 22.4177 15.2429L23.8302 13.8304C24.5809 13.0797 25.0026 12.0616 25.0026 11C25.0026 9.93837 24.5809 8.92025 23.8302 8.16958C23.0795 7.41891 22.0614 6.99719 20.9998 6.99719C19.9382 6.99719 18.9201 7.41891 18.1694 8.16958L16.7569 9.58208C16.3664 9.9726 15.7332 9.9726 15.3427 9.58208C14.9522 9.19156 14.9522 8.55839 15.3427 8.16787L16.7552 6.75537Z" fill="#968C7C"/>
</svg>
