<svg width="20" height="20" viewBox="0 0 20 20" fill="none" xmlns="http://www.w3.org/2000/svg">
<path fill-rule="evenodd" clip-rule="evenodd" d="M13.3081 7.05806C13.5521 6.81398 13.9479 6.81398 14.1919 7.05806L16.6919 9.55806C16.936 9.80214 16.936 10.1979 16.6919 10.4419L14.1919 12.9419C13.9479 13.186 13.5521 13.186 13.3081 12.9419C13.064 12.6979 13.064 12.3021 13.3081 12.0581L15.3661 10L13.3081 7.94194C13.064 7.69786 13.064 7.30214 13.3081 7.05806Z" fill="white"/>
<path fill-rule="evenodd" clip-rule="evenodd" d="M3.125 10C3.125 9.65482 3.40482 9.375 3.75 9.375H16.25C16.5952 9.375 16.875 9.65482 16.875 10C16.875 10.3452 16.5952 10.625 16.25 10.625H3.75C3.40482 10.625 3.125 10.3452 3.125 10Z" fill="white"/>
</svg>
