<svg width="118" height="24" viewBox="0 0 118 24" fill="none" xmlns="http://www.w3.org/2000/svg">
<path d="M38.5988 16.9482L30.1496 2.29201C28.2972 -0.762717 23.7801 -0.795215 21.9928 2.42199L13.1211 17.6631C11.4637 20.4579 13.511 23.9675 16.8258 23.9675H34.6016C37.9489 23.9675 40.4511 20.3603 38.5988 16.9482Z" fill="#3156AA"/>
<path d="M26.4121 18.0856L25.8922 17.1757C25.4047 16.3307 24.3323 14.5109 24.3323 14.5109L17.183 2.09708C15.3306 -0.665172 10.9436 -0.892653 9.09123 2.58453L0.771984 16.9807C-0.950359 20.0029 1.09695 23.935 4.83412 23.9676H22.5125H30.0518H34.5364C29.9543 24.0001 28.492 21.6278 26.4121 18.0856Z" fill="#1972E2"/>
<path d="M26.4126 18.0856L25.8927 17.1758C25.4052 16.3308 24.3328 14.511 24.3328 14.511L19.7182 6.38672L13.0888 17.6957C11.4316 20.4904 13.4788 24.0001 16.7936 24.0001H22.4805H30.0198H34.5369C29.9224 23.9676 28.4924 21.6278 26.4126 18.0856Z" fill="url(#paint0_linear_2811_12302)"/>
<path d="M67.2803 22.6673V5.73633H81.3515V6.80873C81.3515 7.65365 80.669 8.33609 79.8242 8.33609H70.7899V12.8856H79.8242V15.4855H70.7899V20.035H79.8242C80.669 20.035 81.3515 20.7174 81.3515 21.5624V22.6348L67.2803 22.6673Z" fill="white"/>
<path d="M101.565 5.73633H98.25C97.6325 5.73633 97.0801 5.9963 96.6901 6.48375L92.693 11.5208L88.6958 6.51626C88.3059 6.0288 87.7534 5.76882 87.136 5.76882H83.8213L90.5481 14.218L83.8213 22.6673H87.136C87.7534 22.6673 88.3059 22.4073 88.6958 21.9199L92.693 16.9153L96.7226 21.9524C97.1126 22.4073 97.6651 22.6998 98.2825 22.6998H101.597L94.8703 14.2505L101.565 5.73633Z" fill="white"/>
<path d="M56.2639 20.8812L60.8785 12.8219V22.6361H64.3883V5.70508H62.2109C61.5285 5.70508 60.8785 6.06254 60.5536 6.67998L55.0291 16.754L49.5046 6.67998C49.1796 6.06254 48.5296 5.70508 47.8472 5.70508H45.6699V22.6361H49.1796V12.8219L53.7941 20.8812H56.2639Z" fill="white"/>
<path d="M110.729 22.8623C105.855 22.9272 101.89 19.0925 101.857 14.218C101.857 11.5532 102.67 9.34344 104.197 7.81609C105.725 6.32122 107.934 5.50879 110.567 5.50879C113.654 5.50879 116.091 6.58119 117.846 8.66101L116.741 9.60342C116.059 10.1884 115.051 10.2209 114.304 9.66842C113.329 8.92098 112.094 8.56351 110.697 8.56351C107.252 8.56351 105.205 10.6433 105.205 14.153C105.205 17.6952 107.317 19.8725 110.697 19.8725C112.126 19.8725 113.329 19.4825 114.304 18.7676C115.019 18.2151 116.026 18.2477 116.741 18.8326L117.846 19.775C116.091 21.8223 113.751 22.8623 110.729 22.8623Z" fill="white"/>
<defs>
<linearGradient id="paint0_linear_2811_12302" x1="10.7295" y1="12.5572" x2="31.267" y2="20.1467" gradientUnits="userSpaceOnUse">
<stop stop-color="#264CA2" stop-opacity="0"/>
<stop offset="1" stop-color="#234588"/>
</linearGradient>
</defs>
</svg>
