<svg width="84" height="24" viewBox="0 0 84 24" fill="none" xmlns="http://www.w3.org/2000/svg">
<path fill-rule="evenodd" clip-rule="evenodd" d="M45.4609 7.67188H48.4289V17.9729H45.4609V7.67188Z" fill="white"/>
<path d="M43.5472 11.8754C43.2272 11.2904 42.7696 10.7904 42.2178 10.4204C42.9001 9.64943 43.3024 8.62543 43.2533 7.50443C43.1529 5.28143 41.2465 3.56543 39.015 3.56543H32.8281V17.9724H39.907C42.1937 17.9724 44.0479 16.1254 44.0479 13.8444C44.0479 13.1314 43.8673 12.4614 43.5472 11.8754ZM39.4464 15.5274H35.7951V11.9914H39.4254C40.3786 11.9914 41.1853 12.7464 41.1853 13.7604C41.1853 14.7614 40.3806 15.5274 39.4464 15.5274ZM38.6708 9.54643H35.7951V6.01143H38.6487C39.603 6.01143 40.4097 6.76543 40.4097 7.77943C40.4077 8.77943 39.603 9.54643 38.6708 9.54643Z" fill="white"/>
<path d="M83.538 3.99219H80.1235L77.4565 8.25319L74.7905 3.99219H71.375L75.7497 10.9822L71.375 17.9732H74.7905L77.4565 13.7122L80.1235 17.9732H83.538L79.1642 10.9822L83.538 3.99219Z" fill="white"/>
<path d="M59.0118 12.2439V17.9729H56.0448V11.7309C56.0448 10.8229 55.2933 10.0899 54.3742 10.1159C53.4892 10.1429 52.8059 10.9139 52.8059 11.7979V17.9709H49.8379V7.66992H52.8059V8.16092C53.4741 7.84592 54.2187 7.66992 55.0063 7.66992C55.4006 7.66992 55.7849 7.71392 56.1542 7.79792C57.7987 8.17092 58.9606 9.63492 59.0028 11.3149C59.0088 11.6169 59.0118 11.9289 59.0118 12.2439Z" fill="white"/>
<path fill-rule="evenodd" clip-rule="evenodd" d="M45.4609 3.56543H48.4289V6.52343H45.4609V3.56543Z" fill="white"/>
<path d="M70.581 7.67192H65.4628C65.4457 7.67192 65.4296 7.66992 65.4116 7.66992C62.558 7.66992 60.2442 9.97692 60.2442 12.8219C60.2442 15.6529 62.5349 17.9489 65.3674 17.9699C65.3805 17.9729 65.3955 17.9729 65.4116 17.9729C66.5133 17.9729 67.613 18.2949 67.613 19.2499C67.613 20.2189 66.6166 21.0419 65.4116 21.0419C64.1965 21.0419 63.2112 20.0599 63.2112 18.8489H60.2432C60.2432 21.6929 62.558 23.9999 65.4106 23.9999C68.2662 23.9999 70.578 21.6929 70.578 18.8489C70.578 18.8489 70.6352 17.3099 69.3258 16.1839C70.1084 15.2829 70.579 14.1099 70.579 12.8219C70.579 11.8289 70.298 10.9029 69.8094 10.1169H70.581V7.67192ZM65.4116 15.0149C64.1965 15.0149 63.2112 14.0329 63.2112 12.8219C63.2112 11.6109 64.1965 10.6289 65.4116 10.6289C66.6267 10.6289 67.613 11.6109 67.613 12.8219C67.613 14.0329 66.6267 15.0149 65.4116 15.0149Z" fill="white"/>
<path d="M27.9596 0C24.7849 0 21.6463 0.8 18.881 2.315C17.4 3.126 16.0324 4.132 14.8173 5.307C14.5313 5.582 14.2514 5.87 13.9835 6.164C13.0875 7.148 12.2928 8.228 11.6255 9.373C11.3887 9.784 11.1258 10.185 10.8449 10.568C10.8078 10.618 10.7727 10.668 10.7325 10.717C8.27524 13.958 4.53163 15.816 0.461914 15.816V21.804C3.63661 21.804 6.77519 21.004 9.5405 19.49C11.0185 18.681 12.3861 17.673 13.6042 16.498C13.8902 16.222 14.1701 15.934 14.439 15.641C15.336 14.656 16.1277 13.578 16.7949 12.432L16.8391 12.358C17.0649 11.972 17.3137 11.596 17.5756 11.238C17.6127 11.189 17.6498 11.138 17.689 11.086C20.1452 7.846 23.8899 5.987 27.9596 5.987V0Z" fill="#2954FE"/>
<path d="M27.9596 15.8179C23.8899 15.8179 20.1452 13.9589 17.687 10.7179C17.6508 10.6689 17.6127 10.6199 17.5756 10.5669C17.2956 10.1869 17.0327 9.78493 16.796 9.37293C16.1287 8.22893 15.335 7.14993 14.438 6.16493C14.1701 5.87293 13.8902 5.58493 13.6042 5.30893C12.3891 4.13393 11.0225 3.12693 9.5405 2.31693C6.77519 0.80293 3.63661 0.00292969 0.461914 0.00292969V5.99093C4.53163 5.99093 8.27624 7.84893 10.7345 11.0899C10.7727 11.1389 10.8088 11.1899 10.8459 11.2389C11.1098 11.5979 11.3586 11.9749 11.5814 12.3569L11.6285 12.4349C12.2948 13.5779 13.0875 14.6559 13.9835 15.6419C14.2504 15.9339 14.5313 16.2219 14.8173 16.4979C16.0344 17.6729 17.402 18.6809 18.881 19.4899C21.6463 21.0039 24.7849 21.8039 27.9596 21.8039V15.8179Z" fill="#2954FE"/>
</svg>
