<svg width="150" height="80" viewBox="0 0 150 80" fill="none" xmlns="http://www.w3.org/2000/svg">
<path d="M69.6753 46.9053V46.9104C69.1498 46.6172 68.6296 46.308 68.1201 45.9987C63.5947 43.2131 63.5947 36.78 68.1201 34.001C68.6296 33.6858 69.1498 33.3817 69.6753 33.0886C74.5983 30.3308 76.2875 24.2181 73.4459 19.4402C70.6043 14.6629 64.3049 13.0233 59.3825 15.781C59.1307 15.9228 58.873 16.0638 58.616 16.1998C53.7544 18.7996 47.7185 15.4717 47.7067 10.0921V9.98856C47.7067 4.47308 43.097 0 37.4132 0C31.7294 0 27.1205 4.47308 27.1205 9.98856V10.0921C27.1087 15.4776 21.0728 18.7996 16.2112 16.1998C15.9542 16.0638 15.7024 15.9228 15.4446 15.781C10.5223 13.0233 4.22273 14.6578 1.3812 19.4402C-1.46107 24.2181 0.222911 30.3308 5.15111 33.0886C5.67754 33.3817 6.19738 33.691 6.70697 34.001C11.2325 36.7859 11.2325 43.2189 6.70697 45.9987C6.19738 46.3132 5.67754 46.6172 5.15111 46.9104C0.228768 49.6682 -1.46107 55.7757 1.3812 60.5588C4.22273 65.3411 10.5223 66.976 15.4446 64.218C15.6965 64.0761 15.9542 63.9351 16.2112 63.8C21.0728 61.1994 27.1087 64.5272 27.1205 69.907V70.0107C27.1205 75.5269 31.7294 80 37.4132 80C43.097 80 47.7067 75.5269 47.7067 70.0107V69.907C47.7185 64.5213 53.7544 61.1994 58.616 63.7941C58.873 63.93 59.1249 64.0711 59.3825 64.2121C64.3049 66.97 70.6043 65.3361 73.4459 60.553C76.2875 55.7757 74.6043 49.663 69.6753 46.9053ZM37.4132 76.1524C32.2764 76.1524 28.1104 72.1101 28.1104 67.1238V67.0308C28.1001 62.1684 22.6528 59.1763 18.2503 61.5109C18.0189 61.6343 17.7853 61.7606 17.5576 61.8885C13.109 64.381 7.41495 62.9037 4.84653 58.582C2.2781 54.2588 3.80539 48.7381 8.25403 46.2455C8.72993 45.9811 9.19995 45.7056 9.66051 45.422C13.7504 42.9097 13.757 37.0842 9.66051 34.5776C9.20069 34.2963 8.72993 34.0179 8.25403 33.7534C3.79954 31.2609 2.2781 25.7358 4.84653 21.4177C7.41495 17.0953 13.0995 15.6348 17.5576 18.1105C17.7897 18.239 18.0182 18.3654 18.2503 18.4888C22.6498 20.8286 28.1001 17.8358 28.1104 12.9682V12.8749C28.1104 7.88981 32.2764 3.84719 37.4132 3.84719C42.5501 3.84719 46.7169 7.88981 46.7169 12.8749V12.9682C46.7279 17.8306 52.178 20.8286 56.5769 18.4888C56.809 18.3654 57.0425 18.2383 57.2703 18.1105C61.7189 15.6179 67.4132 17.0997 69.9807 21.4177C72.5489 25.7358 71.0224 31.2609 66.5732 33.7534C66.098 34.0179 65.6279 34.2934 65.1674 34.5776C61.0768 37.09 61.0694 42.917 65.1674 45.422C65.6272 45.7027 66.098 45.9811 66.5732 46.2455V46.2411C71.0277 48.7337 72.5489 54.2588 69.9807 58.5761C67.4132 62.8993 61.7313 64.3538 57.2703 61.8833C57.0374 61.7548 56.8097 61.6284 56.5769 61.5057C52.1832 59.1608 46.7279 62.1632 46.7169 67.0308V67.1238C46.7169 72.1101 42.5508 76.1524 37.4132 76.1524Z" fill="#3189E2"/>
<path d="M63.4074 45.5723V45.5767C62.9838 45.3396 62.5638 45.0915 62.154 44.8405C58.5013 42.604 58.5079 37.4015 62.154 35.1591C62.5653 34.9044 62.9838 34.6593 63.4074 34.4229C67.3745 32.1975 68.735 27.2643 66.4452 23.4087C64.1561 19.5537 59.0805 18.2304 55.1144 20.4559C54.9114 20.5703 54.7032 20.6841 54.4965 20.7942C50.5749 22.8824 45.7163 20.2063 45.7068 15.8654V15.7818C45.7068 11.3309 41.9927 7.72113 37.413 7.72113C32.8334 7.72113 29.12 11.3309 29.12 15.7818V15.8654C29.1104 20.2114 24.2525 22.8824 20.3303 20.7942C20.1235 20.6841 19.9198 20.5711 19.7131 20.4559C15.7382 18.2458 10.6713 19.5494 8.38155 23.4087C6.09171 27.2643 7.44883 32.1975 11.4193 34.4229C11.8437 34.6593 12.2629 34.9074 12.6727 35.1591C16.3247 37.3971 16.3188 42.5974 12.6727 44.8405C12.2622 45.0944 11.8437 45.3396 11.4193 45.5767C7.45317 47.8021 6.09171 52.7302 8.38155 56.5902C10.6713 60.4495 15.747 61.7685 19.7131 59.543C19.9161 59.4286 20.1235 59.3155 20.3303 59.2054C24.2547 57.1209 29.1104 59.7926 29.12 64.1334V64.2171C29.12 68.6686 32.8341 72.2787 37.413 72.2787C41.9919 72.2787 45.7068 68.6686 45.7068 64.2171V64.1334C45.7163 59.7882 50.5793 57.1069 54.4965 59.201C54.7039 59.3103 54.907 59.4234 55.1144 59.5386C59.0915 61.7435 64.1561 60.4451 66.4452 56.5858C68.735 52.7302 67.3785 47.7977 63.4074 45.5723ZM62.9882 54.6106C60.9715 58.0105 56.5102 59.1547 53.0065 57.2119C52.8239 57.1106 52.6449 57.0115 52.4623 56.9146C49.0118 55.0701 44.728 57.4314 44.7192 61.2598V61.3332C44.7192 65.2549 41.4477 68.4344 37.413 68.4344C33.3782 68.4344 30.1074 65.2549 30.1074 61.3332V61.2598C30.0994 57.4357 25.8215 55.0819 22.3644 56.919C22.1826 57.0152 21.9992 57.115 21.8203 57.2155C18.3267 59.1761 13.8552 58.0142 11.8385 54.615C9.82117 51.2145 11.0205 46.8729 14.5148 44.9124C14.888 44.7039 15.2569 44.4874 15.6191 44.2643C18.8308 42.2884 18.8358 37.7068 15.6191 35.7353C15.2576 35.5144 14.888 35.295 14.5148 35.0865C11.0168 33.126 9.82117 28.7807 11.8385 25.3846C13.8552 21.9847 18.3194 20.8361 21.8203 22.7833C22.0029 22.8846 22.1826 22.9837 22.3644 23.0806C25.8193 24.9207 30.0994 22.5675 30.1074 18.7391V18.6657C30.1074 14.7447 33.3789 11.565 37.413 11.565C41.447 11.565 44.7192 14.7447 44.7192 18.6657V18.7391C44.728 22.5631 49.0074 24.9207 52.4623 23.0806C52.6449 22.9837 52.8275 22.8839 53.0065 22.7833C56.5 20.8228 60.9715 21.9884 62.9882 25.3846C65.0056 28.7807 63.8062 33.126 60.3119 35.0865C59.9387 35.295 59.5699 35.5115 59.2083 35.7353C55.996 37.7112 55.9901 42.2943 59.2083 44.2643C59.5691 44.4852 59.9387 44.7039 60.3119 44.9124V44.9087C63.8106 46.8692 65.0056 51.2145 62.9882 54.6106Z" fill="#3189E2"/>
<path d="M57.3234 44.2393V44.2422C56.9995 44.0627 56.6779 43.8735 56.3643 43.683C53.5657 41.981 53.5709 38.0229 56.3643 36.3166C56.6786 36.1231 56.9995 35.9369 57.3234 35.7566C60.3622 34.0634 61.4042 30.3106 59.6506 27.3772C57.8969 24.4446 54.0093 23.4383 50.9713 25.1306C50.8163 25.2179 50.657 25.3044 50.4983 25.3879C47.4949 26.977 43.7732 24.9408 43.7658 21.638V21.575C43.7658 18.1886 40.921 15.4422 37.413 15.4422C33.905 15.4422 31.0608 18.1886 31.0608 21.575V21.638C31.0542 24.9445 27.3326 26.977 24.3283 25.3879C24.1704 25.3044 24.014 25.2186 23.8554 25.1306C20.8108 23.45 16.9297 24.4417 15.1761 27.3772C13.4225 30.3106 14.4616 34.0634 17.5025 35.7566C17.8278 35.9369 18.1487 36.126 18.463 36.3166C21.2602 38.0192 21.2558 41.9759 18.463 43.683C18.1487 43.8757 17.8278 44.0627 17.5025 44.2422C14.4653 45.9354 13.4225 49.6853 15.1761 52.6216C16.9297 55.5579 20.8174 56.5613 23.8554 54.8681C24.011 54.7809 24.1704 54.6952 24.3283 54.6116C27.3348 53.0255 31.0542 55.058 31.0608 58.3608V58.4245C31.0608 61.8108 33.9057 64.5573 37.413 64.5573C40.9202 64.5573 43.7658 61.8108 43.7658 58.4245V58.3608C43.7732 55.0543 47.4985 53.0152 50.4983 54.6079C50.657 54.6915 50.8127 54.7772 50.9713 54.8645C54.0181 56.5422 57.8969 55.5542 59.6506 52.6179C61.4042 49.6853 60.3658 45.9325 57.3234 44.2393ZM56.1749 50.6454C54.6959 53.1237 51.4222 53.957 48.8527 52.5409C48.7183 52.4676 48.5868 52.3951 48.4532 52.3247C45.9219 50.9804 42.7789 52.7014 42.773 55.4912V55.5447C42.773 58.4018 40.3731 60.7187 37.413 60.7187C34.4528 60.7187 32.0537 58.4018 32.0537 55.5447V55.4912C32.0478 52.7044 28.9099 50.9893 26.3734 52.3277C26.2398 52.398 26.1054 52.4706 25.9747 52.5439C23.4118 53.9725 20.1315 53.1259 18.6518 50.6491C17.1721 48.171 18.0518 45.0075 20.6147 43.5796C20.8886 43.4271 21.1596 43.2696 21.4247 43.1068C23.7812 41.6673 23.7849 38.3293 21.4247 36.8927C21.1603 36.7314 20.8886 36.5717 20.6147 36.4199C18.0489 34.9913 17.1721 31.8249 18.6518 29.3504C20.1315 26.8729 23.406 26.0366 25.9747 27.4549C26.1084 27.529 26.2398 27.6015 26.3734 27.6719C28.9084 29.0125 32.0478 27.2981 32.0537 24.5084V24.4548C32.0537 21.5977 34.4535 19.2808 37.413 19.2808C40.3724 19.2808 42.773 21.5977 42.773 24.4548V24.5084C42.7789 27.2951 45.9189 29.0125 48.4532 27.6719C48.5868 27.6015 48.7212 27.5282 48.8527 27.4549C51.4156 26.0263 54.6959 26.8759 56.1749 29.3504C57.6546 31.8249 56.7749 34.9913 54.2119 36.4199C53.938 36.5717 53.6671 36.7292 53.402 36.8927C51.0455 38.3323 51.0411 41.6717 53.402 43.1068C53.6671 43.2681 53.938 43.4271 54.2119 43.5796V43.5767C56.7785 45.0053 57.6546 48.171 56.1749 50.6454Z" fill="#3189E2"/>
<path d="M51.0557 42.9066V42.9088C50.8332 42.7852 50.6128 42.6558 50.3983 42.525C48.4806 41.3582 48.4842 38.6445 50.3983 37.4748C50.6136 37.3425 50.8332 37.2146 51.0557 37.091C53.1374 35.9301 53.8518 33.3567 52.6499 31.3456C51.4488 29.3351 48.7851 28.645 46.7034 29.8059C46.5965 29.8652 46.4874 29.9244 46.379 29.9821C44.3207 31.0714 41.7713 29.6758 41.7662 27.411V27.3678C41.7662 25.046 39.8169 23.1635 37.4131 23.1635C35.0093 23.1635 33.0607 25.046 33.0607 27.3678V27.411C33.0563 29.678 30.5061 31.0714 28.4478 29.9821C28.3395 29.9244 28.2326 29.8659 28.1235 29.8059C26.0381 28.653 23.3789 29.333 22.1769 31.3456C20.975 33.3567 21.6872 35.9301 23.7712 37.091C23.9937 37.2146 24.214 37.3439 24.4292 37.4748C26.3455 38.6423 26.3426 41.3546 24.4292 42.525C24.2133 42.6573 23.9937 42.7852 23.7712 42.9088C21.6894 44.0697 20.975 46.6401 22.1769 48.6535C23.3789 50.6668 26.0425 51.3548 28.1235 50.1939C28.2304 50.1339 28.3395 50.0754 28.4478 50.0177C30.5076 48.9306 33.0563 50.324 33.0607 52.5881V52.632C33.0607 54.9538 35.01 56.8363 37.4131 56.8363C39.8162 56.8363 41.7662 54.9538 41.7662 52.632V52.5881C41.7713 50.3218 44.3237 48.9233 46.379 50.0155C46.4881 50.0725 46.595 50.1317 46.7034 50.1917C48.7902 51.3416 51.4488 50.6647 52.6499 48.6513C53.8518 46.6401 53.1396 44.0676 51.0557 42.9066ZM49.1855 46.684C48.2574 48.2397 46.199 48.7712 44.5908 47.8742C44.5067 47.8281 44.4247 47.7821 44.3405 47.7382C42.7521 46.8946 40.7802 47.9744 40.7765 49.726V49.7596C40.7765 51.5536 39.2701 53.0084 37.4138 53.0084C35.5575 53.0084 34.0503 51.5536 34.0503 49.7596V49.726C34.0467 47.9765 32.0747 46.8946 30.4863 47.7397C30.4029 47.7842 30.318 47.8296 30.236 47.8756C28.6278 48.7727 26.5695 48.2412 25.6414 46.6862C24.7125 45.1305 25.2652 43.1442 26.8733 42.2472C27.0453 42.1521 27.2152 42.0527 27.3813 41.9511C28.8599 41.0468 28.8599 38.9545 27.3813 38.0487C27.2152 37.9486 27.0453 37.8477 26.8733 37.7526C25.263 36.8556 24.7125 34.8679 25.6414 33.3136C26.5695 31.7586 28.6278 31.2271 30.236 32.1234C30.3202 32.1695 30.4029 32.2156 30.4863 32.2601C32.0747 33.1052 34.0467 32.0248 34.0503 30.2738V30.2402C34.0503 28.4462 35.5568 26.9914 37.4138 26.9914C39.2708 26.9914 40.7765 28.4462 40.7765 30.2402V30.2738C40.7802 32.0233 42.7521 33.1052 44.3405 32.2601C44.4247 32.2156 44.5089 32.1695 44.5908 32.1234C46.199 31.2271 48.2574 31.7601 49.1855 33.3136C50.1144 34.8679 49.5625 36.8556 47.9536 37.7526C47.7823 37.8477 47.6125 37.9463 47.4455 38.0487C45.967 38.953 45.967 41.0446 47.4455 41.9511C47.6125 42.0513 47.7823 42.1521 47.9536 42.2472V42.2457C49.5639 43.1428 50.1144 45.1305 49.1855 46.684Z" fill="#3189E2"/>
<path d="M117.811 54.6377H118.757V57.358L121.309 54.6377H122.494L120.261 57.0837L122.528 60.2269H121.412L119.566 57.7809L118.757 58.661V60.2269H117.811V54.6377Z" fill="#2C2D2E"/>
<path d="M116.467 58.1924L117.926 60.2269H116.729L115.397 58.341H114.166V60.2269H113.22V54.6377H115.294C116.137 54.6377 116.741 54.7825 117.105 55.072C117.478 55.354 117.664 55.815 117.664 56.455C117.664 57.377 117.265 57.9562 116.467 58.1924ZM115.328 57.4952C115.852 57.4952 116.213 57.4152 116.411 57.2551C116.608 57.0951 116.707 56.8246 116.707 56.4436C116.707 56.0779 116.608 55.8302 116.411 55.7007C116.213 55.5635 115.86 55.4949 115.351 55.4949H114.166V57.4952H115.328Z" fill="#2C2D2E"/>
<path d="M110.308 55.3577C109.754 55.3577 109.287 55.5559 108.907 55.9521C108.528 56.3483 108.338 56.8284 108.338 57.3922C108.338 57.9562 108.528 58.4362 108.907 58.8325C109.287 59.221 109.754 59.4154 110.308 59.4154C110.863 59.4154 111.33 59.221 111.71 58.8325C112.09 58.4362 112.28 57.9562 112.28 57.3922C112.28 56.8284 112.09 56.3483 111.71 55.9521C111.33 55.5559 110.863 55.3577 110.308 55.3577ZM110.308 60.2841C109.474 60.2841 108.775 60.0098 108.212 59.4611C107.65 58.9049 107.37 58.2152 107.37 57.3922C107.37 56.5693 107.65 55.8835 108.212 55.3349C108.775 54.7786 109.474 54.5005 110.308 54.5005C111.144 54.5005 111.843 54.7786 112.405 55.3349C112.967 55.8835 113.248 56.5693 113.248 57.3922C113.248 58.2152 112.963 58.901 112.394 59.4496C111.824 60.0059 111.129 60.2841 110.308 60.2841Z" fill="#2C2D2E"/>
<path d="M102.328 58.661L103.57 54.6377H104.414L105.656 58.661L107.057 54.6377H108.071L106.122 60.2269H105.188L104.026 56.3979H103.958L102.784 60.2269H101.85L99.9016 54.6377H100.916L102.328 58.661Z" fill="#2C2D2E"/>
<path d="M99.0847 55.4949V60.2269H98.1391V55.4949H96.4525V54.6377H100.771V55.4949H99.0847Z" fill="#2C2D2E"/>
<path d="M96.8993 54.6377V55.5178H93.9256V57.0037H96.5912V57.8381H93.9256V59.3354H96.99V60.2269H92.98V54.6377H96.8993Z" fill="#2C2D2E"/>
<path d="M91.7068 54.6377H92.6411V60.2269H91.6268L88.471 56.1464V60.2269H87.5254V54.6377H88.471L91.7068 58.8096V54.6377Z" fill="#2C2D2E"/>
<path d="M136.207 46.2477L134.483 50.1655H131.387L138.987 32.9059H142.083L149.647 50.1655H146.551L144.827 46.2477H136.207ZM143.666 43.53L140.535 36.4355L137.403 43.53H143.666Z" fill="#2C2D2E"/>
<path d="M129.63 43.8829L134.134 50.1655H130.44L126.323 44.3418H122.523V50.1655H119.604V32.9059H126.006C128.61 32.9059 130.475 33.3531 131.601 34.2472C132.75 35.1178 133.325 36.5415 133.325 38.518C133.325 41.3652 132.093 43.1535 129.63 43.8829ZM126.113 41.7299C127.73 41.7299 128.845 41.4828 129.454 40.9886C130.065 40.4946 130.369 39.6592 130.369 38.4827C130.369 37.3532 130.065 36.5885 129.454 36.1885C128.845 35.7649 127.754 35.5532 126.183 35.5532H122.523V41.7299H126.113Z" fill="#2C2D2E"/>
<path d="M111.499 47.589C112.836 47.589 113.892 47.1301 114.665 46.2124C115.463 45.2947 115.862 44.0476 115.862 42.4711V32.9059H118.782V42.577C118.782 45.0242 118.113 46.9301 116.777 48.2948C115.44 49.6596 113.68 50.342 111.499 50.342C109.317 50.342 107.559 49.6596 106.222 48.2948C104.885 46.9301 104.216 45.0242 104.216 42.577V32.9059H107.101V42.4711C107.101 44.0711 107.5 45.3183 108.297 46.2124C109.071 47.1301 110.138 47.589 111.499 47.589Z" fill="#2C2D2E"/>
<path d="M92.3457 46.2477L90.6218 50.1655H87.5254L95.1246 32.9059H98.221L105.786 50.1655H102.689L100.965 46.2477H92.3457ZM99.8042 43.53L96.6732 36.4355L93.5414 43.53H99.8042Z" fill="#2C2D2E"/>
</svg>
