<svg xmlns="http://www.w3.org/2000/svg" width="64" height="64" viewBox="0 0 64 64" fill="none">
  <g clip-path="url(#clip0_2995_8404)">
    <path fill-rule="evenodd" clip-rule="evenodd" d="M29.1772 26.5828L25.7957 23.201L25.7956 23.2006C25.5627 22.9677 25.4318 22.6517 25.4318 22.3223C25.4318 21.9929 25.5627 21.677 25.7956 21.4441C26.0285 21.2112 26.3445 21.0803 26.6739 21.0803C27.0033 21.0803 27.3192 21.2112 27.5521 21.4441L28.8139 22.7058V17.1578C28.8139 16.8283 28.9448 16.5123 29.1778 16.2793C29.4107 16.0464 29.7268 15.9155 30.0562 15.9155C30.3857 15.9155 30.7018 16.0464 30.9347 16.2793C31.1677 16.5123 31.2986 16.8283 31.2986 17.1578V22.706L32.5599 21.4442C32.7928 21.2113 33.1088 21.0804 33.4382 21.0804C33.7676 21.0804 34.0836 21.2113 34.3165 21.4442C34.5494 21.6772 34.6803 21.9931 34.6803 22.3225C34.6803 22.652 34.5494 22.9679 34.3165 23.2008L30.9344 26.5828C30.7013 26.8158 30.3853 26.9467 30.0558 26.9467C29.7263 26.9467 29.4103 26.8158 29.1772 26.5828ZM19.7543 46.4305C19.6919 46.2798 19.6598 46.1183 19.6599 45.9552H19.6594C19.6594 45.6258 19.7902 45.3099 20.0231 45.0769C20.256 44.8439 20.5718 44.713 20.9012 44.7128H29.6936C30.0209 44.7161 30.3336 44.8484 30.5639 45.081C30.7941 45.3136 30.9233 45.6276 30.9233 45.9549C30.9233 46.2822 30.7941 46.5962 30.5639 46.8288C30.3336 47.0614 30.0209 47.1937 29.6936 47.197H20.9017C20.7387 47.197 20.5772 47.1649 20.4265 47.1025C20.2758 47.0402 20.1389 46.9487 20.0235 46.8334C19.9082 46.7181 19.8167 46.5812 19.7543 46.4305ZM42.5099 39.6458C42.7429 39.4129 43.0589 39.282 43.3884 39.282H43.4089C43.7384 39.282 44.0544 39.4129 44.2874 39.6458C44.5204 39.8788 44.6512 40.1948 44.6512 40.5243C44.6512 40.8538 44.5204 41.1698 44.2874 41.4028C44.0544 41.6358 43.7384 41.7667 43.4089 41.7667H43.3884C43.0589 41.7667 42.7429 41.6358 42.5099 41.4028C42.2769 41.1698 42.146 40.8538 42.146 40.5243C42.146 40.1948 42.2769 39.8788 42.5099 39.6458ZM17.4849 47.1161V31.2516C18.1482 31.6006 18.8866 31.7826 19.6361 31.7818H44.1V35.8678H42.5449C41.31 35.8678 40.1256 36.3584 39.2524 37.2316C38.3792 38.1048 37.8886 39.2892 37.8886 40.5241C37.8886 41.759 38.3792 42.9433 39.2524 43.8166C40.1256 44.6898 41.31 45.1803 42.5449 45.1803H44.1V49.2668H19.6362C19.0659 49.2663 18.5192 49.0395 18.1158 48.6363C17.7125 48.2331 17.4856 47.6864 17.4849 47.1161ZM18.808 25.1543C19.0708 25.0472 19.3523 24.9932 19.6361 24.9953H21.3266C22.0484 26.7506 23.2801 28.249 24.8624 29.297H19.6361C19.3523 29.2991 19.0708 29.2451 18.808 29.138C18.5452 29.0309 18.3061 28.8728 18.1046 28.6728C17.9032 28.4729 17.7433 28.2351 17.6342 27.973C17.525 27.711 17.4689 27.43 17.4689 27.1461C17.4689 26.8623 17.525 26.5813 17.6342 26.3193C17.7433 26.0572 17.9032 25.8194 18.1046 25.6195C18.3061 25.4195 18.5452 25.2614 18.808 25.1543ZM26.1978 15.6564C27.3399 14.8932 28.6827 14.4858 30.0564 14.4857C31.8978 14.4876 33.6632 15.2199 34.9654 16.5219C36.2675 17.8239 36.9999 19.5893 37.002 21.4307C37.0021 22.8044 36.5948 24.1472 35.8317 25.2894C35.0686 26.4316 33.9839 27.3219 32.7148 27.8476C31.4457 28.3734 30.0493 28.511 28.702 28.2431C27.3547 27.9751 26.1171 27.3137 25.1457 26.3424C24.1743 25.3711 23.5128 24.1336 23.2448 22.7864C22.9767 21.4391 23.1142 20.0426 23.6398 18.7735C24.1655 17.5043 25.0556 16.4196 26.1978 15.6564ZM38.7856 24.9953H40.48V29.297H35.2504C36.8325 28.249 38.064 26.7506 38.7856 24.9953ZM42.5449 38.353H46.4224V42.6956H42.5449C42.2583 42.6978 41.9742 42.6432 41.7089 42.5351C41.4435 42.4269 41.2022 42.2673 40.9988 42.0655C40.7955 41.8636 40.634 41.6235 40.5239 41.359C40.4137 41.0945 40.357 40.8108 40.357 40.5243C40.357 40.2377 40.4137 39.954 40.5239 39.6895C40.634 39.425 40.7955 39.1849 40.9988 38.9831C41.2022 38.7812 41.4435 38.6216 41.7089 38.5135C41.9742 38.4053 42.2583 38.3508 42.5449 38.353ZM16.3595 50.3925C15.4904 49.5235 15.0015 48.3452 15 47.1161V27.1453C15.0018 25.9165 15.4908 24.7385 16.3599 23.8697C17.2291 23.001 18.4073 22.5124 19.6361 22.5112H20.6891C20.6478 22.1526 20.627 21.7919 20.6266 21.4308C20.6264 20.1469 20.8885 18.8764 21.3967 17.6972C21.9049 16.5181 22.6486 15.4552 23.5821 14.5737C24.5156 13.6921 25.6194 13.0105 26.8257 12.5706C28.0319 12.1308 29.3153 11.9419 30.5972 12.0155C31.8791 12.0892 33.1324 12.4239 34.2803 12.9991C35.4283 13.5743 36.4466 14.3779 37.273 15.3606C38.0994 16.3433 38.7164 17.4844 39.0862 18.714C39.4559 19.9436 39.5707 21.2357 39.4234 22.5112H40.8127C41.3832 22.5118 41.93 22.7387 42.3334 23.1421C42.7367 23.5454 42.9635 24.0923 42.9641 24.6627V29.2971H44.4328C45.0031 29.2977 45.55 29.5245 45.9533 29.9279C46.3567 30.3312 46.5835 30.8781 46.5841 31.4485V35.8682H47.6651C47.9946 35.8682 48.3106 35.9991 48.5436 36.2321C48.7766 36.4651 48.9075 36.7811 48.9075 37.1106V43.9381C48.9075 44.2676 48.7766 44.5835 48.5436 44.8165C48.3106 45.0495 47.9946 45.1803 47.6651 45.1803H46.5841V49.6002C46.5835 50.1706 46.3566 50.7174 45.9533 51.1208C45.55 51.5241 45.0031 51.751 44.4328 51.7516H19.6361C18.4071 51.7503 17.2287 51.2615 16.3595 50.3925Z" fill="url(#paint0_linear_2995_8404)"/>
    <path fill-rule="evenodd" clip-rule="evenodd" d="M32 0C49.6729 0 64 14.3279 64 32.0009C64 49.6739 49.673 64.0009 32 64.0009C14.327 64.0009 0 49.673 0 32.0009C0 14.3288 14.327 0 32 0ZM25.842 23.325L29.2235 26.7069C29.4565 26.9398 29.7725 27.0707 30.1021 27.0707C30.4316 27.0707 30.7476 26.9398 30.9806 26.7069L34.3628 23.3249C34.5957 23.0919 34.7266 22.776 34.7266 22.4466C34.7266 22.1171 34.5957 21.8012 34.3627 21.5683C34.1298 21.3353 33.8139 21.2044 33.4844 21.2044C33.155 21.2044 32.8391 21.3353 32.6061 21.5683L31.3449 22.83V17.2819C31.3449 16.9524 31.214 16.6364 30.981 16.4034C30.748 16.1704 30.432 16.0395 30.1025 16.0395C29.773 16.0395 29.457 16.1704 29.224 16.4034C28.991 16.6364 28.8601 16.9524 28.8601 17.2819V22.8299L27.5984 21.5681C27.3654 21.3352 27.0495 21.2043 26.7201 21.2043C26.3907 21.2043 26.0748 21.3352 25.8419 21.5681C25.6089 21.8011 25.4781 22.117 25.4781 22.4464C25.4781 22.7758 25.6089 23.0917 25.8419 23.3246L25.842 23.325ZM19.7061 46.0793C19.7061 46.2423 19.7382 46.4038 19.8006 46.5545C19.863 46.7052 19.9545 46.8421 20.0698 46.9574C20.1851 47.0727 20.322 47.1642 20.4727 47.2266C20.6234 47.289 20.7849 47.321 20.948 47.321H29.7399C30.0671 47.3177 30.3799 47.1854 30.6101 46.9528C30.8404 46.7203 30.9695 46.4062 30.9695 46.0789C30.9695 45.7517 30.8404 45.4376 30.6101 45.205C30.3799 44.9725 30.0671 44.8402 29.7399 44.8369H20.9475C20.6181 44.837 20.3022 44.968 20.0693 45.2009C19.8364 45.4339 19.7056 45.7498 19.7056 46.0793H19.7061ZM43.4346 39.406C43.1051 39.406 42.7891 39.5369 42.5561 39.7699C42.3231 40.0029 42.1922 40.3189 42.1922 40.6484C42.1922 40.9779 42.3231 41.2939 42.5561 41.5269C42.7891 41.7599 43.1051 41.8908 43.4346 41.8908H43.4551C43.7846 41.8908 44.1006 41.7599 44.3336 41.5269C44.5666 41.2939 44.6975 40.9779 44.6975 40.6484C44.6975 40.3189 44.5666 40.0029 44.3336 39.7699C44.1006 39.5369 43.7846 39.406 43.4551 39.406H43.4346ZM17.5311 31.3756V47.2401C17.5319 47.8104 17.7588 48.3571 18.1621 48.7604C18.5654 49.1636 19.1122 49.3903 19.6825 49.3909H44.1462V45.3044H42.5911C41.3562 45.3044 40.1719 44.8138 39.2987 43.9406C38.4254 43.0674 37.9349 41.883 37.9349 40.6481C37.9349 39.4132 38.4254 38.2289 39.2987 37.3557C40.1719 36.4824 41.3562 35.9919 42.5911 35.9919H44.1462V31.9059H19.6824C18.9328 31.9066 18.1944 31.7246 17.5311 31.3756ZM19.6824 25.1194C19.3985 25.1172 19.1171 25.1712 18.8542 25.2784C18.5914 25.3855 18.3524 25.5436 18.1509 25.7435C17.9494 25.9434 17.7895 26.1813 17.6804 26.4433C17.5713 26.7053 17.5151 26.9864 17.5151 27.2702C17.5151 27.554 17.5713 27.8351 17.6804 28.0971C17.7895 28.3591 17.9494 28.5969 18.1509 28.7969C18.3524 28.9968 18.5914 29.1549 18.8542 29.262C19.1171 29.3691 19.3985 29.4232 19.6824 29.421H24.9086C23.3263 28.373 22.0947 26.8746 21.3729 25.1194H19.6824ZM30.1026 14.6097C28.729 14.6098 27.3861 15.0172 26.244 15.7804C25.1019 16.5436 24.2117 17.6284 23.6861 18.8975C23.1604 20.1666 23.023 21.5631 23.291 22.9104C23.5591 24.2577 24.2206 25.4952 25.192 26.4665C26.1633 27.4378 27.4009 28.0992 28.7482 28.3671C30.0955 28.635 31.492 28.4974 32.7611 27.9717C34.0302 27.4459 35.1148 26.5557 35.8779 25.4135C36.6411 24.2713 37.0483 22.9284 37.0482 21.5548C37.0462 19.7133 36.3138 17.948 35.0116 16.6459C33.7095 15.3439 31.944 14.6116 30.1026 14.6097ZM40.5262 25.1194H38.8319C38.1103 26.8746 36.8788 28.373 35.2966 29.421H40.5262V25.1194ZM46.4686 38.477H42.5911C42.3046 38.4748 42.0205 38.5294 41.7551 38.6375C41.4898 38.7457 41.2485 38.9053 41.0451 39.1071C40.8417 39.3089 40.6803 39.549 40.5701 39.8136C40.46 40.0781 40.4033 40.3618 40.4033 40.6483C40.4033 40.9348 40.46 41.2186 40.5701 41.4831C40.6803 41.7476 40.8417 41.9877 41.0451 42.1895C41.2485 42.3914 41.4898 42.551 41.7551 42.6591C42.0205 42.7672 42.3046 42.8218 42.5911 42.8196H46.4686V38.477ZM15.0463 47.2401C15.0477 48.4692 15.5366 49.6475 16.4058 50.5165C17.2749 51.3856 18.4533 51.8743 19.6824 51.8756H44.479C45.0494 51.875 45.5962 51.6481 45.9996 51.2448C46.4029 50.8415 46.6297 50.2946 46.6304 49.7243V45.3044H47.7114C48.0408 45.3044 48.3568 45.1735 48.5898 44.9405C48.8228 44.7076 48.9537 44.3916 48.9538 44.0621V37.2346C48.9537 36.9051 48.8228 36.5892 48.5898 36.3562C48.3568 36.1232 48.0409 35.9923 47.7114 35.9923H46.6304V31.5725C46.6298 31.0021 46.4029 30.4552 45.9996 30.0519C45.5963 29.6486 45.0494 29.4217 44.479 29.4211H43.0104V24.7868C43.0098 24.2163 42.7829 23.6695 42.3796 23.2661C41.9763 22.8628 41.4294 22.6359 40.859 22.6353H39.4696C39.6169 21.3597 39.5022 20.0676 39.1324 18.838C38.7626 17.6084 38.1457 16.4673 37.3193 15.4846C36.4929 14.5019 35.4745 13.6983 34.3266 13.1231C33.1786 12.5479 31.9253 12.2133 30.6435 12.1396C29.3616 12.0659 28.0782 12.2548 26.8719 12.6947C25.6656 13.1346 24.5619 13.8162 23.6284 14.6977C22.6948 15.5792 21.9512 16.6422 21.4429 17.8213C20.9347 19.0004 20.6727 20.2709 20.6729 21.5549C20.6732 21.9159 20.6941 22.2766 20.7354 22.6353H19.6824C18.4535 22.6365 17.2753 23.125 16.4062 23.9938C15.5371 24.8625 15.048 26.0405 15.0463 27.2694V47.2401Z" fill="url(#paint1_linear_2995_8404)" fill-opacity="0.12"/>
  </g>
  <defs>
    <linearGradient id="paint0_linear_2995_8404" x1="38.6116" y1="43.4201" x2="27.7411" y2="19.2673" gradientUnits="userSpaceOnUse">
      <stop stop-color="#FFD569"/>
      <stop offset="0.515056" stop-color="#FC8E4F"/>
      <stop offset="1" stop-color="#FF697B"/>
    </linearGradient>
    <linearGradient id="paint1_linear_2995_8404" x1="44.5667" y1="50.587" x2="28.9198" y2="9.83052" gradientUnits="userSpaceOnUse">
      <stop stop-color="#FFD569"/>
      <stop offset="0.515056" stop-color="#FC8E4F"/>
      <stop offset="1" stop-color="#FF697B"/>
    </linearGradient>
    <clipPath id="clip0_2995_8404">
      <rect width="64" height="64" fill="white"/>
    </clipPath>
  </defs>
</svg>