<svg width="20" height="20" viewBox="0 0 20 20" fill="none" xmlns="http://www.w3.org/2000/svg">
<path fill-rule="evenodd" clip-rule="evenodd" d="M1.05727 1.05727C1.57797 0.536573 2.42219 0.536573 2.94289 1.05727L10.0001 8.11446L17.0573 1.05727C17.578 0.536573 18.4222 0.536573 18.9429 1.05727C19.4636 1.57797 19.4636 2.42219 18.9429 2.94289L11.8857 10.0001L18.9429 17.0573C19.4636 17.578 19.4636 18.4222 18.9429 18.9429C18.4222 19.4636 17.578 19.4636 17.0573 18.9429L10.0001 11.8857L2.94289 18.9429C2.42219 19.4636 1.57797 19.4636 1.05727 18.9429C0.536573 18.4222 0.536573 17.578 1.05727 17.0573L8.11446 10.0001L1.05727 2.94289C0.536573 2.42219 0.536573 1.57797 1.05727 1.05727Z" fill="#777E91"/>
</svg>
