<svg width="100" height="50" viewBox="0 0 100 50" fill="none" xmlns="http://www.w3.org/2000/svg">
<path d="M25 1H75V-1H25V1ZM75 49H25V51H75V49ZM25 49C11.7452 49 1 38.2548 1 25H-1C-1 39.3594 10.6406 51 25 51V49ZM99 25C99 38.2548 88.2548 49 75 49V51C89.3594 51 101 39.3594 101 25H99ZM75 1C88.2548 1 99 11.7452 99 25H101C101 10.6406 89.3594 -1 75 -1V1ZM25 -1C10.6406 -1 -1 10.6406 -1 25H1C1 11.7452 11.7452 1 25 1V-1Z" fill="url(#paint0_linear_3603_10362)"/>
<defs>
<linearGradient id="paint0_linear_3603_10362" x1="3.3187e-06" y1="25" x2="69.1753" y2="71.1769" gradientUnits="userSpaceOnUse">
<stop stop-color="#5EE6D0"/>
<stop offset="0.515056" stop-color="#BFC6FF"/>
<stop offset="1" stop-color="#FFBA69"/>
</linearGradient>
</defs>
</svg>
