<svg width="101" height="12" viewBox="0 0 101 12" fill="none" xmlns="http://www.w3.org/2000/svg">
<path d="M7.31406 3.05469H7.39219L9.99375 12H11.3219L14.3922 0.726562H12.9234L10.6656 9.92969H10.6031L8.06406 0.726562H6.64219L4.10313 9.92969H4.04063L1.78281 0.726562H0.314064L3.38438 12H4.7125L7.31406 3.05469ZM25.6375 12V0.726562H24.2313V5.60156H18.0438V0.726562H16.6375V12H18.0438V6.86719H24.2313V12H25.6375ZM30.0313 12V0.726562H28.625V12H30.0313ZM37.2766 12V1.99219H40.8313V0.726562H32.3156V1.99219H35.8703V12H37.2766ZM50.1 10.7344H44.5219V6.85938H49.8109V5.60938H44.5219V1.99219H50.1V0.726562H43.1156V12H50.1V10.7344ZM52.7594 0.726562V12H54.1656V7.97656H56.7672C58.8844 7.97656 60.3922 6.48438 60.3922 4.34375C60.3922 2.21094 58.9 0.726562 56.7828 0.726562H52.7594ZM54.1656 1.97656H56.4156C58.0328 1.97656 58.9469 2.85156 58.9469 4.34375C58.9469 5.84375 58.025 6.72656 56.4156 6.72656H54.1656V1.97656ZM69.2781 12H70.7547L66.5984 0.726562H65.2078L61.0516 12H62.5281L63.6609 8.77344H68.1453L69.2781 12ZM65.8797 2.4375H65.9266L67.7313 7.57812H64.075L65.8797 2.4375ZM72.8438 0.726562V12H74.25V7.97656H76.8516C78.9688 7.97656 80.4766 6.48438 80.4766 4.34375C80.4766 2.21094 78.9844 0.726562 76.8672 0.726562H72.8438ZM74.25 1.97656H76.5C78.1172 1.97656 79.0312 2.85156 79.0312 4.34375C79.0312 5.84375 78.1094 6.72656 76.5 6.72656H74.25V1.97656ZM89.8781 10.7344H84.3V6.85938H89.5891V5.60938H84.3V1.99219H89.8781V0.726562H82.8938V12H89.8781V10.7344ZM93.9437 1.97656H96.5766C98.0297 1.97656 98.9047 2.78125 98.9047 4.13281C98.9047 5.51562 98.0844 6.29688 96.6391 6.29688H93.9437V1.97656ZM93.9437 7.53906H96.6391L99.0531 12H100.702L98.0922 7.32031C99.5062 6.875 100.358 5.65625 100.358 4.08594C100.358 2.05469 98.9359 0.726562 96.7641 0.726562H92.5375V12H93.9437V7.53906Z" fill="url(#paint0_linear_1803_330)"/>
<defs>
<linearGradient id="paint0_linear_1803_330" x1="-0.499997" y1="6" x2="33.3625" y2="54.0344" gradientUnits="userSpaceOnUse">
<stop stop-color="#5EE6D0"/>
<stop offset="0.515056" stop-color="#BFC6FF"/>
<stop offset="1" stop-color="#FFBA69"/>
</linearGradient>
</defs>
</svg>
