<svg width="24" height="25" viewBox="0 0 24 25" fill="none" xmlns="http://www.w3.org/2000/svg">
<path fill-rule="evenodd" clip-rule="evenodd" d="M5.16146 2.2854L5.64281 2.2854C6.72659 2.28539 7.60075 2.28538 8.30863 2.34322C9.03748 2.40277 9.67766 2.52858 10.27 2.83037C10.9535 3.17866 11.5442 3.67769 12 4.28539C12.4558 3.67769 13.0465 3.17866 13.73 2.83037C14.3223 2.52858 14.9625 2.40277 15.6914 2.34322C16.3993 2.28538 17.2734 2.28539 18.3572 2.2854L18.8385 2.2854C19.3657 2.28538 19.8205 2.28537 20.195 2.31597C20.5904 2.34827 20.9836 2.41959 21.362 2.61238C21.9265 2.9 22.3854 3.35895 22.673 3.92343C22.8658 4.30181 22.9371 4.69503 22.9694 5.09037C23 5.46494 23 5.9197 23 6.44684V15.124C23 15.6511 23 16.1059 22.9694 16.4804C22.9371 16.8758 22.8658 17.269 22.673 17.6474C22.3854 18.2119 21.9265 18.6708 21.362 18.9584C20.9836 19.1512 20.5904 19.2225 20.195 19.2548C19.8205 19.2854 19.3657 19.2854 18.8386 19.2854H17.4252C16.1106 19.2854 15.6617 19.2956 15.269 19.4149C14.8916 19.5295 14.5405 19.7173 14.2359 19.9678C13.9188 20.2284 13.6613 20.5962 12.9321 21.69L12.8321 21.8401C12.6466 22.1183 12.3344 22.2854 12 22.2854C11.6656 22.2854 11.3534 22.1183 11.168 21.8401L11.0679 21.69C10.3387 20.5962 10.0812 20.2284 9.76414 19.9678C9.45946 19.7173 9.10839 19.5295 8.73102 19.4149C8.3383 19.2956 7.88938 19.2854 6.57483 19.2854H5.16144C4.6343 19.2854 4.17954 19.2854 3.80497 19.2548C3.40963 19.2225 3.01641 19.1512 2.63803 18.9584C2.07354 18.6708 1.6146 18.2119 1.32698 17.6474C1.13419 17.269 1.06287 16.8758 1.03057 16.4804C0.999967 16.1059 0.999983 15.6511 1 15.1239V6.44686C0.999983 5.91971 0.999967 5.46495 1.03057 5.09037C1.06287 4.69503 1.13419 4.30181 1.32698 3.92343C1.6146 3.35894 2.07354 2.9 2.63803 2.61238C3.01641 2.41959 3.40963 2.34827 3.80497 2.31597C4.17955 2.28537 4.63431 2.28538 5.16146 2.2854ZM11 9.6854C11 8.5488 10.9992 7.75648 10.9488 7.13964C10.8994 6.53447 10.8072 6.18679 10.673 5.92343C10.3854 5.35894 9.92646 4.9 9.36197 4.61238C9.09862 4.4782 8.75093 4.38602 8.14576 4.33658C7.52892 4.28618 6.73661 4.2854 5.6 4.2854H5.2C4.62345 4.2854 4.25117 4.28618 3.96784 4.30933C3.69617 4.33153 3.59546 4.3692 3.54601 4.3944C3.35785 4.49027 3.20487 4.64325 3.109 4.83141C3.0838 4.88086 3.04612 4.98158 3.02393 5.25324C3.00078 5.53658 3 5.90885 3 6.4854V15.0854C3 15.662 3.00078 16.0342 3.02393 16.3176C3.04612 16.5892 3.0838 16.6899 3.109 16.7394C3.20487 16.9276 3.35785 17.0805 3.54601 17.1764C3.59546 17.2016 3.69617 17.2393 3.96784 17.2615C4.25117 17.2846 4.62345 17.2854 5.2 17.2854H6.57483C6.62469 17.2854 6.67388 17.2854 6.72242 17.2854C7.83207 17.285 8.59938 17.2847 9.31219 17.5012C9.92713 17.6879 10.5002 17.9914 11 18.3949V9.6854ZM13 18.3949C13.4998 17.9914 14.0729 17.6879 14.6878 17.5012C15.4006 17.2847 16.1679 17.285 17.2776 17.2854C17.3261 17.2854 17.3753 17.2854 17.4252 17.2854H18.8C19.3766 17.2854 19.7488 17.2846 20.0322 17.2615C20.3038 17.2393 20.4046 17.2016 20.454 17.1764C20.6422 17.0805 20.7951 16.9276 20.891 16.7394C20.9162 16.6899 20.9539 16.5892 20.9761 16.3176C20.9992 16.0342 21 15.662 21 15.0854V6.4854C21 5.90885 20.9992 5.53658 20.9761 5.25324C20.9539 4.98158 20.9162 4.88086 20.891 4.83141C20.7951 4.64325 20.6422 4.49027 20.454 4.3944C20.4046 4.3692 20.3038 4.33153 20.0322 4.30933C19.7488 4.28618 19.3766 4.2854 18.8 4.2854H18.4C17.2634 4.2854 16.4711 4.28618 15.8542 4.33658C15.2491 4.38602 14.9014 4.4782 14.638 4.61238C14.0735 4.9 13.6146 5.35894 13.327 5.92343C13.1928 6.18679 13.1006 6.53447 13.0512 7.13964C13.0008 7.75648 13 8.5488 13 9.6854V18.3949Z" fill="url(#paint0_linear_1156_6626)"/>
<defs>
<linearGradient id="paint0_linear_1156_6626" x1="16.3198" y1="18.0936" x2="11.7734" y2="5.06694" gradientUnits="userSpaceOnUse">
<stop stop-color="#FFD569"/>
<stop offset="0.515056" stop-color="#FC8E4F"/>
<stop offset="1" stop-color="#FF697B"/>
</linearGradient>
</defs>
</svg>
