<svg xmlns="http://www.w3.org/2000/svg" width="14" height="14" viewBox="0 0 14 14" fill="none">
<path fill-rule="evenodd" clip-rule="evenodd" d="M7.00033 11.666C9.57765 11.666 11.667 9.57668 11.667 6.99935C11.667 4.42202 9.57765 2.33268 7.00033 2.33268C4.423 2.33268 2.33366 4.42202 2.33366 6.99935C2.33366 9.57668 4.423 11.666 7.00033 11.666ZM7.00033 12.8327C10.222 12.8327 12.8337 10.221 12.8337 6.99935C12.8337 3.77769 10.222 1.16602 7.00033 1.16602C3.77866 1.16602 1.16699 3.77769 1.16699 6.99935C1.16699 10.221 3.77866 12.8327 7.00033 12.8327Z" fill="#9DA1AC"/>
<path fill-rule="evenodd" clip-rule="evenodd" d="M7.00033 3.5C7.32249 3.5 7.58366 3.76117 7.58366 4.08333V6.75838L8.87114 8.04585C9.09894 8.27366 9.09894 8.64301 8.87114 8.87081C8.64333 9.09862 8.27399 9.09862 8.04618 8.87081L6.58785 7.41248C6.47845 7.30308 6.41699 7.15471 6.41699 7V4.08333C6.41699 3.76117 6.67816 3.5 7.00033 3.5Z" fill="#9DA1AC"/>
</svg>