<svg width="24" height="25" viewBox="0 0 24 25" fill="none" xmlns="http://www.w3.org/2000/svg">
<g clip-path="url(#clip0_1156_6620)">
<path fill-rule="evenodd" clip-rule="evenodd" d="M3.05493 11.3994H7.05009C7.2743 8.63623 8.1991 5.98384 9.72571 3.68924C6.16881 4.61538 3.46801 7.66265 3.05493 11.3994ZM12 3.95021C10.3303 6.10135 9.30879 8.68624 9.05759 11.3994H14.9424C14.6912 8.68624 13.6697 6.10135 12 3.95021ZM14.9424 13.3994C14.6912 16.1126 13.6697 18.6975 12 20.8486C10.3303 18.6975 9.30879 16.1126 9.05759 13.3994H14.9424ZM7.05009 13.3994H3.05493C3.46801 17.1362 6.16881 20.1834 9.72571 21.1096C8.1991 18.815 7.2743 16.1626 7.05009 13.3994ZM14.2743 21.1096C15.8009 18.815 16.7257 16.1626 16.9499 13.3994H20.9451C20.532 17.1362 17.8312 20.1834 14.2743 21.1096ZM20.9451 11.3994H16.9499C16.7257 8.63623 15.8009 5.98384 14.2743 3.68924C17.8312 4.61538 20.532 7.66265 20.9451 11.3994ZM1 12.3994C1 6.32428 5.92487 1.39941 12 1.39941C18.0751 1.39941 23 6.32428 23 12.3994C23 18.4745 18.0751 23.3994 12 23.3994C5.92487 23.3994 1 18.4745 1 12.3994Z" fill="url(#paint0_linear_1156_6620)"/>
</g>
<defs>
<linearGradient id="paint0_linear_1156_6620" x1="16.3198" y1="18.7884" x2="10.9413" y2="4.77856" gradientUnits="userSpaceOnUse">
<stop stop-color="#FFD569"/>
<stop offset="0.515056" stop-color="#FC8E4F"/>
<stop offset="1" stop-color="#FF697B"/>
</linearGradient>
<clipPath id="clip0_1156_6620">
<rect width="22.4146" height="22.4146" fill="white" transform="translate(0.792725 1.39941)"/>
</clipPath>
</defs>
</svg>
