<svg width="16" height="17" viewBox="0 0 16 17" fill="none" xmlns="http://www.w3.org/2000/svg">
<path d="M4.89113 14.9001C3.09078 14.9001 1.41255 14.3765 0 13.473C1.1993 13.5506 3.3158 13.3647 4.63225 12.109C2.65187 12.0182 1.75875 10.4993 1.64226 9.8502C1.81053 9.91511 2.61304 9.993 3.06607 9.81125C0.787978 9.24006 0.438499 7.24087 0.516161 6.63073C0.943303 6.92931 1.66815 7.03316 1.95291 7.0072C-0.169854 5.48833 0.593823 3.20355 0.96919 2.71024C2.49256 4.82075 4.77563 6.00608 7.60007 6.07202C7.54682 5.83845 7.51869 5.59529 7.51869 5.34553C7.51869 3.55313 8.96746 2.1001 10.7546 2.1001C11.6884 2.1001 12.5298 2.49676 13.1204 3.13124C13.7444 2.98503 14.6834 2.64274 15.1425 2.34675C14.9111 3.17758 14.1907 3.87067 13.7549 4.12755C13.7514 4.11877 13.7586 4.13629 13.7549 4.12755C14.1377 4.06965 15.1734 3.8706 15.5826 3.593C15.3803 4.05975 14.6165 4.83581 13.9897 5.27028C14.1063 10.4135 10.1713 14.9001 4.89113 14.9001Z" fill="white" fill-opacity="0.45"/>
</svg>
