<svg width="20" height="20" viewBox="0 0 20 20" fill="none" xmlns="http://www.w3.org/2000/svg">
<g clip-path="url(#clip0_528_2993)">
<path d="M5.64047 4.3208C8.75569 4.3208 11.2809 6.86361 11.2809 10.0001C11.2809 13.1366 8.7555 15.6792 5.64047 15.6792C2.52544 15.6792 -0.00012207 13.1366 -0.00012207 10.0001C-0.00012207 6.86361 2.52525 4.3208 5.64047 4.3208ZM14.6481 4.65348C16.2057 4.65348 17.4684 7.047 17.4684 10.0001H17.4686C17.4686 12.9524 16.2059 15.3467 14.6483 15.3467C13.0907 15.3467 11.828 12.9524 11.828 10.0001C11.828 7.04777 13.0905 4.65348 14.6481 4.65348ZM19.0076 5.21037C19.5553 5.21037 19.9995 7.35477 19.9995 10.0001C19.9995 12.6447 19.5555 14.7898 19.0076 14.7898C18.4597 14.7898 18.0159 12.6452 18.0159 10.0001C18.0159 7.35496 18.4599 5.21037 19.0076 5.21037Z" fill="#574F43"/>
</g>
<defs>
<clipPath id="clip0_528_2993">
<rect width="20" height="20" fill="white"/>
</clipPath>
</defs>
</svg>
