<svg width="48" height="48" viewBox="0 0 48 48" fill="none" xmlns="http://www.w3.org/2000/svg">
<rect width="48" height="48" rx="8" fill="url(#paint0_linear_540_6975)"/>
<path fill-rule="evenodd" clip-rule="evenodd" d="M22.6369 34.5328C29.1744 34.5328 34.4738 29.2201 34.4738 22.6663C34.4738 16.1125 29.1744 10.7998 22.6369 10.7998C16.0994 10.7998 10.8 16.1125 10.8 22.6663C10.8 29.2201 16.0994 34.5328 22.6369 34.5328ZM22.6369 30.9728C27.213 30.9728 30.9228 27.2538 30.9228 22.6663C30.9228 18.0787 27.213 14.3597 22.6369 14.3597C18.0608 14.3597 14.3511 18.0787 14.3511 22.6663C14.3511 27.2538 18.0608 30.9728 22.6369 30.9728ZM16.7185 25.0396C16.2451 23.1409 17.3104 22.2707 17.9022 22.073C18.8492 26.3449 22.2424 28.204 23.8206 28.5995C20.8614 29.1928 17.3104 27.4129 16.7185 25.0396ZM33.5564 37.1731L29.7185 33.3256C31.1556 32.3671 32.2269 31.2041 32.945 30.2025L36.634 34.2088C37.411 35.0527 37.3849 36.361 36.5749 37.1731C35.7413 38.0087 34.39 38.0087 33.5564 37.1731Z" fill="white"/>
<defs>
<linearGradient id="paint0_linear_540_6975" x1="2.1" y1="-1.23214e-06" x2="46.2" y2="44.1" gradientUnits="userSpaceOnUse">
<stop stop-color="#35CFBE"/>
<stop offset="0.205854" stop-color="#A2CDF9"/>
<stop offset="0.636794" stop-color="#DFBFBD"/>
<stop offset="1" stop-color="#FFB658"/>
</linearGradient>
</defs>
</svg>
