<svg width="1728" height="900" viewBox="0 0 1728 900" fill="none" xmlns="http://www.w3.org/2000/svg">
<path d="M1856.5 180L-128.5 180" stroke="#A09672" stroke-opacity="0.25" stroke-dasharray="4 4"/>
<path d="M1856.5 360L-128.5 360" stroke="#A09672" stroke-opacity="0.25" stroke-dasharray="4 4"/>
<path d="M1856.5 540L-128.5 540" stroke="#A09672" stroke-opacity="0.25" stroke-dasharray="4 4"/>
<path d="M1856.5 720L-128.5 720" stroke="#A09672" stroke-opacity="0.25" stroke-dasharray="4 4"/>
<path d="M1856.5 900L-128.5 900" stroke="#A09672" stroke-opacity="0.25" stroke-dasharray="4 4"/>
<path d="M1676.05 1080L1676.05 3.59416e-05" stroke="#A09672" stroke-opacity="0.25" stroke-dasharray="4 4"/>
<path d="M1495.59 1080L1495.59 3.59416e-05" stroke="#A09672" stroke-opacity="0.25" stroke-dasharray="4 4"/>
<path d="M1315.14 1080L1315.14 3.59416e-05" stroke="#A09672" stroke-opacity="0.25" stroke-dasharray="4 4"/>
<path d="M1134.68 1080L1134.68 3.59416e-05" stroke="#A09672" stroke-opacity="0.25" stroke-dasharray="4 4"/>
<path d="M954.227 1080L954.227 3.59416e-05" stroke="#A09672" stroke-opacity="0.25" stroke-dasharray="4 4"/>
<path d="M773.773 1080L773.773 3.59416e-05" stroke="#A09672" stroke-opacity="0.25" stroke-dasharray="4 4"/>
<path d="M593.318 1080L593.318 3.59416e-05" stroke="#A09672" stroke-opacity="0.25" stroke-dasharray="4 4"/>
<path d="M412.864 1080L412.864 3.59416e-05" stroke="#A09672" stroke-opacity="0.25" stroke-dasharray="4 4"/>
<path d="M232.409 1080L232.409 3.59416e-05" stroke="#A09672" stroke-opacity="0.25" stroke-dasharray="4 4"/>
<path d="M51.9545 1080L51.9546 3.59416e-05" stroke="#A09672" stroke-opacity="0.25" stroke-dasharray="4 4"/>
<path d="M232 515V620" stroke="url(#paint0_linear_549_7801)"/>
<rect y="466" width="1728" height="434" fill="url(#paint1_linear_549_7801)"/>
<rect width="1728" height="434" transform="matrix(1 0 0 -1 0 434)" fill="url(#paint2_linear_549_7801)"/>
<defs>
<linearGradient id="paint0_linear_549_7801" x1="232.5" y1="515" x2="232.5" y2="620" gradientUnits="userSpaceOnUse">
<stop stop-color="#FD9552"/>
<stop offset="1" stop-color="#FD9552" stop-opacity="0"/>
</linearGradient>
<linearGradient id="paint1_linear_549_7801" x1="864" y1="466" x2="864" y2="900" gradientUnits="userSpaceOnUse">
<stop stop-color="#0C0A09" stop-opacity="0"/>
<stop offset="1" stop-color="#0C0A09"/>
</linearGradient>
<linearGradient id="paint2_linear_549_7801" x1="864" y1="0" x2="864" y2="434" gradientUnits="userSpaceOnUse">
<stop stop-color="#0C0A09" stop-opacity="0"/>
<stop offset="1" stop-color="#0C0A09"/>
</linearGradient>
</defs>
</svg>
