<svg width="215" height="157" viewBox="0 0 215 157" fill="none" xmlns="http://www.w3.org/2000/svg">
<g id="Group 427320523">
<path id="Vector" d="M106.262 25.9177L106.201 27.8484L182.999 28.8546L183.06 26.9216L106.262 25.9177Z" fill="url(#paint0_linear_540_6432)"/>
<path id="Vector_2" style="mix-blend-mode:lighten" opacity="0.65" d="M132.212 170.793C177.606 170.793 214.405 134.245 214.405 89.1609C214.405 44.0765 177.606 7.52844 132.212 7.52844C86.8185 7.52844 50.0195 44.0765 50.0195 89.1609C50.0195 134.245 86.8185 170.793 132.212 170.793Z" fill="url(#paint1_radial_540_6432)"/>
<path id="Vector_3" opacity="0.26" d="M39.2821 76.9559C60.4828 76.9559 77.6695 59.8864 77.6695 38.8302C77.6695 17.774 60.4828 0.70459 39.2821 0.70459C18.0813 0.70459 0.894714 17.774 0.894714 38.8302C0.894714 59.8864 18.0813 76.9559 39.2821 76.9559Z" fill="url(#paint2_radial_540_6432)"/>
<path id="Vector_4" d="M157.916 92.5085C157.838 92.7359 157.706 92.9411 157.53 93.1062C157.308 93.3091 157.049 93.4676 156.766 93.5731C155.669 94.0073 153.967 93.9746 152.209 93.3863C150.451 92.798 149.075 91.8058 148.464 90.7997C148.304 90.545 148.195 90.262 148.142 89.9662C148.104 89.7316 148.123 89.4914 148.199 89.2658C148.669 87.8838 151.221 87.4892 153.906 88.3857C156.59 89.2822 158.386 91.1078 157.916 92.5085Z" fill="url(#paint3_linear_540_6432)"/>
<path id="Vector_5" d="M157.916 92.5086L157.476 93.8113C157.006 95.1957 154.451 95.5902 151.767 94.6938C149.083 93.7973 147.301 91.9483 147.757 90.5639L148.199 89.2402C148.123 89.4658 148.104 89.706 148.142 89.9406C148.195 90.2364 148.304 90.5194 148.464 90.774C149.075 91.7802 150.451 92.7748 152.209 93.3607C153.967 93.9467 155.669 93.9817 156.767 93.5475C157.049 93.442 157.308 93.2835 157.53 93.0806C157.703 92.9228 157.835 92.7268 157.916 92.5086Z" fill="url(#paint4_linear_540_6432)"/>
<path id="Vector_6" d="M153.241 16.5212C152.556 15.4928 151.794 14.5166 150.963 13.6006C150.052 12.5838 149.015 11.6856 147.877 10.9276C146.18 9.81865 144.398 9.23035 142.562 9.23035C131.044 9.23035 121.703 32.3985 121.703 60.9734C121.703 89.5484 131.039 112.717 142.557 112.717C144.339 112.717 146.069 112.161 147.729 111.117C148.877 110.377 149.924 109.491 150.841 108.482C151.499 107.772 152.112 107.023 152.677 106.238C159.087 97.4089 163.423 80.4483 163.423 60.9734C163.421 42.0822 159.34 25.5512 153.241 16.5212ZM148.227 105.669C148.07 105.844 147.914 106.013 147.757 106.173C146.877 107.123 145.819 107.894 144.642 108.442C143.989 108.738 143.282 108.897 142.564 108.909C141.987 108.905 141.416 108.801 140.874 108.603C137.583 107.436 134.13 102.967 131.385 96.1529C127.624 86.8147 125.551 74.3295 125.551 60.9828C125.551 47.6361 127.624 35.1486 131.385 25.815C134.603 17.8285 138.785 13.059 142.564 13.059C142.758 13.0587 142.951 13.0712 143.143 13.0964C143.705 13.1683 144.253 13.3257 144.767 13.5633C145.932 14.135 146.978 14.919 147.851 15.8745C148.478 16.5338 149.057 17.2359 149.586 17.9756C151.066 20.0277 152.479 22.6704 153.744 25.808C157.505 35.1462 159.578 47.6315 159.578 60.9758C159.578 74.3201 157.507 86.8123 153.744 96.1459C152.094 100.231 150.197 103.481 148.227 105.669Z" fill="url(#paint5_linear_540_6432)"/>
<path id="Vector_7" d="M147.172 105.533C147.364 105.767 147.559 105.97 147.754 106.173C146.875 107.123 145.817 107.894 144.64 108.442C143.987 108.738 143.28 108.897 142.562 108.909C141.985 108.905 141.413 108.801 140.872 108.603C137.581 107.436 134.128 102.968 131.383 96.153C127.622 86.8147 125.549 74.3295 125.549 60.9829C125.549 47.6362 127.622 35.1487 131.383 25.8151C134.601 17.8286 138.782 13.0591 142.562 13.0591C142.755 13.0587 142.949 13.0712 143.14 13.0964C143.703 13.1683 144.25 13.3258 144.765 13.5634C145.929 14.1351 146.975 14.9191 147.849 15.8746C146.697 17.0872 145.686 18.4248 144.835 19.862C143.678 21.7915 142.68 23.8114 141.852 25.9015C138.091 35.2397 136.018 47.7226 136.018 61.0692C136.018 74.4159 138.091 86.9058 141.852 96.244C143.451 100.185 145.275 103.346 147.172 105.533Z" fill="url(#paint6_radial_540_6432)"/>
<path id="Vector_8" d="M173.898 61.0692C173.898 89.6465 164.559 112.812 153.041 112.812L142.562 112.717C144.344 112.717 146.074 112.161 147.733 111.117C148.882 110.377 149.928 109.491 150.845 108.482C151.504 107.772 152.117 107.023 152.681 106.238C159.091 97.4089 163.428 80.4483 163.428 60.9734C163.428 42.0822 159.348 25.5512 153.248 16.5212C152.563 15.4928 151.801 14.5166 150.97 13.6006C150.059 12.5838 149.022 11.6856 147.884 10.9276C146.187 9.81865 144.405 9.23035 142.569 9.23035L153.048 9.32606C164.559 9.32606 173.898 32.4919 173.898 61.0692Z" fill="url(#paint7_linear_540_6432)"/>
<path id="Vector_9" d="M151.779 32.3121C152.115 32.8918 152.251 33.565 152.167 34.2288C152.044 35.1847 151.729 36.1064 151.24 36.9392C149.524 40.0885 145.583 43.8588 140.399 46.9778C135.216 50.0967 130.029 51.8337 126.425 51.8944C125.456 51.9387 124.487 51.7903 123.576 51.4578C122.944 51.2262 122.405 50.7948 122.044 50.2298C120.116 47.0782 125.212 40.5087 133.423 35.5595C141.634 30.6102 149.844 29.1605 151.779 32.3121Z" fill="url(#paint8_linear_540_6432)"/>
<path id="Vector_10" d="M151.779 32.3121L153.701 35.4568C155.627 38.6108 150.533 45.1779 142.32 50.1271C134.107 55.0764 125.892 56.5332 123.964 53.3815L122.044 50.2345C122.405 50.7995 122.944 51.231 123.576 51.4625C124.487 51.795 125.456 51.9434 126.425 51.8991C130.029 51.8384 135.216 50.1061 140.399 46.9825C145.583 43.8588 149.524 40.0885 151.24 36.9439C151.729 36.1111 152.044 35.1894 152.167 34.2335C152.252 33.5681 152.116 32.8932 151.779 32.3121Z" fill="url(#paint9_radial_540_6432)"/>
<path id="Vector_11" style="mix-blend-mode:lighten" opacity="0.58" d="M132.015 80.7728L131.952 82.7198L209.321 83.7797L209.382 81.835L132.015 80.7728Z" fill="url(#paint10_linear_540_6432)"/>
<path id="Vector_12" d="M177.031 119.347C181.747 119.347 185.571 115.549 185.571 110.865C185.571 106.181 181.747 102.384 177.031 102.384C172.315 102.384 168.491 106.181 168.491 110.865C168.491 115.549 172.315 119.347 177.031 119.347Z" fill="url(#paint11_radial_540_6432)"/>
<path id="Vector_13" d="M111.53 16.5212C110.843 15.4939 110.082 14.5178 109.252 13.6006C108.34 12.5837 107.302 11.6855 106.163 10.9276C104.468 9.81865 102.687 9.23035 100.851 9.23035C89.3331 9.23035 79.9919 32.3985 79.9919 60.9734C79.9919 89.5484 89.3307 112.717 100.851 112.717C102.633 112.717 104.363 112.161 106.022 111.117C107.172 110.377 108.219 109.491 109.137 108.482C109.795 107.772 110.408 107.023 110.973 106.238C117.38 97.4089 121.717 80.4483 121.717 60.9734C121.703 42.0822 117.622 25.5512 111.53 16.5212ZM106.513 105.669C106.358 105.844 106.201 106.012 106.043 106.173C105.163 107.124 104.104 107.895 102.926 108.442C102.274 108.738 101.568 108.897 100.851 108.909C100.274 108.905 99.7021 108.802 99.1609 108.603C95.87 107.436 92.417 102.967 89.6716 96.1529C85.9106 86.8147 83.8374 74.3295 83.8374 60.9828C83.8374 47.6361 85.9083 35.1393 89.6692 25.8057C92.8871 17.8192 97.0665 13.0497 100.849 13.0497C101.042 13.0495 101.235 13.0619 101.427 13.087C101.988 13.1589 102.535 13.3164 103.049 13.5539C104.214 14.1244 105.261 14.9086 106.133 15.8652C106.76 16.5245 107.339 17.2265 107.867 17.9663C109.348 20.0183 110.761 22.661 112.028 25.7987C115.789 35.1369 117.862 47.6221 117.862 60.9664C117.862 74.3108 115.789 86.803 112.028 96.1366C110.378 100.231 108.474 103.481 106.509 105.669H106.513Z" fill="url(#paint12_linear_540_6432)"/>
<path id="Vector_14" d="M105.453 105.533C105.648 105.767 105.841 105.97 106.039 106.173C105.159 107.124 104.1 107.895 102.922 108.442C102.27 108.738 101.563 108.897 100.846 108.909C100.269 108.905 99.6974 108.802 99.1562 108.603C95.8653 107.436 92.4123 102.967 89.6669 96.1529C85.9059 86.8147 83.8327 74.3295 83.8327 60.9828C83.8327 47.6361 85.9083 35.1393 89.6692 25.8057C92.8872 17.8192 97.0665 13.0497 100.849 13.0497C101.042 13.0495 101.235 13.062 101.427 13.087C101.988 13.1589 102.535 13.3164 103.049 13.5539C104.214 14.1245 105.261 14.9086 106.133 15.8652C104.981 17.0778 103.97 18.4154 103.119 19.8526C101.967 21.7842 100.972 23.8046 100.146 25.8944C96.3848 35.2326 94.3116 47.7155 94.3116 61.0622C94.3116 74.4088 96.3825 86.9057 100.143 96.2439C101.735 100.185 103.559 103.346 105.453 105.533Z" fill="url(#paint13_radial_540_6432)"/>
<path id="Vector_15" d="M132.182 61.0692C132.182 89.6465 122.843 112.812 111.323 112.812L100.846 112.717C102.628 112.717 104.358 112.161 106.018 111.117C107.167 110.377 108.214 109.491 109.132 108.482C109.79 107.772 110.403 107.023 110.968 106.238C117.376 97.4089 121.712 80.4483 121.712 60.9734C121.712 42.0822 117.632 25.5512 111.534 16.5212C110.848 15.4939 110.086 14.5178 109.257 13.6006C108.345 12.5837 107.307 11.6855 106.168 10.9276C104.473 9.81865 102.691 9.23035 100.856 9.23035L111.332 9.32606C122.843 9.32606 132.182 32.4919 132.182 61.0692Z" fill="url(#paint14_linear_540_6432)"/>
<path id="Vector_16" d="M115.18 60.0911C115.477 61.1619 115.507 62.2886 115.267 63.3735C114.96 64.7303 114.388 66.0143 113.584 67.1531C110.528 71.6658 103.93 75.9544 95.6632 78.2703C87.3962 80.5861 79.5123 80.3503 74.5362 78.0858C73.2532 77.53 72.0909 76.7325 71.1137 75.7373C70.3421 74.9344 69.7775 73.958 69.4683 72.8914C67.6231 66.385 76.3602 58.2444 88.9781 54.7099C101.596 51.1754 113.335 53.5847 115.18 60.0911Z" fill="url(#paint15_linear_540_6432)"/>
<path id="Vector_17" d="M115.18 60.0911L116.92 66.2193C118.767 72.7257 110.028 80.8663 97.4097 84.4008C84.7917 87.9353 73.0553 85.5261 71.2077 79.0313L69.4542 72.8984C69.7634 73.965 70.328 74.9414 71.0996 75.7442C72.0768 76.7395 73.2391 77.537 74.522 78.0928C79.4982 80.3573 87.3821 80.5908 95.6491 78.2773C103.916 75.9637 110.517 71.6728 113.57 67.1601C114.374 66.0213 114.946 64.7373 115.253 63.3804C115.499 62.2945 115.474 61.1653 115.18 60.0911Z" fill="url(#paint16_radial_540_6432)"/>
<path id="Vector_18" d="M62.4259 35.828L62.3648 37.7587L139.163 38.7649L139.224 36.8319L62.4259 35.828Z" fill="url(#paint17_linear_540_6432)"/>
<path id="Vector_19" d="M37.672 16.8458C39.7828 16.8458 41.494 15.1462 41.494 13.0498C41.494 10.9533 39.7828 9.25378 37.672 9.25378C35.5611 9.25378 33.8499 10.9533 33.8499 13.0498C33.8499 15.1462 35.5611 16.8458 37.672 16.8458Z" fill="url(#paint18_radial_540_6432)"/>
<path id="Vector_20" d="M69.8068 16.5212C69.1216 15.4928 68.3603 14.5166 67.5291 13.6006C66.618 12.5838 65.581 11.6856 64.4428 10.9276C62.7456 9.81865 60.9639 9.23035 59.1281 9.23035C47.6102 9.23035 38.269 32.3985 38.269 60.9734C38.269 89.5484 47.6079 112.717 59.1281 112.717C60.9098 112.717 62.6399 112.161 64.2994 111.117C65.448 110.377 66.4943 109.491 67.4115 108.482C68.0698 107.772 68.6829 107.023 69.2473 106.238C75.6574 97.4089 79.9942 80.4483 79.9942 60.9734C79.9872 42.0822 75.9065 25.5512 69.8068 16.5212ZM64.7906 105.669C64.6355 105.844 64.478 106.012 64.3205 106.173C63.4404 107.124 62.3816 107.895 61.2037 108.442C60.5516 108.738 59.8449 108.897 59.1281 108.909C58.5512 108.905 57.9793 108.801 57.438 108.603C54.1472 107.436 50.6942 102.967 47.9487 96.1529C44.1878 86.8147 42.1146 74.3295 42.1146 60.9828C42.1146 47.6361 44.1878 35.1486 47.9487 25.815C51.1667 17.8285 55.346 13.059 59.1281 13.059C59.3215 13.0587 59.5146 13.0712 59.7063 13.0964C60.2686 13.1686 60.8164 13.3261 61.3306 13.5633C62.4948 14.1347 63.5402 14.9188 64.4122 15.8745C65.0406 16.5331 65.621 17.2353 66.1493 17.9756C67.6301 20.0277 69.0428 22.6704 70.3075 25.808C74.0684 35.1462 76.1416 47.6315 76.1416 60.9758C76.1416 74.3201 74.0684 86.8123 70.3075 96.1459C68.6597 100.231 66.7628 103.481 64.7906 105.669Z" fill="url(#paint19_linear_540_6432)"/>
<path id="Vector_21" d="M63.7352 105.533C63.9303 105.767 64.1254 105.97 64.3205 106.173C63.4404 107.124 62.3816 107.895 61.2037 108.442C60.5516 108.738 59.8449 108.897 59.1281 108.909C58.5512 108.905 57.9793 108.801 57.438 108.603C54.1472 107.436 50.6942 102.968 47.9487 96.153C44.1878 86.8147 42.1146 74.3295 42.1146 60.9829C42.1146 47.6362 44.1878 35.1487 47.9487 25.8151C51.1667 17.8286 55.346 13.0591 59.1281 13.0591C59.3215 13.0587 59.5146 13.0712 59.7063 13.0964C60.2686 13.1687 60.8164 13.3261 61.3306 13.5634C62.4948 14.1348 63.5402 14.9188 64.4122 15.8746C63.2618 17.0879 62.2518 18.4254 61.4011 19.862C60.2468 21.7926 59.2523 23.8132 58.4276 25.9038C54.6667 35.242 52.5911 47.7249 52.5911 61.0716C52.5911 74.4182 54.6643 86.9058 58.4276 96.244C60.0166 100.185 61.8407 103.346 63.7352 105.533Z" fill="url(#paint20_radial_540_6432)"/>
<path id="Vector_22" d="M90.4637 61.0692C90.4637 89.6465 81.1248 112.812 69.6046 112.812L59.1281 112.717C60.9098 112.717 62.6398 112.161 64.2993 111.117C65.448 110.377 66.4943 109.491 67.4115 108.482C68.0697 107.772 68.6828 107.023 69.2473 106.238C75.6573 97.4089 79.9942 80.4483 79.9942 60.9734C79.9942 42.0822 75.9136 25.5512 69.8138 16.5212C69.1264 15.4926 68.3627 14.5164 67.529 13.6006C66.618 12.5838 65.581 11.6856 64.4427 10.9276C62.7456 9.81865 60.9639 9.23035 59.1281 9.23035L69.6046 9.32606C81.1248 9.32606 90.4637 32.4919 90.4637 61.0692Z" fill="url(#paint21_linear_540_6432)"/>
<path id="Vector_23" d="M25.0729 37.803C24.9882 47.1622 31.6216 58.6739 39.8181 63.3851C44.1666 65.883 48.1156 65.9834 50.8799 64.1298C51.5466 63.6808 52.1369 63.1292 52.6287 62.4956C54.0391 60.7073 54.8547 58.144 54.8853 54.9246C54.9817 45.5584 48.346 34.0443 40.1424 29.3402C37.2136 27.6617 34.4611 27.0687 32.1364 27.4259C31.3683 27.5381 30.6222 27.7673 29.9245 28.1052C26.9862 29.5433 25.1152 32.9168 25.0729 37.803Z" fill="url(#paint22_linear_540_6432)"/>
<path id="Vector_24" d="M29.9292 28.1006C30.6269 27.7626 31.373 27.5335 32.1411 27.4213C34.4658 27.0641 37.2183 27.6547 40.1472 29.3356C48.3507 34.0397 54.9864 45.5538 54.8806 54.9223C54.8501 58.1417 54.025 60.705 52.6241 62.4933C52.1323 63.1269 51.5419 63.6785 50.8752 64.1275L55.2191 61.6038L55.3061 61.5525C57.9787 59.9953 59.6523 56.7246 59.697 52.1045C59.7933 42.7406 53.1553 31.2266 44.9518 26.5225C40.7889 24.1365 36.9903 23.9404 34.2495 25.5513L34.1461 25.6143L29.9292 28.1006Z" fill="url(#paint23_radial_540_6432)"/>
<path id="Vector_25" d="M29.3603 93.6805L29.2992 95.6136L106.097 96.6174L106.156 94.6844L29.3603 93.6805Z" fill="url(#paint24_linear_540_6432)"/>
<g id="Group" style="mix-blend-mode:lighten">
<path id="Vector_26" style="mix-blend-mode:color-dodge" d="M174.53 98.6813C175.662 98.6813 176.58 97.7699 176.58 96.6456C176.58 95.5213 175.662 94.6099 174.53 94.6099C173.398 94.6099 172.48 95.5213 172.48 96.6456C172.48 97.7699 173.398 98.6813 174.53 98.6813Z" fill="url(#paint25_radial_540_6432)"/>
</g>
<g id="Group_2" opacity="0.97">
<path id="Vector_27" style="mix-blend-mode:lighten" d="M37.1971 116.471C41.5383 116.471 45.0575 112.975 45.0575 108.664C45.0575 104.352 41.5383 100.857 37.1971 100.857C32.856 100.857 29.3368 104.352 29.3368 108.664C29.3368 112.975 32.856 116.471 37.1971 116.471Z" fill="url(#paint26_radial_540_6432)"/>
<path id="Vector_28" d="M37.1971 110.466C38.1993 110.466 39.0118 109.659 39.0118 108.664C39.0118 107.668 38.1993 106.862 37.1971 106.862C36.1949 106.862 35.3825 107.668 35.3825 108.664C35.3825 109.659 36.1949 110.466 37.1971 110.466Z" fill="#FFF2CC"/>
</g>
<g id="Group_3" opacity="0.43">
<path id="Vector_29" style="mix-blend-mode:lighten" d="M137.802 120.881C139.794 120.881 141.408 119.277 141.408 117.299C141.408 115.322 139.794 113.718 137.802 113.718C135.811 113.718 134.196 115.322 134.196 117.299C134.196 119.277 135.811 120.881 137.802 120.881Z" fill="url(#paint27_radial_540_6432)"/>
<path id="Vector_30" d="M137.802 118.126C138.262 118.126 138.634 117.756 138.634 117.299C138.634 116.843 138.262 116.473 137.802 116.473C137.343 116.473 136.97 116.843 136.97 117.299C136.97 117.756 137.343 118.126 137.802 118.126Z" fill="#F99F78"/>
</g>
<g id="Group_4" opacity="0.65">
<path id="Vector_31" style="mix-blend-mode:lighten" d="M167.159 14.0792C167.709 14.0792 168.155 13.636 168.155 13.0893C168.155 12.5427 167.709 12.0995 167.159 12.0995C166.608 12.0995 166.162 12.5427 166.162 13.0893C166.162 13.636 166.608 14.0792 167.159 14.0792Z" fill="url(#paint28_radial_540_6432)"/>
<path id="Vector_32" d="M167.158 13.3174C167.285 13.3174 167.388 13.2151 167.388 13.0889C167.388 12.9628 167.285 12.8605 167.158 12.8605C167.031 12.8605 166.928 12.9628 166.928 13.0889C166.928 13.2151 167.031 13.3174 167.158 13.3174Z" fill="#FFEBCB"/>
</g>
<g id="Group_5" opacity="0.65">
<path id="Vector_33" style="mix-blend-mode:lighten" d="M55.5058 79.4469C56.0563 79.4469 56.5025 79.0037 56.5025 78.457C56.5025 77.9103 56.0563 77.4672 55.5058 77.4672C54.9554 77.4672 54.5092 77.9103 54.5092 78.457C54.5092 79.0037 54.9554 79.4469 55.5058 79.4469Z" fill="url(#paint29_radial_540_6432)"/>
<path id="Vector_34" d="M55.5055 78.6851C55.6325 78.6851 55.7355 78.5828 55.7355 78.4566C55.7355 78.3304 55.6325 78.2281 55.5055 78.2281C55.3784 78.2281 55.2755 78.3304 55.2755 78.4566C55.2755 78.5828 55.3784 78.6851 55.5055 78.6851Z" fill="#FFEBCB"/>
</g>
</g>
<defs>
<linearGradient id="paint0_linear_540_6432" x1="183.24" y1="27.8654" x2="104.137" y2="25.4147" gradientUnits="userSpaceOnUse">
<stop offset="0.17" stop-color="#0A101B" stop-opacity="0"/>
<stop offset="0.21" stop-color="#13181F" stop-opacity="0.04"/>
<stop offset="0.28" stop-color="#2C2D2B" stop-opacity="0.14"/>
<stop offset="0.36" stop-color="#554F3F" stop-opacity="0.3"/>
<stop offset="0.46" stop-color="#8D7E5A" stop-opacity="0.53"/>
<stop offset="0.57" stop-color="#D4B97C" stop-opacity="0.82"/>
<stop offset="0.64" stop-color="#FFDE91"/>
<stop offset="0.7" stop-color="#FEDE96"/>
<stop offset="0.78" stop-color="#F9DDA6"/>
<stop offset="0.86" stop-color="#F2DBBF"/>
<stop offset="0.95" stop-color="#E8D9E2"/>
<stop offset="1" stop-color="#E3D8F5"/>
</linearGradient>
<radialGradient id="paint1_radial_540_6432" cx="0" cy="0" r="1" gradientUnits="userSpaceOnUse" gradientTransform="translate(132.212 89.1609) scale(82.1928 81.6324)">
<stop stop-color="#603A29"/>
<stop offset="0.09" stop-color="#553324" stop-opacity="0.88"/>
<stop offset="0.5" stop-color="#271811" stop-opacity="0.41"/>
<stop offset="0.82" stop-color="#0B0605" stop-opacity="0.11"/>
<stop offset="1" stop-opacity="0"/>
</radialGradient>
<radialGradient id="paint2_radial_540_6432" cx="0" cy="0" r="1" gradientUnits="userSpaceOnUse" gradientTransform="translate(39.2821 38.8302) scale(38.3874 38.1256)">
<stop stop-color="#FFDE91"/>
<stop offset="0.06" stop-color="#F8D28B"/>
<stop offset="0.16" stop-color="#E5B17C"/>
<stop offset="0.29" stop-color="#C67D64"/>
<stop offset="0.46" stop-color="#9C3442"/>
<stop offset="1" stop-opacity="0"/>
</radialGradient>
<linearGradient id="paint3_linear_540_6432" x1="156.983" y1="95.5808" x2="149.566" y2="86.5639" gradientUnits="userSpaceOnUse">
<stop stop-color="#AA3D47"/>
<stop offset="0.03" stop-color="#B1434C"/>
<stop offset="0.07" stop-color="#C35459"/>
<stop offset="0.11" stop-color="#E16F6F"/>
<stop offset="0.13" stop-color="#ED7977"/>
<stop offset="0.47" stop-color="#F7B286"/>
<stop offset="0.72" stop-color="#FFDE91"/>
<stop offset="1" stop-color="white"/>
</linearGradient>
<linearGradient id="paint4_linear_540_6432" x1="150.405" y1="87.9591" x2="154.97" y2="95.7141" gradientUnits="userSpaceOnUse">
<stop stop-color="white"/>
<stop offset="0.01" stop-color="#FFFDFA"/>
<stop offset="0.1" stop-color="#FFEDCD"/>
<stop offset="0.18" stop-color="#FFE2AC"/>
<stop offset="0.25" stop-color="#FFDB98"/>
<stop offset="0.29" stop-color="#FFD891"/>
<stop offset="0.6" stop-color="#927C53" stop-opacity="0.57"/>
<stop offset="1" stop-opacity="0"/>
</linearGradient>
<linearGradient id="paint5_linear_540_6432" x1="178.808" y1="104.443" x2="110.322" y2="21.1758" gradientUnits="userSpaceOnUse">
<stop stop-color="#AA3D47"/>
<stop offset="0.03" stop-color="#B1434C"/>
<stop offset="0.07" stop-color="#C35459"/>
<stop offset="0.11" stop-color="#E16F6F"/>
<stop offset="0.13" stop-color="#ED7977"/>
<stop offset="0.47" stop-color="#F7B286"/>
<stop offset="0.72" stop-color="#FFDE91"/>
<stop offset="1" stop-color="white"/>
</linearGradient>
<radialGradient id="paint6_radial_540_6432" cx="0" cy="0" r="1" gradientUnits="userSpaceOnUse" gradientTransform="translate(142.571 63.0499) scale(37.8185 69.1117)">
<stop stop-color="#D69C63"/>
<stop offset="0.06" stop-color="#C1835A"/>
<stop offset="0.16" stop-color="#A3604D"/>
<stop offset="0.27" stop-color="#8B4543"/>
<stop offset="0.37" stop-color="#7A323C"/>
<stop offset="0.47" stop-color="#702637"/>
<stop offset="0.58" stop-color="#6D2236"/>
<stop offset="0.68" stop-color="#641F31"/>
<stop offset="0.83" stop-color="#4C1723"/>
<stop offset="1" stop-color="#2B0B0F"/>
</radialGradient>
<linearGradient id="paint7_linear_540_6432" x1="140.705" y1="3.0251" x2="165.779" y2="114.803" gradientUnits="userSpaceOnUse">
<stop stop-color="#A23844"/>
<stop offset="0.04" stop-color="#A93D45"/>
<stop offset="0.11" stop-color="#BB4B4A"/>
<stop offset="0.12" stop-color="#C1504B"/>
<stop offset="0.24" stop-color="#C2534D"/>
<stop offset="0.34" stop-color="#C75E52"/>
<stop offset="0.44" stop-color="#CF705B"/>
<stop offset="0.53" stop-color="#DA8867"/>
<stop offset="0.61" stop-color="#E8A977"/>
<stop offset="0.7" stop-color="#F9CF8A"/>
<stop offset="0.73" stop-color="#FFDE91"/>
<stop offset="0.77" stop-color="#FDD68D"/>
<stop offset="0.84" stop-color="#F9BF81"/>
<stop offset="0.92" stop-color="#F29B6D"/>
<stop offset="0.95" stop-color="#EF8C65"/>
</linearGradient>
<linearGradient id="paint8_linear_540_6432" x1="123.922" y1="34.9124" x2="148.004" y2="46.8688" gradientUnits="userSpaceOnUse">
<stop offset="0.23" stop-color="#EC737E"/>
<stop offset="0.31" stop-color="#EC7977"/>
<stop offset="0.43" stop-color="#ED8A65"/>
<stop offset="0.44" stop-color="#ED8C63"/>
<stop offset="0.75" stop-color="#FFDF8F"/>
</linearGradient>
<radialGradient id="paint9_radial_540_6432" cx="0" cy="0" r="1" gradientUnits="userSpaceOnUse" gradientTransform="translate(138.09 43.5706) rotate(3.67484) scale(13.9856 13.891)">
<stop stop-color="#0A101B"/>
<stop offset="0.32" stop-color="#0C101B"/>
<stop offset="0.44" stop-color="#13101B"/>
<stop offset="0.52" stop-color="#1E101B"/>
<stop offset="0.59" stop-color="#2F111B"/>
<stop offset="0.64" stop-color="#44111B"/>
<stop offset="0.69" stop-color="#48171E"/>
<stop offset="0.76" stop-color="#552928"/>
<stop offset="0.84" stop-color="#6A4638"/>
<stop offset="0.93" stop-color="#866D4E"/>
<stop offset="1" stop-color="#A09162"/>
</radialGradient>
<linearGradient id="paint10_linear_540_6432" x1="210.134" y1="82.9162" x2="130.443" y2="80.4473" gradientUnits="userSpaceOnUse">
<stop offset="0.36" stop-color="#0A101B" stop-opacity="0"/>
<stop offset="0.42" stop-color="#0D131C" stop-opacity="0.01"/>
<stop offset="0.48" stop-color="#171B21" stop-opacity="0.05"/>
<stop offset="0.53" stop-color="#272829" stop-opacity="0.12"/>
<stop offset="0.58" stop-color="#3D3B34" stop-opacity="0.21"/>
<stop offset="0.62" stop-color="#5B5442" stop-opacity="0.33"/>
<stop offset="0.66" stop-color="#7F7253" stop-opacity="0.48"/>
<stop offset="0.71" stop-color="#AA9668" stop-opacity="0.65"/>
<stop offset="0.75" stop-color="#DABF7F" stop-opacity="0.85"/>
<stop offset="0.77" stop-color="#FFDE91"/>
<stop offset="0.81" stop-color="#FEDE96"/>
<stop offset="0.86" stop-color="#F9DDA6"/>
<stop offset="0.91" stop-color="#F2DBBF"/>
<stop offset="0.97" stop-color="#E8D9E2"/>
<stop offset="1" stop-color="#E3D8F5"/>
</linearGradient>
<radialGradient id="paint11_radial_540_6432" cx="0" cy="0" r="1" gradientUnits="userSpaceOnUse" gradientTransform="translate(185.399 117.633) rotate(69.9891) scale(20.0454 18.1705)">
<stop stop-color="#AA7A50"/>
<stop offset="0.8" stop-color="#1B0D0A"/>
<stop offset="0.83" stop-color="#1F100D"/>
<stop offset="0.85" stop-color="#2D1A17"/>
<stop offset="0.88" stop-color="#432A27"/>
<stop offset="0.91" stop-color="#61403D"/>
<stop offset="0.94" stop-color="#895D5A"/>
<stop offset="0.97" stop-color="#B9807D"/>
<stop offset="0.99" stop-color="#F1A9A6"/>
<stop offset="1" stop-color="#FFB3B0"/>
</radialGradient>
<linearGradient id="paint12_linear_540_6432" x1="137.09" y1="104.443" x2="68.6035" y2="21.1759" gradientUnits="userSpaceOnUse">
<stop stop-color="#AA3D47"/>
<stop offset="0.03" stop-color="#B1434C"/>
<stop offset="0.07" stop-color="#C35459"/>
<stop offset="0.11" stop-color="#E16F6F"/>
<stop offset="0.13" stop-color="#ED7977"/>
<stop offset="0.47" stop-color="#F7B286"/>
<stop offset="0.72" stop-color="#FFDE91"/>
<stop offset="1" stop-color="white"/>
</linearGradient>
<radialGradient id="paint13_radial_540_6432" cx="0" cy="0" r="1" gradientUnits="userSpaceOnUse" gradientTransform="translate(100.853 63.0498) scale(37.8185 69.1116)">
<stop stop-color="#D69C63"/>
<stop offset="0.06" stop-color="#C1835A"/>
<stop offset="0.16" stop-color="#A3604D"/>
<stop offset="0.27" stop-color="#8B4543"/>
<stop offset="0.37" stop-color="#7A323C"/>
<stop offset="0.47" stop-color="#702637"/>
<stop offset="0.58" stop-color="#6D2236"/>
<stop offset="0.68" stop-color="#641F31"/>
<stop offset="0.83" stop-color="#4C1723"/>
<stop offset="1" stop-color="#2B0B0F"/>
</radialGradient>
<linearGradient id="paint14_linear_540_6432" x1="98.9869" y1="3.0251" x2="124.061" y2="114.803" gradientUnits="userSpaceOnUse">
<stop stop-color="#A23844"/>
<stop offset="0.04" stop-color="#A93D45"/>
<stop offset="0.11" stop-color="#BB4B4A"/>
<stop offset="0.12" stop-color="#C1504B"/>
<stop offset="0.24" stop-color="#C2534D"/>
<stop offset="0.34" stop-color="#C75E52"/>
<stop offset="0.44" stop-color="#CF705B"/>
<stop offset="0.53" stop-color="#DA8867"/>
<stop offset="0.61" stop-color="#E8A977"/>
<stop offset="0.7" stop-color="#F9CF8A"/>
<stop offset="0.73" stop-color="#FFDE91"/>
<stop offset="0.77" stop-color="#FDD68D"/>
<stop offset="0.84" stop-color="#F9BF81"/>
<stop offset="0.92" stop-color="#F29B6D"/>
<stop offset="0.95" stop-color="#EF8C65"/>
</linearGradient>
<linearGradient id="paint15_linear_540_6432" x1="92.1686" y1="87.536" x2="92.5505" y2="34.5962" gradientUnits="userSpaceOnUse">
<stop stop-color="#EC737E"/>
<stop offset="0.12" stop-color="#ED7A7F"/>
<stop offset="0.29" stop-color="#F08C82"/>
<stop offset="0.48" stop-color="#F6AB87"/>
<stop offset="0.7" stop-color="#FDD58D"/>
<stop offset="0.75" stop-color="#FFDF8F"/>
</linearGradient>
<radialGradient id="paint16_radial_540_6432" cx="0" cy="0" r="1" gradientUnits="userSpaceOnUse" gradientTransform="translate(55.9109 65.1887) rotate(-105.103) scale(92.881 59.8116)">
<stop stop-color="#BF504B"/>
<stop offset="0.33" stop-color="#984356"/>
<stop offset="0.74" stop-color="#6D3561"/>
<stop offset="0.94" stop-color="#5C2F66"/>
</radialGradient>
<linearGradient id="paint17_linear_540_6432" x1="139.404" y1="37.7757" x2="60.3006" y2="35.325" gradientUnits="userSpaceOnUse">
<stop offset="0.17" stop-color="#0A101B" stop-opacity="0"/>
<stop offset="0.21" stop-color="#13181F" stop-opacity="0.04"/>
<stop offset="0.28" stop-color="#2C2D2B" stop-opacity="0.14"/>
<stop offset="0.36" stop-color="#554F3F" stop-opacity="0.3"/>
<stop offset="0.46" stop-color="#8D7E5A" stop-opacity="0.53"/>
<stop offset="0.57" stop-color="#D4B97C" stop-opacity="0.82"/>
<stop offset="0.64" stop-color="#FFDE91"/>
<stop offset="0.7" stop-color="#FEDE96"/>
<stop offset="0.78" stop-color="#F9DDA6"/>
<stop offset="0.86" stop-color="#F2DBBF"/>
<stop offset="0.95" stop-color="#E8D9E2"/>
<stop offset="1" stop-color="#E3D8F5"/>
</linearGradient>
<radialGradient id="paint18_radial_540_6432" cx="0" cy="0" r="1" gradientUnits="userSpaceOnUse" gradientTransform="translate(35.2621 7.42746) rotate(118.776) scale(8.68395 8.32742)">
<stop offset="0.65" stop-color="#C47E34"/>
<stop offset="0.71" stop-color="#C58038"/>
<stop offset="0.76" stop-color="#C88843"/>
<stop offset="0.81" stop-color="#CE9555"/>
<stop offset="0.87" stop-color="#D5A770"/>
<stop offset="0.92" stop-color="#DFBE91"/>
<stop offset="0.97" stop-color="#EBDABA"/>
<stop offset="1" stop-color="#F5F1DC"/>
</radialGradient>
<linearGradient id="paint19_linear_540_6432" x1="95.3717" y1="104.443" x2="26.8877" y2="21.1759" gradientUnits="userSpaceOnUse">
<stop stop-color="#AA3D47"/>
<stop offset="0.03" stop-color="#B1434C"/>
<stop offset="0.07" stop-color="#C35459"/>
<stop offset="0.11" stop-color="#E16F6F"/>
<stop offset="0.13" stop-color="#ED7977"/>
<stop offset="0.47" stop-color="#F7B286"/>
<stop offset="0.72" stop-color="#FFDE91"/>
<stop offset="1" stop-color="white"/>
</linearGradient>
<radialGradient id="paint20_radial_540_6432" cx="0" cy="0" r="1" gradientUnits="userSpaceOnUse" gradientTransform="translate(59.1375 63.0499) scale(37.8185 69.1117)">
<stop stop-color="#D69C63"/>
<stop offset="0.06" stop-color="#C1835A"/>
<stop offset="0.16" stop-color="#A3604D"/>
<stop offset="0.27" stop-color="#8B4543"/>
<stop offset="0.37" stop-color="#7A323C"/>
<stop offset="0.47" stop-color="#702637"/>
<stop offset="0.58" stop-color="#6D2236"/>
<stop offset="0.68" stop-color="#641F31"/>
<stop offset="0.83" stop-color="#4C1723"/>
<stop offset="1" stop-color="#2B0B0F"/>
</radialGradient>
<linearGradient id="paint21_linear_540_6432" x1="57.2711" y1="3.0251" x2="82.3452" y2="114.803" gradientUnits="userSpaceOnUse">
<stop stop-color="#A23844"/>
<stop offset="0.04" stop-color="#A93D45"/>
<stop offset="0.11" stop-color="#BB4B4A"/>
<stop offset="0.12" stop-color="#C1504B"/>
<stop offset="0.24" stop-color="#C2534D"/>
<stop offset="0.34" stop-color="#C75E52"/>
<stop offset="0.44" stop-color="#CF705B"/>
<stop offset="0.53" stop-color="#DA8867"/>
<stop offset="0.61" stop-color="#E8A977"/>
<stop offset="0.7" stop-color="#F9CF8A"/>
<stop offset="0.73" stop-color="#FFDE91"/>
<stop offset="0.77" stop-color="#FDD68D"/>
<stop offset="0.84" stop-color="#F9BF81"/>
<stop offset="0.92" stop-color="#F29B6D"/>
<stop offset="0.95" stop-color="#EF8C65"/>
</linearGradient>
<linearGradient id="paint22_linear_540_6432" x1="17.6568" y1="37.1586" x2="59.0537" y2="54.4598" gradientUnits="userSpaceOnUse">
<stop offset="0.23" stop-color="#EC737E"/>
<stop offset="0.31" stop-color="#EC7977"/>
<stop offset="0.43" stop-color="#ED8A65"/>
<stop offset="0.44" stop-color="#ED8C63"/>
<stop offset="0.75" stop-color="#FFDF8F"/>
</linearGradient>
<radialGradient id="paint23_radial_540_6432" cx="0" cy="0" r="1" gradientUnits="userSpaceOnUse" gradientTransform="translate(21.7005 55.5896) rotate(-130.033) scale(66.6127 43.3504)">
<stop stop-color="#EAD08F"/>
<stop offset="0.06" stop-color="#E0B17F"/>
<stop offset="0.15" stop-color="#D48E6C"/>
<stop offset="0.24" stop-color="#CB735E"/>
<stop offset="0.33" stop-color="#C46053"/>
<stop offset="0.41" stop-color="#C0544D"/>
<stop offset="0.51" stop-color="#BF504B"/>
<stop offset="0.76" stop-color="#A23545"/>
<stop offset="0.94" stop-color="#912642"/>
</radialGradient>
<linearGradient id="paint24_linear_540_6432" x1="106.338" y1="95.5855" x2="27.2345" y2="93.1348" gradientUnits="userSpaceOnUse">
<stop offset="0.36" stop-color="#0A101B" stop-opacity="0"/>
<stop offset="0.42" stop-color="#0D131C" stop-opacity="0.01"/>
<stop offset="0.48" stop-color="#171B21" stop-opacity="0.05"/>
<stop offset="0.53" stop-color="#272829" stop-opacity="0.12"/>
<stop offset="0.58" stop-color="#3D3B34" stop-opacity="0.21"/>
<stop offset="0.62" stop-color="#5B5442" stop-opacity="0.33"/>
<stop offset="0.66" stop-color="#7F7253" stop-opacity="0.48"/>
<stop offset="0.71" stop-color="#AA9668" stop-opacity="0.65"/>
<stop offset="0.75" stop-color="#DABF7F" stop-opacity="0.85"/>
<stop offset="0.77" stop-color="#FFDE91"/>
<stop offset="0.81" stop-color="#FEDE96"/>
<stop offset="0.86" stop-color="#F9DDA6"/>
<stop offset="0.91" stop-color="#F2DBBF"/>
<stop offset="0.97" stop-color="#E8D9E2"/>
<stop offset="1" stop-color="#E3D8F5"/>
</linearGradient>
<radialGradient id="paint25_radial_540_6432" cx="0" cy="0" r="1" gradientUnits="userSpaceOnUse" gradientTransform="translate(174.53 96.6456) scale(2.04971 2.03573)">
<stop stop-color="#FFCD8A"/>
<stop offset="0.04" stop-color="#F9CB90" stop-opacity="0.92"/>
<stop offset="0.13" stop-color="#ECC89B" stop-opacity="0.77"/>
<stop offset="0.21" stop-color="#E3C5A4" stop-opacity="0.65"/>
<stop offset="0.29" stop-color="#DCC4AB" stop-opacity="0.57"/>
<stop offset="0.36" stop-color="#D7C2AF" stop-opacity="0.52"/>
<stop offset="0.42" stop-color="#D6C2B0" stop-opacity="0.5"/>
<stop offset="0.51" stop-color="#C7B5A4" stop-opacity="0.47"/>
<stop offset="0.65" stop-color="#9F9083" stop-opacity="0.37"/>
<stop offset="0.81" stop-color="#5D554D" stop-opacity="0.22"/>
<stop offset="1" stop-opacity="0"/>
</radialGradient>
<radialGradient id="paint26_radial_540_6432" cx="0" cy="0" r="1" gradientUnits="userSpaceOnUse" gradientTransform="translate(37.2119 108.683) rotate(100.389) scale(7.80848 7.85861)">
<stop offset="0.15" stop-color="#ED915F"/>
<stop offset="0.18" stop-color="#DA8558"/>
<stop offset="0.26" stop-color="#A96847"/>
<stop offset="0.35" stop-color="#7E4E37"/>
<stop offset="0.44" stop-color="#59382A"/>
<stop offset="0.53" stop-color="#3B2520"/>
<stop offset="0.63" stop-color="#241817"/>
<stop offset="0.73" stop-color="#140E12"/>
<stop offset="0.85" stop-color="#0A080E"/>
<stop offset="1" stop-color="#07060D"/>
</radialGradient>
<radialGradient id="paint27_radial_540_6432" cx="0" cy="0" r="1" gradientUnits="userSpaceOnUse" gradientTransform="translate(137.818 117.313) rotate(100.389) scale(3.582 3.605)">
<stop offset="0.15" stop-color="#FF946E"/>
<stop offset="0.2" stop-color="#DA7F60"/>
<stop offset="0.28" stop-color="#A9634C"/>
<stop offset="0.37" stop-color="#7E4A3B"/>
<stop offset="0.45" stop-color="#59352D"/>
<stop offset="0.54" stop-color="#3B2421"/>
<stop offset="0.64" stop-color="#241718"/>
<stop offset="0.74" stop-color="#140D12"/>
<stop offset="0.85" stop-color="#0A080E"/>
<stop offset="1" stop-color="#07060D"/>
</radialGradient>
<radialGradient id="paint28_radial_540_6432" cx="0" cy="0" r="1" gradientUnits="userSpaceOnUse" gradientTransform="translate(167.169 13.1029) rotate(100.389) scale(0.990071 0.996425)">
<stop offset="0.15" stop-color="#D3A96C" stop-opacity="0.8"/>
<stop offset="0.16" stop-color="#D1A86B" stop-opacity="0.8"/>
<stop offset="0.25" stop-color="#9C7D52" stop-opacity="0.85"/>
<stop offset="0.35" stop-color="#6E593D" stop-opacity="0.9"/>
<stop offset="0.46" stop-color="#493A2C" stop-opacity="0.94"/>
<stop offset="0.57" stop-color="#2C231E" stop-opacity="0.96"/>
<stop offset="0.69" stop-color="#171314" stop-opacity="0.98"/>
<stop offset="0.83" stop-color="#0B090F"/>
<stop offset="1" stop-color="#07060D"/>
</radialGradient>
<radialGradient id="paint29_radial_540_6432" cx="0" cy="0" r="1" gradientUnits="userSpaceOnUse" gradientTransform="translate(55.5185 78.4771) rotate(100.389) scale(0.990072 0.996428)">
<stop offset="0.15" stop-color="#D3A96C" stop-opacity="0.8"/>
<stop offset="0.16" stop-color="#D1A86B" stop-opacity="0.8"/>
<stop offset="0.25" stop-color="#9C7D52" stop-opacity="0.85"/>
<stop offset="0.35" stop-color="#6E593D" stop-opacity="0.9"/>
<stop offset="0.46" stop-color="#493A2C" stop-opacity="0.94"/>
<stop offset="0.57" stop-color="#2C231E" stop-opacity="0.96"/>
<stop offset="0.69" stop-color="#171314" stop-opacity="0.98"/>
<stop offset="0.83" stop-color="#0B090F"/>
<stop offset="1" stop-color="#07060D"/>
</radialGradient>
</defs>
</svg>
