<svg width="26" height="22" viewBox="0 0 26 22" fill="none" xmlns="http://www.w3.org/2000/svg">
<path d="M23.3288 5.48277C23.346 5.72397 23.346 5.96379 23.346 6.20361C23.346 13.5429 17.9838 22 8.18421 22C5.16507 22 2.36027 21.089 0 19.5067C0.428659 19.5577 0.841441 19.5756 1.2873 19.5756C3.77855 19.5756 6.07134 18.699 7.90372 17.2036C5.56066 17.1526 3.59729 15.5538 2.91991 13.3541C3.24934 13.4051 3.58009 13.4395 3.92672 13.4395C4.40434 13.4395 4.88459 13.3706 5.33045 13.2507C2.88683 12.7352 1.05709 10.5011 1.05709 7.80241V7.73349C1.76756 8.1456 2.5918 8.40333 3.46499 8.43779C2.02951 7.44268 1.08885 5.74051 1.08885 3.81506C1.08885 2.78411 1.35213 1.83862 1.81386 1.01441C4.43741 4.38153 8.38134 6.58263 12.8029 6.82383C12.7208 6.41035 12.6706 5.98171 12.6706 5.55168C12.6706 2.49192 15.0467 0 17.9997 0C19.5344 0 20.9196 0.669841 21.8933 1.75316C23.0973 1.51197 24.251 1.04749 25.275 0.412103C24.8794 1.70079 24.0366 2.78411 22.9319 3.47187C24.0049 3.35058 25.0448 3.04185 26 2.61183C25.275 3.71169 24.3687 4.69164 23.3288 5.48277Z" fill="white"/>
</svg>
