<svg width="34" height="34" viewBox="0 0 34 34" fill="none" xmlns="http://www.w3.org/2000/svg">
<g filter="url(#filter0_d_824_4596)">
<rect x="4" width="25.9995" height="26" rx="12.9998" fill="white"/>
<path d="M13.134 20H10.2315V10.653H13.134V20ZM11.681 9.378C10.753 9.378 10 8.609 10 7.681C10 7.23517 10.1771 6.8076 10.4924 6.49235C10.8076 6.1771 11.2352 6 11.681 6C12.1268 6 12.5544 6.1771 12.8696 6.49235C13.1849 6.8076 13.362 7.23517 13.362 7.681C13.362 8.609 12.609 9.378 11.681 9.378ZM23.997 20H21.101V15.45C21.101 14.3655 21.079 12.975 19.592 12.975C18.083 12.975 17.8515 14.153 17.8515 15.372V20H14.952V10.653H17.7355V11.928H17.776C18.1635 11.1935 19.11 10.4185 20.522 10.4185C23.4595 10.4185 23.9995 12.353 23.9995 14.8655V20H23.997Z" fill="#1074B0"/>
</g>
<defs>
<filter id="filter0_d_824_4596" x="0" y="0" width="33.9995" height="34" filterUnits="userSpaceOnUse" color-interpolation-filters="sRGB">
<feFlood flood-opacity="0" result="BackgroundImageFix"/>
<feColorMatrix in="SourceAlpha" type="matrix" values="0 0 0 0 0 0 0 0 0 0 0 0 0 0 0 0 0 0 127 0" result="hardAlpha"/>
<feOffset dy="4"/>
<feGaussianBlur stdDeviation="2"/>
<feComposite in2="hardAlpha" operator="out"/>
<feColorMatrix type="matrix" values="0 0 0 0 0 0 0 0 0 0 0 0 0 0 0 0 0 0 0.11 0"/>
<feBlend mode="normal" in2="BackgroundImageFix" result="effect1_dropShadow_824_4596"/>
<feBlend mode="normal" in="SourceGraphic" in2="effect1_dropShadow_824_4596" result="shape"/>
</filter>
</defs>
</svg>
