<svg width="22" height="12" viewBox="0 0 22 12" fill="none" xmlns="http://www.w3.org/2000/svg">
<path d="M1.66659 0.666748C0.930206 0.666748 0.333252 1.2637 0.333252 2.00008C0.333252 2.73646 0.930206 3.33341 1.66659 3.33341H20.3333C21.0696 3.33341 21.6666 2.73646 21.6666 2.00008C21.6666 1.2637 21.0696 0.666748 20.3333 0.666748H1.66659Z" fill="url(#paint0_linear_1783_878)"/>
<path d="M1.66659 8.66675C0.930206 8.66675 0.333252 9.2637 0.333252 10.0001C0.333252 10.7365 0.930206 11.3334 1.66659 11.3334H20.3333C21.0696 11.3334 21.6666 10.7365 21.6666 10.0001C21.6666 9.2637 21.0696 8.66675 20.3333 8.66675H1.66659Z" fill="url(#paint1_linear_1783_878)"/>
<defs>
<linearGradient id="paint0_linear_1783_878" x1="0.333253" y1="6.00008" x2="15.0906" y2="15.8512" gradientUnits="userSpaceOnUse">
<stop stop-color="#5EE6D0"/>
<stop offset="0.515056" stop-color="#BFC6FF"/>
<stop offset="1" stop-color="#FFBA69"/>
</linearGradient>
<linearGradient id="paint1_linear_1783_878" x1="0.333253" y1="6.00008" x2="15.0906" y2="15.8512" gradientUnits="userSpaceOnUse">
<stop stop-color="#5EE6D0"/>
<stop offset="0.515056" stop-color="#BFC6FF"/>
<stop offset="1" stop-color="#FFBA69"/>
</linearGradient>
</defs>
</svg>
