<svg width="96" height="29" viewBox="0 0 96 29" fill="none" xmlns="http://www.w3.org/2000/svg">
<g clip-path="url(#clip0_933_1953)">
<path fill-rule="evenodd" clip-rule="evenodd" d="M20.4329 7.85417C20.9984 7.85417 21.5214 8.15527 21.8176 8.64711L21.8424 8.68973L32.1973 27.0941C32.443 27.5301 32.147 28.0724 31.6636 28.0931L31.6349 28.0938H26.7283C26.1691 28.0938 25.6496 27.7954 25.3562 27.3084L25.3316 27.2662L17.606 13.5354C17.4323 13.2265 17.0539 13.1146 16.7474 13.2757L16.7189 13.2916L16.6911 13.3089C16.4015 13.5 16.3068 13.893 16.4812 14.2026C16.4812 14.2026 18.1465 17.1625 19.9399 20.3498L20.057 20.5579C20.0961 20.6274 20.1352 20.6969 20.1744 20.7666L20.2919 20.9755C20.3311 21.0452 20.3704 21.1149 20.4096 21.1846L20.6056 21.5329C21.8457 23.7371 23.0568 25.8894 23.7373 27.0985C23.983 27.5338 23.6842 28.0726 23.2007 28.0931L23.172 28.0938H17.5161C16.9506 28.0938 16.4269 27.7926 16.1313 27.3008L16.1065 27.2582L13.0926 21.9028C12.8476 21.468 12.2439 21.4585 11.984 21.8744L11.9671 21.9028L8.95252 27.2611C8.67081 27.7623 8.15637 28.076 7.5948 28.093L7.54656 28.0938H1.51661C1.02664 28.0938 0.716527 27.5598 0.940436 27.1199L0.954225 27.0941L11.3113 8.6868C11.593 8.18629 12.1074 7.87198 12.669 7.8549L12.7172 7.85417H20.4329ZM62.539 23.7909C62.7638 23.7909 62.9849 23.8199 63.2024 23.8779C63.4199 23.9359 63.6066 24.0193 63.7625 24.128L63.583 24.563L63.5227 24.5261C63.3808 24.4426 63.2305 24.3779 63.0719 24.3319C62.8907 24.2793 62.713 24.2531 62.539 24.2531C62.2309 24.2531 61.9998 24.3093 61.8458 24.4216C61.6917 24.534 61.6147 24.679 61.6147 24.8566C61.6147 24.9871 61.6582 25.0932 61.7452 25.1747C61.8322 25.2563 61.94 25.3197 62.0687 25.365C62.1974 25.4103 62.3723 25.4584 62.5934 25.5091C62.8798 25.578 63.11 25.6469 63.284 25.7157C63.458 25.7846 63.6075 25.8897 63.7326 26.0311C63.8576 26.1725 63.9202 26.3628 63.9202 26.6021C63.9202 26.8014 63.8658 26.9836 63.757 27.1485C63.6483 27.3135 63.4834 27.444 63.2622 27.54C63.0411 27.6361 62.7692 27.6841 62.4466 27.6841C62.1602 27.6841 61.8838 27.6397 61.6174 27.5509C61.351 27.4621 61.1416 27.347 60.9894 27.2056L61.1905 26.7815L61.2311 26.8165C61.3697 26.9311 61.5419 27.0254 61.7479 27.0996C61.9745 27.1812 62.2074 27.2219 62.4466 27.2219C62.762 27.2219 62.9976 27.1685 63.1535 27.0615C63.3094 26.9546 63.3873 26.8123 63.3873 26.6347C63.3873 26.5042 63.3447 26.3982 63.2595 26.3166C63.1743 26.235 63.0692 26.1725 62.9441 26.129C62.8191 26.0855 62.6424 26.0366 62.414 25.9822C62.1276 25.9133 61.8965 25.8444 61.7207 25.7756C61.5449 25.7067 61.3945 25.6007 61.2694 25.4575C61.1443 25.3143 61.0818 25.1213 61.0818 24.8784C61.0818 24.6754 61.1353 24.4923 61.2422 24.3292C61.3491 24.1661 61.5114 24.0356 61.7289 23.9377C61.9464 23.8398 62.2164 23.7909 62.539 23.7909ZM82.3393 23.8344V25.9767L82.3397 26.0243C82.3534 26.8082 82.7104 27.2002 83.4105 27.2002C83.7585 27.2002 84.0249 27.0996 84.2098 26.8984C84.3947 26.6972 84.4871 26.39 84.4871 25.9767V23.8344H85.0145V25.9985L85.0139 26.0611C85.0035 26.5778 84.8623 26.9747 84.5904 27.2518C84.3077 27.54 83.9125 27.6841 83.405 27.6841C82.8975 27.6841 82.5024 27.5391 82.2197 27.2491C81.9369 26.9591 81.7955 26.5423 81.7955 25.9985V23.8344H82.3393ZM86.7948 23.8344L89.0786 26.6728V23.8344H89.6223V27.6406H89.1764L86.8927 24.8022V27.6406H86.3489V23.8344H86.7948ZM73.785 23.8344L73.8487 23.835C74.3115 23.8448 74.6781 23.9624 74.9486 24.1878C75.2313 24.4234 75.3727 24.7479 75.3727 25.1611C75.3727 25.4548 75.3002 25.7049 75.1552 25.9115C75.0102 26.1181 74.8036 26.2686 74.5353 26.3628L75.438 27.6406H74.8453L74.0242 26.4716L73.982 26.4744C73.9004 26.4798 73.8347 26.4824 73.785 26.4824H72.8443V27.6406H72.3005V23.8344H73.785ZM67.4785 23.8344V24.3074H66.1735V27.6406H65.6352V24.3074H64.3302V23.8344H67.4785ZM69.7862 23.8344L71.5153 27.6406H70.9444L70.5257 26.6891H68.5029L68.0843 27.6406H67.5242L69.2479 23.8344H69.7862ZM92.5879 23.8344L92.6628 23.8353C93.0348 23.8447 93.3669 23.9241 93.6591 24.0736C93.9709 24.2331 94.2128 24.457 94.385 24.7452C94.5572 25.0333 94.6433 25.3641 94.6433 25.7375C94.6433 26.1109 94.5572 26.4417 94.385 26.7298C94.2128 27.018 93.9709 27.2419 93.6591 27.4014C93.3474 27.5609 92.9903 27.6406 92.5879 27.6406H90.9839V23.8344H92.5879ZM80.8418 23.8344V24.3074H78.6994V25.6342H80.608V26.1018H78.6994V27.6406H78.1557V23.8344H80.8418ZM92.5553 24.3074H91.5276V27.1676H92.5553C92.8634 27.1676 93.1344 27.1077 93.3682 26.9881C93.602 26.8685 93.7824 26.7008 93.9092 26.4852C94.0361 26.2695 94.0996 26.0203 94.0996 25.7375C94.0996 25.4548 94.0361 25.2055 93.9092 24.9898C93.7824 24.7742 93.602 24.6065 93.3682 24.4869C93.1344 24.3673 92.8634 24.3074 92.5553 24.3074ZM69.5143 24.389L68.6933 26.2541H70.3354L69.5143 24.389ZM73.7686 24.3074H72.8443V26.0203H73.7686C74.113 26.0203 74.3758 25.9459 74.5571 25.7973C74.7383 25.6487 74.8289 25.4366 74.8289 25.1611C74.8289 24.8856 74.7383 24.6745 74.5571 24.5277C74.3758 24.3808 74.113 24.3074 73.7686 24.3074ZM87.195 17.145C87.4197 17.145 87.6409 17.174 87.8584 17.232C88.0759 17.29 88.2625 17.3734 88.4184 17.4822L88.239 17.9172L88.1787 17.8803C88.0367 17.7968 87.8864 17.7321 87.7279 17.6861C87.5466 17.6335 87.369 17.6072 87.195 17.6072C86.8868 17.6072 86.6558 17.6634 86.5017 17.7758C86.3476 17.8882 86.2706 18.0332 86.2706 18.2108C86.2706 18.3413 86.3141 18.4473 86.4011 18.5289C86.4881 18.6104 86.5959 18.6739 86.7246 18.7192C86.8533 18.7645 87.0282 18.8125 87.2494 18.8633C87.5357 18.9322 87.7659 19.001 87.9399 19.0699C88.1139 19.1388 88.2634 19.2439 88.3885 19.3853C88.5136 19.5267 88.5761 19.717 88.5761 19.9562C88.5761 20.1556 88.5217 20.3378 88.413 20.5027C88.3042 20.6676 88.1393 20.7981 87.9182 20.8942C87.697 20.9903 87.4252 21.0383 87.1025 21.0383C86.8162 21.0383 86.5398 20.9939 86.2733 20.9051C86.0069 20.8163 85.7975 20.7012 85.6453 20.5598L85.8465 20.1357L85.887 20.1707C86.0256 20.2852 86.1979 20.3796 86.4038 20.4538C86.6304 20.5353 86.8633 20.5761 87.1025 20.5761C87.4179 20.5761 87.6535 20.5226 87.8094 20.4157C87.9653 20.3088 88.0432 20.1665 88.0432 19.9889C88.0432 19.8584 88.0006 19.7523 87.9155 19.6708C87.8303 19.5892 87.7251 19.5267 87.6001 19.4832C87.475 19.4397 87.2983 19.3907 87.0699 19.3364C86.7835 19.2675 86.5525 19.1986 86.3766 19.1297C86.2008 19.0609 86.0504 18.9548 85.9253 18.8116C85.8003 18.6684 85.7377 18.4754 85.7377 18.2325C85.7377 18.0295 85.7912 17.8465 85.8981 17.6834C86.0051 17.5202 86.1673 17.3897 86.3848 17.2919C86.6023 17.194 86.8724 17.145 87.195 17.145ZM69.1696 17.145C69.4668 17.145 69.7387 17.1949 69.9852 17.2946C70.2317 17.3943 70.4419 17.542 70.6159 17.7377L70.2625 18.0803L70.2263 18.0435C69.9462 17.7671 69.6012 17.629 69.1913 17.629C68.9086 17.629 68.653 17.6924 68.4246 17.8193C68.1962 17.9462 68.0177 18.1211 67.889 18.344C67.7603 18.5669 67.696 18.8162 67.696 19.0917C67.696 19.3672 67.7603 19.6164 67.889 19.8393C68.0177 20.0623 68.1962 20.2372 68.4246 20.364C68.653 20.4909 68.9086 20.5544 69.1913 20.5544C69.6154 20.5544 69.9725 20.4021 70.2625 20.0976L70.6159 20.4402L70.5751 20.4845C70.4092 20.6585 70.2117 20.7923 69.9825 20.886C69.7342 20.9875 69.4614 21.0383 69.1641 21.0383C68.7835 21.0383 68.44 20.954 68.1337 20.7854C67.8274 20.6169 67.5872 20.3849 67.4132 20.0894C67.2392 19.794 67.1522 19.4614 67.1522 19.0917C67.1522 18.7219 67.2392 18.3893 67.4132 18.0939C67.5872 17.7984 67.8283 17.5664 68.1364 17.3979C68.4446 17.2293 68.7889 17.145 69.1696 17.145ZM52.6471 17.1885L54.3762 20.9948H53.8053L53.3866 20.0432H51.3638L50.9451 20.9948H50.3851L52.1088 17.1885H52.6471ZM47.0823 17.1885L48.4526 20.3151L49.8337 17.1885H50.3774L48.7081 20.9948H48.1698L46.4951 17.1885H47.0823ZM93.1806 17.1885L94.9097 20.9948H94.3388L93.9201 20.0432H91.8974L91.4787 20.9948H90.9186L92.6423 17.1885H93.1806ZM63.2731 17.1885L65.5569 20.0269V17.1885H66.1006V20.9948H65.6547L63.371 18.1564V20.9948H62.8272V17.1885H63.2731ZM60.3129 17.1885L62.042 20.9948H61.4711L61.0524 20.0432H59.0297L58.611 20.9948H58.0509L59.7746 17.1885H60.3129ZM90.1334 17.1885V20.9948H89.5897V17.1885H90.1334ZM55.7052 17.1885V20.5217H57.766V20.9948H55.1614V17.1885H55.7052ZM44.7583 17.1885L46.4874 20.9948H45.9165L45.4978 20.0432H43.4751L43.0564 20.9948H42.4963L44.22 17.1885H44.7583ZM72.1569 17.1885V18.8252H74.3428V17.1885H74.8866V20.9948H74.3428V19.2983H72.1569V20.9948H71.6132V17.1885H72.1569ZM78.9343 17.1885V17.6616H76.7919V18.8307H78.7004V19.2929H76.7919V20.5217H79.0104V20.9948H76.2481V17.1885H78.9343ZM83.479 17.1885L85.2081 20.9948H84.6372L84.2185 20.0432H82.1957L81.777 20.9948H81.217L82.9407 17.1885H83.479ZM44.4864 17.7432L43.6654 19.6082H45.3075L44.4864 17.7432ZM83.2071 17.7432L82.386 19.6082H84.0282L83.2071 17.7432ZM92.9087 17.7432L92.0877 19.6082H93.7298L92.9087 17.7432ZM60.041 17.7432L59.22 19.6082H60.8621L60.041 17.7432ZM52.3752 17.7432L51.5541 19.6082H53.1963L52.3752 17.7432ZM89.7522 0.90625L89.86 0.9069C90.8256 0.918606 91.6673 1.08834 92.3852 1.4161C93.1297 1.756 93.703 2.23843 94.1052 2.86341C94.5073 3.48838 94.7084 4.22849 94.7084 5.08371C94.7084 5.93894 94.5046 6.6763 94.097 7.2958C93.7035 7.89393 93.1504 8.35663 92.4377 8.68389L92.3608 8.71844L94.9204 12.4189H92.0836L89.8827 9.21184H89.8816L88.4315 7.09021H89.6055C90.3733 7.09021 90.963 6.92592 91.3746 6.59733L91.4152 6.56392C91.8282 6.21306 92.0347 5.71965 92.0347 5.08371C92.0347 4.43681 91.8282 3.94067 91.4152 3.59529C91.0155 3.26105 90.4377 3.08854 89.6817 3.07775L89.6055 3.07722H85.8691L84.8124 0.90625H89.7522ZM81.6894 0.90625L86.7923 12.4189H84.0208L83.01 9.95194L83.0091 9.95183L80.3688 3.52128L77.7285 9.95183L77.7114 9.95194L76.7006 12.4189H73.9943L79.0809 0.90625H81.6894ZM75.8873 0.90625L74.9815 3.07722H71.1787V12.4189H68.5375V3.07722H64.7347L63.8289 0.90625H75.8873ZM60.4844 0.90625L65.5873 12.4189H62.8157L62.4147 11.44L62.415 11.4401L62.3035 11.1688L61.8049 9.95194L61.8039 9.95183L59.1638 3.52128L56.5234 9.95183L56.5064 9.95194L55.4956 12.4189H52.7892L57.8758 0.90625H60.4844ZM44.6878 0.90625L48.1603 9.12961L51.6818 0.90625H54.3067L49.3668 12.4189H46.7583L41.8347 0.90625H44.6878ZM38.0982 0.90625L43.2011 12.4189H40.4296L39.4188 9.95194L39.4179 9.95183L36.7777 3.52128L34.1373 9.95183L34.1203 9.95194L33.1095 12.4189H30.4031L35.4897 0.90625H38.0982ZM17.3047 0.325863L17.3217 0.354815L20.4103 5.88274C20.6698 6.34778 20.3562 6.92605 19.8445 6.94731L19.8153 6.94792H13.6388C13.119 6.94792 12.7917 6.37826 13.0298 5.90918L13.0438 5.88274L16.1317 0.354815C16.3914 -0.108416 17.0299 -0.118066 17.3047 0.325863Z" fill="#CFCFCF"/>
</g>
<defs>
<clipPath id="clip0_933_1953">
<rect width="94.401" height="29" fill="white" transform="translate(0.866364)"/>
</clipPath>
</defs>
</svg>
