<?xml version="1.0" encoding="UTF-8"?>
<svg width="585px" height="120px" viewBox="0 0 585 120" version="1.1" xmlns="http://www.w3.org/2000/svg" xmlns:xlink="http://www.w3.org/1999/xlink">
    <title>AVATAR logo/White/AVATAR logo_05@1x</title>
    <g id="页面-1" stroke="none" stroke-width="1" fill="none" fill-rule="evenodd">
        <g id="28备份-3" transform="translate(-1443.000000, -977.000000)" fill="#FFFFFF">
            <g id="AVATAR-logo/White/AVATAR-logo_05" transform="translate(1443.000000, 977.000000)">
                <path d="M79.7128936,33 C81.9978929,33 84.1125687,34.2000738 85.3243558,36.1639385 L85.455246,36.3852667 L127.640457,110.950141 C128.632648,112.701042 127.456482,114.875405 125.517376,114.994852 L125.349331,115 L105.360129,115 C103.103463,115 101.005869,113.814221 99.8046897,111.874504 L99.6701123,111.64737 L68.196206,56.0174398 C67.4956099,54.77845 65.9777448,54.3214763 64.7358755,54.9457631 L64.5821583,55.0294522 L64.4340635,55.1230929 C63.2816874,55.9057835 62.9105668,57.4784746 63.6139541,58.7203126 C63.6139541,58.7203126 70.8481092,71.5071813 78.4204597,84.8912686 L79.2185004,86.3017991 L79.8868698,87.4831332 L79.8868698,87.4831332 L80.5546897,88.6634932 C85.5586617,97.5079126 90.4279333,106.11397 93.1747121,110.967943 C94.1669034,112.715959 92.9797445,114.87622 91.0400273,114.994886 L90.8719561,115 L67.8298584,115 C65.5448591,115 63.4274797,113.799926 62.2181065,111.836062 L62.087506,111.614733 L49.8090481,89.9175772 C48.819434,88.1712245 46.394482,88.1183047 45.3205288,89.7588179 L45.2238888,89.9175772 L32.9425234,111.626601 C31.8057906,113.63796 29.7388908,114.903736 27.4765709,114.994738 L27.2147085,115 L2.64907023,115 C0.670341197,115 -0.588350329,112.874273 0.278412383,111.101198 L0.357944303,110.950141 L42.5518777,36.3733989 C43.6886104,34.3648975 45.7555103,33.0964761 48.0178301,33.0052741 L48.2796925,33 L79.7128936,33 Z M522.534911,97.2 L522.534911,106.656 L522.538019,106.929373 C522.616768,110.347124 524.191732,112.056 527.262911,112.056 C528.798911,112.056 529.974911,111.612 530.790911,110.724 C531.606911,109.836 532.014911,108.48 532.014911,106.656 L532.014911,106.656 L532.014911,97.2 L534.342911,97.2 L534.342911,106.752 L534.338231,107.11011 C534.278951,109.35097 533.656511,111.0756 532.470911,112.284 C531.222911,113.556 529.478911,114.192 527.238911,114.192 C524.998911,114.192 523.254911,113.552 522.006911,112.272 C520.758911,110.992 520.134911,109.152 520.134911,106.752 L520.134911,106.752 L520.134911,97.2 L522.534911,97.2 Z M424.104365,97.008 C425.096365,97.008 426.072365,97.136 427.032365,97.392 C427.992365,97.648 428.816365,98.016 429.504365,98.496 L429.504365,98.496 L428.712365,100.416 L428.407712,100.230612 C427.792528,99.8730612 427.142079,99.5948571 426.456365,99.396 C425.656365,99.164 424.872365,99.048 424.104365,99.048 C422.744365,99.048 421.724365,99.296 421.044365,99.792 C420.364365,100.288 420.024365,100.928 420.024365,101.712 C420.024365,102.288 420.216365,102.756 420.600365,103.116 C420.984365,103.476 421.460365,103.756 422.028365,103.956 C422.596365,104.156 423.368365,104.368 424.344365,104.592 C425.608365,104.896 426.624365,105.2 427.392365,105.504 C428.160365,105.808 428.820365,106.272 429.372365,106.896 C429.924365,107.52 430.200365,108.36 430.200365,109.416 C430.200365,110.296 429.960365,111.1 429.480365,111.828 C429.000365,112.556 428.272365,113.132 427.296365,113.556 C426.320365,113.98 425.120365,114.192 423.696365,114.192 C422.432365,114.192 421.212365,113.996 420.036365,113.604 C418.860365,113.212 417.936365,112.704 417.264365,112.08 L417.264365,112.08 L418.152365,110.208 L418.372365,110.396 C418.976809,110.886667 419.723476,111.292 420.612365,111.612 C421.612365,111.972 422.640365,112.152 423.696365,112.152 C425.088365,112.152 426.128365,111.916 426.816365,111.444 C427.504365,110.972 427.848365,110.344 427.848365,109.56 C427.848365,108.984 427.660365,108.516 427.284365,108.156 C426.908365,107.796 426.444365,107.52 425.892365,107.328 C425.340365,107.136 424.560365,106.92 423.552365,106.68 C422.288365,106.376 421.268365,106.072 420.492365,105.768 C419.716365,105.464 419.052365,104.996 418.500365,104.364 C417.948365,103.732 417.672365,102.88 417.672365,101.808 C417.672365,100.912 417.908365,100.104 418.380365,99.384 C418.852365,98.664 419.568365,98.088 420.528365,97.656 C421.488365,97.224 422.680365,97.008 424.104365,97.008 Z M366.500001,97.008 C367.492001,97.008 368.468001,97.136 369.428001,97.392 C370.388001,97.648 371.212001,98.016 371.900001,98.496 L371.900001,98.496 L371.108001,100.416 L370.803348,100.230612 C370.188164,99.8730612 369.537715,99.5948571 368.852001,99.396 C368.052001,99.164 367.268001,99.048 366.500001,99.048 C365.140001,99.048 364.120001,99.296 363.440001,99.792 C362.760001,100.288 362.420001,100.928 362.420001,101.712 C362.420001,102.288 362.612001,102.756 362.996001,103.116 C363.380001,103.476 363.856001,103.756 364.424001,103.956 C364.992001,104.156 365.764001,104.368 366.740001,104.592 C368.004001,104.896 369.020001,105.2 369.788001,105.504 C370.556001,105.808 371.216001,106.272 371.768001,106.896 C372.320001,107.52 372.596001,108.36 372.596001,109.416 C372.596001,110.296 372.356001,111.1 371.876001,111.828 C371.396001,112.556 370.668001,113.132 369.692001,113.556 C368.716001,113.98 367.516001,114.192 366.092001,114.192 C364.828001,114.192 363.608001,113.996 362.432001,113.604 C361.256001,113.212 360.332001,112.704 359.660001,112.08 L359.660001,112.08 L360.548001,110.208 L360.768001,110.396 C361.372445,110.886667 362.119112,111.292 363.008001,111.612 C364.008001,111.972 365.036001,112.152 366.092001,112.152 C367.484001,112.152 368.524001,111.916 369.212001,111.444 C369.900001,110.972 370.244001,110.344 370.244001,109.56 C370.244001,108.984 370.056001,108.516 369.680001,108.156 C369.304001,107.796 368.840001,107.52 368.288001,107.328 C367.736001,107.136 366.956001,106.92 365.948001,106.68 C364.684001,106.376 363.664001,106.072 362.888001,105.768 C362.112001,105.464 361.448001,104.996 360.896001,104.364 C360.344001,103.732 360.068001,102.88 360.068001,101.808 C360.068001,100.912 360.304001,100.104 360.776001,99.384 C361.248001,98.664 361.964001,98.088 362.924001,97.656 C363.884001,97.224 365.076001,97.008 366.500001,97.008 Z M277.742546,97.008 C279.054546,97.008 280.254546,97.228 281.342546,97.668 C282.430546,98.108 283.358546,98.76 284.126546,99.624 L284.126546,99.624 L282.566546,101.136 L282.35299,100.920815 C281.126472,99.7362716 279.621657,99.144 277.838546,99.144 C276.590546,99.144 275.462546,99.424 274.454546,99.984 C273.446546,100.544 272.658546,101.316 272.090546,102.3 C271.522546,103.284 271.238546,104.384 271.238546,105.6 C271.238546,106.816 271.522546,107.916 272.090546,108.9 C272.658546,109.884 273.446546,110.656 274.454546,111.216 C275.462546,111.776 276.590546,112.056 277.838546,112.056 C279.710546,112.056 281.286546,111.384 282.566546,110.04 L282.566546,110.04 L284.126546,111.552 L283.891226,111.80496 C283.170506,112.54512 282.316946,113.1168 281.330546,113.52 C280.234546,113.968 279.030546,114.192 277.718546,114.192 C276.038546,114.192 274.522546,113.82 273.170546,113.076 C271.818546,112.332 270.758546,111.308 269.990546,110.004 C269.222546,108.7 268.838546,107.232 268.838546,105.6 C268.838546,103.968 269.222546,102.5 269.990546,101.196 C270.758546,99.892 271.822546,98.868 273.182546,98.124 C274.542546,97.38 276.062546,97.008 277.742546,97.008 Z M212.795273,97.2 L212.795273,111.912 L221.891273,111.912 L221.891273,114 L210.395273,114 L210.395273,97.2 L212.795273,97.2 Z M249.877455,97.2 L259.957455,109.728 L259.957455,97.2 L262.357455,97.2 L262.357455,114 L260.389455,114 L250.309455,101.472 L250.309455,114 L247.909455,114 L247.909455,97.2 L249.877455,97.2 Z M479.259638,97.2 L479.638821,97.2053979 C481.635444,97.2629758 483.22105,97.7811765 484.395638,98.76 C485.643638,99.8 486.267638,101.232 486.267638,103.056 C486.267638,104.352 485.947638,105.456 485.307638,106.368 C484.667638,107.28 483.755638,107.944 482.571638,108.36 L482.571638,108.36 L486.555638,114 L483.939638,114 L480.315638,108.84 L480.099638,108.854667 C479.752971,108.876889 479.472971,108.888 479.259638,108.888 L479.259638,108.888 L475.107638,108.888 L475.107638,114 L472.707638,114 L472.707638,97.2 L479.259638,97.2 Z M292.767637,97.2 L292.767637,104.424 L302.415637,104.424 L302.415637,97.2 L304.815637,97.2 L304.815637,114 L302.415637,114 L302.415637,106.512 L292.767637,106.512 L292.767637,114 L290.367637,114 L290.367637,97.2 L292.767637,97.2 Z M324.520728,97.2 L324.520728,99.288 L315.064728,99.288 L315.064728,104.448 L323.488728,104.448 L323.488728,106.488 L315.064728,106.488 L315.064728,111.912 L324.856728,111.912 L324.856728,114 L312.664728,114 L312.664728,97.2 L324.520728,97.2 Z M571.449093,97.2 L571.855389,97.2062485 C573.466371,97.2562367 574.906939,97.6061538 576.177093,98.256 C577.553093,98.96 578.621093,99.948 579.381093,101.22 C580.141093,102.492 580.521093,103.952 580.521093,105.6 C580.521093,107.248 580.141093,108.708 579.381093,109.98 C578.621093,111.252 577.553093,112.24 576.177093,112.944 C574.801093,113.648 573.225093,114 571.449093,114 L571.449093,114 L564.369093,114 L564.369093,97.2 L571.449093,97.2 Z M514.08582,97.2 L514.08582,99.288 L504.62982,99.288 L504.62982,105.144 L513.05382,105.144 L513.05382,107.208 L504.62982,107.208 L504.62982,114 L502.22982,114 L502.22982,97.2 L514.08582,97.2 Z M447.745456,97.2 L447.745456,99.288 L441.985456,99.288 L441.985456,114 L439.609456,114 L439.609456,99.288 L433.849456,99.288 L433.849456,97.2 L447.745456,97.2 Z M396.598183,97.2 L404.230183,114 L401.710183,114 L399.862183,109.8 L390.934183,109.8 L389.086183,114 L386.614183,114 L394.222183,97.2 L396.598183,97.2 Z M158.96,97.2 L166.592,114 L164.072,114 L162.224,109.8 L153.296,109.8 L151.448,114 L148.976,114 L156.584,97.2 L158.96,97.2 Z M381.309092,97.2 L381.309092,114 L378.909092,114 L378.909092,97.2 L381.309092,97.2 Z M459.770547,97.2 L467.402547,114 L464.882547,114 L463.034547,109.8 L454.106547,109.8 L452.258547,114 L449.786547,114 L457.394547,97.2 L459.770547,97.2 Z M348.25891,97.2 L355.89091,114 L353.37091,114 L351.52291,109.8 L342.59491,109.8 L340.74691,114 L338.27491,114 L345.88291,97.2 L348.25891,97.2 Z M171.057091,97.2 L177.105091,111 L183.201091,97.2 L185.601091,97.2 L178.233091,114 L175.857091,114 L168.465091,97.2 L171.057091,97.2 Z M197.458182,97.2 L205.090182,114 L202.570182,114 L200.722182,109.8 L191.794182,109.8 L189.946182,114 L187.474182,114 L195.082182,97.2 L197.458182,97.2 Z M234.972364,97.2 L242.604364,114 L240.084364,114 L238.236364,109.8 L229.308364,109.8 L227.460364,114 L224.988364,114 L232.596364,97.2 L234.972364,97.2 Z M544.040002,97.2 L554.120002,109.728 L554.120002,97.2 L556.520002,97.2 L556.520002,114 L554.552002,114 L544.472002,101.472 L544.472002,114 L542.072002,114 L542.072002,97.2 L544.040002,97.2 Z M571.305093,99.288 L566.769093,99.288 L566.769093,111.912 L571.305093,111.912 C572.665093,111.912 573.861093,111.648 574.893093,111.12 C575.925093,110.592 576.721093,109.852 577.281093,108.9 C577.841093,107.948 578.121093,106.848 578.121093,105.6 C578.121093,104.352 577.841093,103.252 577.281093,102.3 C576.721093,101.348 575.925093,100.608 574.893093,100.08 C573.861093,99.552 572.665093,99.288 571.305093,99.288 L571.305093,99.288 Z M395.398183,99.648 L391.774183,107.88 L399.022183,107.88 L395.398183,99.648 Z M458.570547,99.648 L454.946547,107.88 L462.194547,107.88 L458.570547,99.648 Z M347.05891,99.648 L343.43491,107.88 L350.68291,107.88 L347.05891,99.648 Z M233.772364,99.648 L230.148364,107.88 L237.396364,107.88 L233.772364,99.648 Z M196.258182,99.648 L192.634182,107.88 L199.882182,107.88 L196.258182,99.648 Z M157.76,99.648 L154.136,107.88 L161.384,107.88 L157.76,99.648 Z M479.187638,99.288 L475.107638,99.288 L475.107638,106.848 L479.187638,106.848 C480.707638,106.848 481.867638,106.52 482.667638,105.864 C483.467638,105.208 483.867638,104.272 483.867638,103.056 C483.867638,101.84 483.467638,100.908 482.667638,100.26 C481.867638,99.612 480.707638,99.288 479.187638,99.288 L479.187638,99.288 Z M348.387509,4.4713493 L382.172258,80.6933373 L363.82954,80.6923493 L360.21054,71.8783493 L357.130527,64.3600542 L357.12354,64.3593493 L339.644491,21.7846294 L322.16454,64.3593493 L322.050517,64.3600542 L315.35833,80.6933373 L297.44054,80.6933373 L331.11735,4.4713493 L348.387509,4.4713493 Z M200.175964,4.4713493 L233.960713,80.6933373 L215.617995,80.6923493 L211.943995,71.7443493 L208.918982,64.3600542 L208.911995,64.3593493 L191.432946,21.7846294 L173.951995,64.3593493 L173.838972,64.3600542 L167.146785,80.6933373 L149.228995,80.6933373 L182.905805,4.4713493 L200.175964,4.4713493 Z M243.803104,4.4713493 L266.794004,58.9156265 L290.108718,4.4713493 L307.486816,4.4713493 L274.781452,80.6933373 L257.511293,80.6933373 L224.913868,4.4713493 L243.803104,4.4713493 Z M542.161091,4.4713493 L542.874738,4.47565484 C549.267203,4.55315461 554.840009,5.67690115 559.593158,7.84689449 C564.522349,10.0972579 568.318186,13.2913222 570.980669,17.4290873 C573.643152,21.5668523 574.974393,26.4668373 574.974393,32.1290421 C574.974393,37.7912469 573.625162,42.6730838 570.9267,46.7745527 C568.321288,50.7345916 564.659337,53.7979723 559.940846,55.9646949 L559.43125,56.1934126 L576.377594,80.6933373 L557.596296,80.6933373 L543.024599,59.4600692 L543.017603,59.4600692 L533.417074,45.4134457 L541.189645,45.4134457 C546.2732,45.4134457 550.177406,44.3256933 552.902263,42.1501883 L553.170818,41.929012 C555.90526,39.6060562 557.27248,36.3393995 557.27248,32.1290421 C557.27248,27.8460923 555.90526,24.5612876 553.170818,22.2746279 C550.524584,20.0617315 546.699001,18.9195914 541.694069,18.8482077 L541.189645,18.8446385 L516.451741,18.8446385 L509.455728,4.4713493 L542.161091,4.4713493 Z M488.77951,4.4713493 L522.564258,80.6933373 L504.221541,80.6923493 L500.429541,71.4553493 L497.522528,64.3600542 L497.515541,64.3593493 L480.036492,21.7846294 L462.555541,64.3593493 L462.442517,64.3600542 L455.750331,80.6933373 L437.832541,80.6933373 L471.509351,4.4713493 L488.77951,4.4713493 Z M450.365399,4.4713493 L444.368816,18.8446385 L419.191163,18.8446385 L419.191163,80.6933373 L401.705127,80.6933373 L401.705127,18.8446385 L376.527474,18.8446385 L370.530891,4.4713493 L450.365399,4.4713493 Z M66.8377529,1.26183149 L66.9408091,1.42990061 L79.6180029,23.7073377 C80.6748068,25.5665825 79.4163759,27.8748982 77.3455817,27.9951009 L77.175929,28 L51.824459,28 C49.7080103,28 48.3688388,25.7406118 49.3017363,23.8590193 L49.3823851,23.7073377 L62.0566613,1.42990061 C63.1119668,-0.418859776 65.69266,-0.474882818 66.8377529,1.26183149 Z" id="形状结合"></path>
            </g>
        </g>
    </g>
</svg>