<svg width="131" height="38" viewBox="0 0 131 38" fill="none" xmlns="http://www.w3.org/2000/svg">
<path d="M70.6194 17.6952C69.9366 17.4041 69.3162 16.9844 68.7919 16.459C68.2728 15.9298 67.8543 15.3105 67.5568 14.6315C67.1853 13.7565 67.0367 12.803 67.1244 11.8565C67.2121 10.91 67.5333 10 68.0594 9.20827C68.5854 8.4165 69.2997 7.76766 70.1382 7.31996C70.9768 6.87225 71.9133 6.63967 72.8639 6.64308C73.6348 6.64383 74.3981 6.79594 75.1105 7.09078C75.7879 7.38746 76.4049 7.80611 76.931 8.32587C77.4547 8.84644 77.8696 9.46603 78.1515 10.1485C78.4556 10.8574 78.6124 11.6208 78.6124 12.3922C78.6124 13.1635 78.4556 13.9269 78.1515 14.6358C77.8625 15.3169 77.4473 15.9372 76.9277 16.4639C76.3991 16.984 75.7797 17.403 75.1002 17.7C74.3873 17.9909 73.6247 18.1408 72.8547 18.1412C72.0868 18.1427 71.3264 17.991 70.6178 17.6952H70.6194ZM69.7991 5.13094C67.9053 5.92652 66.3987 7.43255 65.6024 9.32604C65.1965 10.2973 64.9876 11.3395 64.9876 12.3922C64.9876 13.4448 65.1965 14.487 65.6024 15.4583C66.3988 17.3523 67.9056 18.8588 69.7996 19.655C70.7705 20.0614 71.8125 20.2707 72.865 20.2707C73.9174 20.2707 74.9594 20.0614 75.9303 19.655C77.8249 18.8597 79.332 17.3528 80.1275 15.4583C80.5328 14.4874 80.7415 13.4458 80.7415 12.3938C80.7415 11.3417 80.5328 10.3001 80.1275 9.32928C79.3301 7.43485 77.8227 5.92787 75.9281 5.13094C74.9567 4.72736 73.9152 4.5196 72.8633 4.5196C71.8115 4.5196 70.7699 4.72736 69.7986 5.13094H69.7991ZM53.0317 5.12608C52.0956 5.52666 51.2431 6.09971 50.5188 6.81535C49.8021 7.53685 49.2298 8.38866 48.8328 9.32496C48.424 10.2962 48.2134 11.3394 48.2134 12.3932C48.2134 13.4471 48.424 14.4902 48.8328 15.4615C49.2301 16.3965 49.8019 17.2471 50.5178 17.9679C51.2399 18.6842 52.0908 19.2577 53.0257 19.6582C53.998 20.0635 55.041 20.2716 56.0943 20.2707C58.1813 20.2719 60.1837 19.4462 61.6633 17.9744C62.3821 17.2503 62.9564 16.3958 63.3552 15.4567C63.4406 15.2525 63.5173 15.0414 63.5902 14.8243H61.2987C61.0139 15.4307 60.6284 15.9845 60.1587 16.4622C59.6271 17.0008 58.9925 17.4269 58.2927 17.7151C57.593 18.0033 56.8424 18.1476 56.0857 18.1396C55.3303 18.1426 54.5818 17.9954 53.8838 17.7066C53.1858 17.4178 52.5521 16.9932 52.0196 16.4574C51.5004 15.9278 51.0819 15.3082 50.7845 14.6288C50.196 13.1922 50.1979 11.5815 50.7899 10.1464C51.2298 9.10417 51.9682 8.21536 52.912 7.5918C53.8559 6.96823 54.9631 6.63777 56.0943 6.642C56.8658 6.64244 57.6295 6.7957 58.3414 7.09294C59.0193 7.39022 59.6379 7.80754 60.1673 8.32479C60.6391 8.80292 61.0239 9.35957 61.3047 9.96978H63.5912C63.5227 9.75106 63.4427 9.53774 63.3579 9.32982C62.5587 7.43661 61.0525 5.92983 59.1596 5.12986C58.1886 4.72639 57.1476 4.51829 56.0961 4.51745C55.0446 4.51662 54.0033 4.72307 53.0317 5.125V5.12608ZM83.1162 20.2707H85.2439V4.51853H83.1162V20.2707ZM109.395 10.0702C109.395 9.57662 109.492 9.08785 109.681 8.63182C109.87 8.17579 110.147 7.76143 110.496 7.41239C110.845 7.06336 111.259 6.7865 111.715 6.5976C112.171 6.40871 112.66 6.31149 113.154 6.31149C113.647 6.31149 114.136 6.40871 114.592 6.5976C115.048 6.7865 115.462 7.06336 115.811 7.41239C116.161 7.76143 116.437 8.17579 116.626 8.63182C116.815 9.08785 116.912 9.57662 116.912 10.0702C116.912 11.0671 116.516 12.0232 115.811 12.7281C115.107 13.433 114.151 13.829 113.154 13.829C112.157 13.829 111.201 13.433 110.496 12.7281C109.791 12.0232 109.395 11.0671 109.395 10.0702ZM107.482 10.1005C107.482 13.175 110.02 15.5809 113.254 15.5809H114.538L112.028 20.3409H114.169L118.072 12.858C118.559 11.9974 118.827 11.0308 118.853 10.0427C118.814 8.55571 118.194 7.14323 117.126 6.10803C116.058 5.07284 114.627 4.49734 113.139 4.5049C111.652 4.51245 110.226 5.10247 109.169 6.14847C108.111 7.19446 107.505 8.61317 107.482 10.1005ZM122.524 15.609C122.54 14.7487 122.892 13.929 123.506 13.3261C124.12 12.7233 124.946 12.3856 125.806 12.3856C126.667 12.3856 127.493 12.7233 128.107 13.3261C128.721 13.929 129.073 14.7487 129.089 15.609C129.089 16.4795 128.743 17.3144 128.127 17.93C127.512 18.5456 126.677 18.8914 125.806 18.8914C124.936 18.8914 124.101 18.5456 123.485 17.93C122.87 17.3144 122.524 16.4795 122.524 15.609ZM123.617 8.40093C123.618 7.82318 123.844 7.26849 124.247 6.85494C124.651 6.4414 125.2 6.20165 125.777 6.18673C126.365 6.18673 126.929 6.42019 127.344 6.83573C127.76 7.25128 127.993 7.81488 127.993 8.40255C127.993 8.99023 127.76 9.55383 127.344 9.96937C126.929 10.3849 126.365 10.6184 125.777 10.6184C125.2 10.6033 124.651 10.3635 124.247 9.95001C123.844 9.5365 123.618 8.98189 123.617 8.40417V8.40093ZM121.85 8.40417C121.841 9.26252 122.111 10.1006 122.62 10.7917L123.058 11.3766L122.5 11.8508C121.951 12.311 121.51 12.8863 121.209 13.5359C120.907 14.1854 120.753 14.8934 120.755 15.6095C120.755 16.9493 121.288 18.2342 122.235 19.1815C123.182 20.1289 124.467 20.6611 125.807 20.6611C127.147 20.6611 128.432 20.1289 129.379 19.1815C130.326 18.2342 130.859 16.9493 130.859 15.6095C130.863 14.8855 130.705 14.1698 130.399 13.514C130.092 12.8582 129.643 12.2789 129.085 11.8178L128.515 11.3388L128.973 10.7491C129.493 10.0777 129.771 9.25047 129.762 8.40147C129.745 7.36392 129.32 6.37466 128.581 5.64699C127.841 4.91932 126.845 4.51152 125.807 4.51152C124.769 4.51152 123.773 4.91932 123.033 5.64699C122.294 6.37466 121.869 7.36392 121.852 8.40147L121.85 8.40417ZM102.378 4.51853V16.7387C102.395 16.8833 102.382 17.0299 102.339 17.1691C102.297 17.3083 102.225 17.437 102.13 17.5468C102.034 17.6567 101.917 17.7452 101.785 17.8068C101.653 17.8684 101.509 17.9015 101.364 17.9042C101.117 17.8904 100.878 17.8091 100.675 17.6692C100.471 17.5292 100.309 17.3358 100.208 17.1103L95.3445 6.6447C95.0911 6.01126 94.6521 5.46924 94.0851 5.08979C93.5181 4.71035 92.8496 4.51121 92.1674 4.51853C91.3745 4.50954 90.6033 4.77686 89.9861 5.27459C89.9577 5.29538 89.9305 5.31774 89.9046 5.34156C89.5805 5.60762 89.3197 5.94255 89.1413 6.32201C88.9629 6.70147 88.8712 7.11592 88.8731 7.53524V20.2707H91.1283V7.86521C91.1211 7.72376 91.1427 7.58231 91.1919 7.44949C91.241 7.31666 91.3167 7.19524 91.4143 7.09262C91.512 6.99 91.6295 6.90833 91.7597 6.85258C91.8899 6.79683 92.0301 6.76818 92.1717 6.76837C92.4193 6.77726 92.6589 6.8588 92.8606 7.00284C93.0622 7.14688 93.2171 7.34705 93.3058 7.57844L93.3495 7.68159C94.4923 10.209 97.0489 15.7667 98.5453 18.7142C99.0487 19.7041 99.9084 20.1491 101.337 20.1562C102.144 20.1706 102.931 19.9058 103.565 19.4066C103.915 19.1834 104.199 18.8701 104.387 18.4996C104.574 18.129 104.659 17.7148 104.631 17.3004V4.51853H102.378Z" fill="#C4C4C4"/>
<path d="M55.2897 25.2306C55.2937 25.2851 55.2861 25.3398 55.2675 25.3912C55.2489 25.4425 55.2197 25.4894 55.1817 25.5287C55.1011 25.5908 55.0008 25.6217 54.8993 25.6156H50.3834C50.283 25.6183 50.1853 25.5828 50.1101 25.5163C50.0717 25.4797 50.0418 25.4352 50.0224 25.3859C50.0031 25.3365 49.9949 25.2835 49.9983 25.2306V25.2246C49.9952 25.171 50.0039 25.1173 50.0237 25.0674C50.0436 25.0175 50.0742 24.9725 50.1133 24.9357C50.1892 24.8677 50.288 24.8311 50.3899 24.8331H54.8987C54.9522 24.8297 55.0058 24.8376 55.056 24.8562C55.1062 24.8748 55.152 24.9037 55.1903 24.9411C55.2597 25.0211 55.2954 25.1249 55.2897 25.2306ZM53.4951 28.4666C53.5473 28.4653 53.5992 28.4746 53.6477 28.4938C53.6962 28.513 53.7404 28.5417 53.7776 28.5783C53.8147 28.6134 53.8442 28.6558 53.864 28.7028C53.8838 28.7499 53.8935 28.8006 53.8926 28.8516C53.8966 29.1123 53.7641 29.2426 53.4951 29.2426H50.7808V32.5839C50.7881 32.6375 50.7827 32.6921 50.7652 32.7433C50.7477 32.7945 50.7185 32.841 50.6799 32.8789C50.6414 32.9169 50.5945 32.9454 50.543 32.9622C50.4916 32.9789 50.4369 32.9834 50.3834 32.9754C50.3308 32.9785 50.2782 32.9705 50.229 32.9519C50.1798 32.9333 50.135 32.9045 50.0977 32.8674C50.0286 32.7886 49.9929 32.6859 49.9983 32.5812V28.8295C49.9983 28.7339 50.0363 28.6423 50.1038 28.5748C50.1714 28.5072 50.263 28.4693 50.3585 28.4693L53.4951 28.4666Z" fill="#C4C4C4"/>
<path d="M56.8861 32.9754C56.8333 32.9808 56.78 32.9744 56.7301 32.9566C56.6801 32.9388 56.6347 32.9102 56.5972 32.8727C56.5597 32.8352 56.5311 32.7898 56.5133 32.7398C56.4955 32.6899 56.4891 32.6366 56.4945 32.5838V25.2246C56.4907 25.1714 56.4978 25.1181 56.5155 25.0678C56.5331 25.0176 56.5609 24.9715 56.5971 24.9324C56.6518 24.8719 56.7241 24.83 56.8038 24.8126C56.8835 24.7952 56.9666 24.8031 57.0416 24.8354C57.1165 24.8676 57.1795 24.9224 57.2218 24.9922C57.264 25.062 57.2833 25.1432 57.2771 25.2246V32.5838C57.2804 32.6362 57.2733 32.6886 57.2563 32.7382C57.2392 32.7878 57.2125 32.8335 57.1777 32.8728C57.1387 32.9088 57.0926 32.9365 57.0425 32.9542C56.9923 32.9718 56.9391 32.979 56.8861 32.9754Z" fill="#C4C4C4"/>
<path d="M60.0776 32.9754C60.0245 32.983 59.9703 32.9781 59.9193 32.9611C59.8684 32.9441 59.8221 32.9155 59.7842 32.8775C59.7462 32.8395 59.7176 32.7931 59.7007 32.7422C59.6838 32.6912 59.679 32.637 59.6867 32.5838V25.2246C59.679 25.1715 59.6838 25.1172 59.7007 25.0663C59.7176 25.0153 59.7462 24.969 59.7842 24.931C59.8221 24.893 59.8684 24.8644 59.9193 24.8474C59.9703 24.8304 60.0245 24.8255 60.0776 24.8331C60.1568 24.8394 60.2336 24.8633 60.3024 24.9031C60.3712 24.9429 60.4302 24.9976 60.4751 25.0631L65.4619 31.4724V25.2246C65.4619 25.1208 65.5032 25.0212 65.5766 24.9477C65.65 24.8743 65.7496 24.8331 65.8535 24.8331C65.9573 24.8331 66.0569 24.8743 66.1303 24.9477C66.2037 25.0212 66.245 25.1208 66.245 25.2246V32.5838C66.2526 32.637 66.2477 32.6912 66.2307 32.7422C66.2137 32.7932 66.1851 32.8395 66.1471 32.8774C66.1091 32.9154 66.0628 32.9441 66.0118 32.9611C65.9609 32.9781 65.9066 32.983 65.8535 32.9754C65.7741 32.97 65.697 32.9466 65.6281 32.9068C65.5592 32.867 65.5003 32.8119 65.456 32.7459L60.4692 26.336V32.5838C60.4768 32.637 60.4719 32.6912 60.4549 32.7422C60.4379 32.7932 60.4092 32.8395 60.3713 32.8774C60.3333 32.9154 60.287 32.9441 60.236 32.9611C60.185 32.9781 60.1308 32.983 60.0776 32.9754Z" fill="#C4C4C4"/>
<path d="M71.3626 26.0692L69.6981 30.0996H72.0079C72.0631 30.0955 72.1185 30.1037 72.1702 30.1236C72.2218 30.1434 72.2684 30.1746 72.3066 30.2147C72.3725 30.2915 72.4077 30.39 72.4054 30.4912C72.4081 30.5914 72.3728 30.689 72.3066 30.7644C72.2679 30.8037 72.2212 30.834 72.1696 30.8534C72.118 30.8727 72.0628 30.8805 72.0079 30.8762H69.3811L68.6175 32.727C68.5978 32.7985 68.5557 32.8618 68.4974 32.9077C68.4391 32.9536 68.3676 32.9796 68.2935 32.9819C68.2269 32.9801 68.1614 32.9652 68.1007 32.9381C68.0482 32.9247 67.9996 32.8992 67.9588 32.8636C67.918 32.828 67.886 32.7834 67.8655 32.7333C67.845 32.6832 67.8365 32.629 67.8406 32.575C67.8448 32.521 67.8615 32.4687 67.8895 32.4224L70.9203 25.1377C70.9534 25.0476 71.0136 24.97 71.0926 24.9155C71.1716 24.8609 71.2655 24.8322 71.3615 24.8331H71.3923C71.4861 24.8315 71.5779 24.8602 71.6541 24.9151C71.7302 24.97 71.7865 25.0481 71.8146 25.1377L74.8702 32.4224C74.8995 32.4684 74.9173 32.5209 74.9222 32.5752C74.927 32.6296 74.9187 32.6844 74.8981 32.7349C74.8774 32.7854 74.8449 32.8302 74.8033 32.8656C74.7617 32.901 74.7122 32.9258 74.659 32.9381C74.5977 32.962 74.5326 32.9747 74.4668 32.9754C74.395 32.9733 74.3258 32.948 74.2697 32.9032C74.2136 32.8583 74.1736 32.7965 74.1557 32.727L71.3626 26.0692Z" fill="#C4C4C4"/>
<path d="M76.8894 32.9753C76.8362 32.9829 76.782 32.978 76.731 32.961C76.6801 32.944 76.6338 32.9154 76.5958 32.8774C76.5578 32.8394 76.5292 32.7931 76.5122 32.7422C76.4952 32.6912 76.4903 32.637 76.4978 32.5838V25.2246C76.4903 25.1714 76.4952 25.1172 76.5122 25.0662C76.5292 25.0152 76.5578 24.9689 76.5958 24.9309C76.6338 24.893 76.6801 24.8643 76.731 24.8473C76.782 24.8303 76.8362 24.8254 76.8894 24.833C76.9686 24.8394 77.0454 24.8633 77.1141 24.9031C77.1829 24.9429 77.2419 24.9976 77.2869 25.0631L82.2737 31.4724V25.2246C82.2717 25.1719 82.2804 25.1195 82.2992 25.0703C82.3179 25.0211 82.3465 24.9763 82.383 24.9383C82.4195 24.9004 82.4633 24.8703 82.5117 24.8497C82.5602 24.8291 82.6123 24.8185 82.6649 24.8185C82.7176 24.8185 82.7697 24.8291 82.8181 24.8497C82.8666 24.8703 82.9104 24.9004 82.9469 24.9383C82.9834 24.9763 83.0119 25.0211 83.0307 25.0703C83.0495 25.1195 83.0581 25.1719 83.0562 25.2246V32.5838C83.0639 32.6369 83.059 32.6912 83.0421 32.7421C83.0252 32.7931 82.9966 32.8394 82.9587 32.8774C82.9207 32.9154 82.8744 32.944 82.8235 32.961C82.7726 32.978 82.7184 32.9829 82.6652 32.9753C82.5858 32.97 82.5087 32.9465 82.4398 32.9067C82.3709 32.8669 82.312 32.8119 82.2677 32.7458L77.2809 26.336V32.5838C77.2885 32.637 77.2836 32.6912 77.2666 32.7422C77.2496 32.7931 77.221 32.8394 77.183 32.8774C77.145 32.9154 77.0987 32.944 77.0477 32.961C76.9968 32.978 76.9426 32.9829 76.8894 32.9753Z" fill="#C4C4C4"/>
<path d="M87.9069 32.9754C87.5459 33.0066 87.1822 32.9662 86.8369 32.8564C86.4915 32.7465 86.1713 32.5695 85.8947 32.3354C85.6606 32.0588 85.4835 31.7386 85.3737 31.3932C85.2638 31.0479 85.2234 30.6842 85.2547 30.3232V27.4852C85.2226 27.1235 85.2622 26.7589 85.3715 26.4125C85.4808 26.0662 85.6575 25.7449 85.8914 25.4671C86.1631 25.2362 86.4777 25.0613 86.8172 24.9525C87.1567 24.8437 87.5144 24.8031 87.8696 24.833H89.3974C90.0125 24.7878 90.6245 24.9556 91.1305 25.3083C91.3383 25.5034 91.5031 25.7398 91.6142 26.0024C91.7254 26.2649 91.7804 26.5478 91.7758 26.8328C91.7801 26.8574 91.7823 26.8824 91.7823 26.9074C91.784 26.994 91.7516 27.0778 91.6921 27.1407C91.6533 27.1758 91.6076 27.2025 91.558 27.219C91.5084 27.2355 91.4558 27.2416 91.4037 27.2368C91.3505 27.2402 91.2972 27.2326 91.2471 27.2144C91.197 27.1962 91.1512 27.1678 91.1127 27.131C91.0741 27.0942 91.0436 27.0498 91.023 27.0006C91.0025 26.9515 90.9924 26.8986 90.9933 26.8453C91.0002 26.6633 90.9668 26.4821 90.8955 26.3146C90.8241 26.1471 90.7166 25.9975 90.5807 25.8764C90.221 25.6738 89.809 25.583 89.3974 25.6156H87.847C87.4872 25.602 87.1282 25.6602 86.7912 25.7868C86.5302 25.8965 86.3236 26.1053 86.2166 26.3673C86.0843 26.7246 86.0241 27.1045 86.0394 27.4852V30.3232C86.0247 30.6999 86.0849 31.0759 86.2166 31.4292C86.3271 31.6946 86.5381 31.9054 86.8036 32.0157C87.1566 32.1476 87.5325 32.2078 87.9091 32.1928H89.3996C89.8116 32.226 90.224 32.1339 90.5828 31.9287C90.7183 31.8079 90.8255 31.6588 90.8968 31.4919C90.9681 31.325 91.0018 31.1445 90.9954 30.9631C91.0027 30.8856 91.0307 30.8116 91.0766 30.7487C91.1225 30.6858 91.1845 30.6365 91.2561 30.606C91.3277 30.5754 91.4062 30.5648 91.4833 30.5752C91.5604 30.5856 91.6333 30.6166 91.6943 30.665C91.7243 30.6963 91.7478 30.7333 91.7633 30.7739C91.7788 30.8144 91.786 30.8577 91.7845 30.901C91.7845 30.926 91.7823 30.9509 91.778 30.9756C91.782 31.26 91.7266 31.5423 91.6155 31.8042C91.5044 32.0661 91.3399 32.302 91.1326 32.4969C90.6276 32.8519 90.0152 33.021 89.3996 32.9754H87.9069Z" fill="#C4C4C4"/>
<path d="M98.8375 24.8331C98.9388 24.8368 99.0346 24.8797 99.1049 24.9527C99.1752 25.0256 99.2145 25.123 99.2145 25.2243C99.2145 25.3257 99.1752 25.423 99.1049 25.496C99.0346 25.569 98.9388 25.6118 98.8375 25.6156H94.2471C94.1436 25.6214 94.0417 25.5882 93.9614 25.5227C93.9229 25.4838 93.8933 25.437 93.8746 25.3855C93.856 25.3341 93.8487 25.2791 93.8534 25.2246C93.8457 25.1715 93.8505 25.1172 93.8675 25.0663C93.8844 25.0153 93.913 24.969 93.9509 24.931C93.9889 24.893 94.0352 24.8644 94.0861 24.8474C94.137 24.8304 94.1912 24.8255 94.2444 24.8331H98.8375ZM99.2285 32.5838C99.2362 32.637 99.2314 32.6912 99.2144 32.7422C99.1975 32.7931 99.1689 32.8395 99.131 32.8775C99.093 32.9155 99.0468 32.9441 98.9958 32.9611C98.9449 32.9781 98.8907 32.983 98.8375 32.9754H94.2471C94.1431 32.9811 94.0408 32.9467 93.9614 32.8792C93.9233 32.8406 93.8939 32.7943 93.8752 32.7433C93.8566 32.6923 93.8491 32.638 93.8534 32.5838V28.8575C93.8483 28.8024 93.856 28.7469 93.8758 28.6953C93.8957 28.6437 93.9272 28.5974 93.9679 28.5599C94.046 28.4969 94.1441 28.4638 94.2444 28.4665H97.3621C97.4147 28.4646 97.4672 28.4732 97.5163 28.492C97.5655 28.5108 97.6104 28.5393 97.6483 28.5758C97.6862 28.6124 97.7164 28.6561 97.737 28.7046C97.7576 28.753 97.7682 28.8051 97.7682 28.8578C97.7682 28.9104 97.7576 28.9625 97.737 29.011C97.7164 29.0594 97.6862 29.1032 97.6483 29.1397C97.6104 29.1763 97.5655 29.2048 97.5163 29.2235C97.4672 29.2423 97.4147 29.251 97.3621 29.249H94.6359V32.1928H98.8343C98.8876 32.1847 98.9421 32.1892 98.9935 32.2059C99.0448 32.2226 99.0915 32.2511 99.1298 32.2891C99.1681 32.3271 99.197 32.3736 99.2141 32.4248C99.2313 32.4759 99.2362 32.5304 99.2285 32.5838Z" fill="#C4C4C4"/>
<path d="M31.825 0H7.80693C3.99188 0 0.89917 3.09271 0.89917 6.90776V30.9259C0.89917 34.7409 3.99188 37.8336 7.80693 37.8336H31.825C35.6401 37.8336 38.7328 34.7409 38.7328 30.9259V6.90776C38.7328 3.09271 35.6401 0 31.825 0Z" fill="#C4C4C4"/>
<path d="M13.6362 9.44496C12.468 9.44592 11.3263 9.79315 10.3554 10.4428C9.38445 11.0924 8.62788 12.0153 8.18127 13.0947C7.73465 14.1742 7.61805 15.3618 7.8462 16.5075C8.07434 17.6533 8.63698 18.7056 9.46303 19.5317C10.2891 20.3577 11.3415 20.9204 12.4872 21.1485C13.6329 21.3767 14.8205 21.2601 15.9 20.8135C16.9795 20.3668 17.9023 19.6103 18.5519 18.6393C19.2016 17.6684 19.5488 16.5267 19.5498 15.3585C19.5489 13.7904 18.9256 12.2868 17.8168 11.1779C16.708 10.0691 15.2043 9.44582 13.6362 9.44496ZM13.6362 18.8445C12.9466 18.8445 12.2725 18.64 11.6992 18.2569C11.1258 17.8737 10.6789 17.3292 10.415 16.6921C10.1512 16.055 10.0821 15.3539 10.2167 14.6776C10.3513 14.0012 10.6834 13.38 11.1711 12.8924C11.6587 12.4048 12.28 12.0728 12.9564 11.9383C13.6327 11.8039 14.3338 11.873 14.9709 12.1369C15.6079 12.4009 16.1524 12.8479 16.5355 13.4213C16.9185 13.9947 17.1229 14.6689 17.1228 15.3585C17.1195 16.2821 16.7511 17.167 16.0979 17.82C15.4448 18.4731 14.5599 18.8414 13.6362 18.8445ZM31.055 14.5009C31.0568 15.3465 30.8431 16.1787 30.4339 16.9187C29.8026 16.4049 29.0841 16.0089 28.3126 15.7495C28.5183 15.3654 28.6266 14.9366 28.628 14.5009C28.628 13.8032 28.3508 13.1341 27.8575 12.6408C27.3642 12.1475 26.6951 11.8703 25.9974 11.8703C25.2997 11.8703 24.6306 12.1475 24.1373 12.6408C23.644 13.1341 23.3668 13.8032 23.3668 14.5009C23.3635 14.9372 23.4721 15.3671 23.6822 15.7495C22.9107 16.0089 22.1922 16.4049 21.5609 16.9187C21.1392 16.1492 20.9254 15.283 20.9405 14.4056C20.9557 13.5282 21.1993 12.6699 21.6473 11.9154C22.0954 11.1609 22.7324 10.5362 23.4955 10.103C24.2586 9.66978 25.1215 9.44297 25.999 9.44496C27.3395 9.44639 28.6247 9.97952 29.5725 10.9274C30.5204 11.8752 31.0535 13.1604 31.055 14.5009ZM25.999 16.5466C24.8304 16.5456 23.6877 16.8912 22.7155 17.5397C21.7433 18.1881 20.9852 19.1103 20.5371 20.1896C20.089 21.2689 19.971 22.4569 20.1981 23.6032C20.4251 24.7496 20.987 25.8029 21.8127 26.6299C22.6383 27.4569 23.6907 28.0205 24.8367 28.2495C25.9827 28.4784 27.1708 28.3623 28.2508 27.916C29.3309 27.4697 30.2543 26.7131 30.9043 25.742C31.5544 24.7708 31.9019 23.6288 31.9028 22.4601C31.901 20.894 31.2787 19.3924 30.1722 18.2841C29.0657 17.1758 27.5651 16.551 25.999 16.5466ZM25.999 25.937C25.3104 25.9361 24.6375 25.7311 24.0654 25.3477C23.4933 24.9644 23.0477 24.4201 22.785 23.7835C22.5223 23.147 22.4542 22.4468 22.5894 21.7716C22.7247 21.0964 23.0571 20.4764 23.5447 19.9901C24.0322 19.5038 24.6531 19.173 25.3287 19.0396C26.0043 18.9061 26.7042 18.976 27.3401 19.2404C27.976 19.5048 28.5191 19.9518 28.9009 20.5249C29.2827 21.098 29.486 21.7715 29.485 22.4601C29.4826 23.3831 29.1143 24.2674 28.4608 24.9192C27.8073 25.5709 26.922 25.937 25.999 25.937ZM18.6922 23.308C18.6922 24.6494 18.1593 25.9358 17.2108 26.8842C16.2624 27.8327 14.976 28.3656 13.6346 28.3656C12.2933 28.3656 11.0069 27.8327 10.0584 26.8842C9.10991 25.9358 8.57706 24.6494 8.57706 23.308H11.004C11.004 24.0057 11.2812 24.6748 11.7745 25.1681C12.2678 25.6614 12.9369 25.9386 13.6346 25.9386C14.3323 25.9386 15.0014 25.6614 15.4947 25.1681C15.988 24.6748 16.2652 24.0057 16.2652 23.308H18.6922Z" fill="#010101"/>
</svg>
