<svg width="125" height="40" viewBox="0 0 125 40" fill="none" xmlns="http://www.w3.org/2000/svg">
<path fill-rule="evenodd" clip-rule="evenodd" d="M44.4112 19.7747C44.4112 19.7747 45.475 21.3058 46.717 23.1135L49.1766 26.6676L49.3733 26.9443L48.8445 27.7375L46.2067 31.6727L44.1038 34.8148H46.0468C47.1167 34.8148 48.0144 34.8148 48.039 34.8148C48.0636 34.8148 48.8814 33.4436 49.8837 31.7896L51.6545 28.7828L52.2694 29.7912L54.8151 34.0708L55.2701 34.8209H57.3668C58.5228 34.8209 59.4636 34.8209 59.4636 34.8209C59.4636 34.8209 59.2484 34.4828 58.0063 32.6689C57.2746 31.6112 56.0633 29.8404 55.3869 28.8566L54.5752 27.6637L54.0403 26.8828L55.1901 25.2041C55.805 24.2818 56.8749 22.7446 57.539 21.7731C58.2031 20.8016 58.7688 19.9284 58.8241 19.8731L58.9163 19.7255H56.8872H54.8581L54.5384 20.2728C52.3555 24.0051 51.8083 24.9397 51.7837 24.9397C51.7591 24.9397 51.0458 23.7592 50.1665 22.3203L48.5801 19.7009H46.4772C44.7924 19.7194 44.362 19.7317 44.4112 19.7747ZM62.0645 27.3071V34.8701H65.428V28.9734H67.2173C69.1234 28.9734 69.4678 28.9242 70.3347 28.6905C70.9991 28.5434 71.6133 28.2247 72.1161 27.7662C72.6188 27.3077 72.9926 26.7253 73.2001 26.0773C73.3728 25.5101 73.4436 24.9168 73.4092 24.3249C73.4695 23.4869 73.279 22.6499 72.8619 21.9207C72.5693 21.455 72.1871 21.0521 71.7374 20.7354C71.2877 20.4187 70.7796 20.1946 70.2425 20.076C69.2525 19.8178 69.1419 19.8116 65.4649 19.7932H62.0645V27.3071ZM78.1807 23.8944C77.1907 26.1941 75.7211 29.5514 74.9587 31.353C74.1962 33.1546 73.526 34.6795 73.5075 34.7349L73.4645 34.8394H75.3092H77.1538L77.7687 33.2714L78.3836 31.6973H84.2373L84.8829 33.2776L85.4978 34.864H87.4039C88.437 34.864 89.2486 34.864 89.2486 34.8271C89.2486 34.7902 88.5722 33.2284 87.7483 31.3284L84.4832 23.8084L82.7247 19.744H79.9454L78.1807 23.8944ZM91.8496 27.3071V34.8701H95.1699V29.4837V24.0666L96.4981 26.231L99.4434 30.9964L101.417 34.2184L101.786 34.8332H106.17V19.7194H102.807V24.9643V30.2093L102.395 29.5268L98.3489 22.9537C97.5926 21.7239 96.8424 20.4941 96.6764 20.2113L96.3813 19.7194H91.8496V27.3071ZM110.296 27.3071V34.8701H113.432C114.662 34.9103 115.894 34.8856 117.121 34.7964C120.147 34.4028 122.428 32.9148 123.547 30.609C123.682 30.3395 123.801 30.0623 123.904 29.7789C124.491 27.7954 124.351 25.6674 123.51 23.7776C122.452 21.7731 120.7 20.5433 118.148 19.9961C116.955 19.7624 116.826 19.7501 113.457 19.7317H110.284L110.296 27.3071ZM67.7276 22.5909C68.9574 22.6831 69.5231 22.9844 69.8367 23.6792C69.928 23.8707 69.9683 24.0825 69.9535 24.2941C69.9547 24.4861 69.9362 24.6777 69.8982 24.866C69.7875 25.2047 69.5722 25.4997 69.2833 25.7084C68.7852 26.0527 68.2257 26.1388 66.5594 26.1388H65.4341V22.5417H66.2642C66.7131 22.5417 67.371 22.5663 67.7276 22.5909ZM116.863 22.9291C118.837 23.2919 120.104 24.3064 120.552 25.899C120.774 26.8564 120.753 27.8541 120.491 28.8012C119.987 30.443 118.683 31.396 116.58 31.6727C116 31.7306 115.417 31.7532 114.834 31.7404H113.604V22.8061H115.006C115.625 22.799 116.244 22.8401 116.857 22.9291H116.863ZM81.5257 24.8783L83.0629 28.7705C82.4665 28.8585 81.8619 28.8771 81.2612 28.8258C80.6563 28.8498 80.0505 28.8354 79.4473 28.7828C79.4904 28.6598 81.2366 24.1834 81.2428 24.1834C81.2489 24.1834 81.3719 24.497 81.5195 24.8783H81.5257Z" fill="#C4C4C4"/>
<path fill-rule="evenodd" clip-rule="evenodd" d="M6.06081 4.99901H0.920375L0.88963 15.0093C0.88963 20.5003 0.858887 28.3031 0.858887 32.3614V39.74H30.9882V34.6856H11.5025V4.96826H11.355L6.06081 4.99901Z" fill="#AAA9A9"/>
<path fill-rule="evenodd" clip-rule="evenodd" d="M17.1411 2.48413V4.96212H23.5482H29.9615V6.71454V8.47311H23.5482H17.1411V13.0048V17.5427L22.7304 17.5119L28.3259 17.475V19.0983V20.7216H22.7304H17.1411V25.9604V31.1931H28.8485H40.5559V15.5996V0H28.8485H17.1411V2.48413Z" fill="#C4C4C4"/>
<path d="M11.4964 4.96826L0.858887 17.3582L0.920375 5.0113L11.4964 4.96826Z" fill="#C4C4C4"/>
<path d="M31.0068 34.704L26.7456 39.7092H31.0068V34.704Z" fill="#C4C4C4"/>
<path d="M29.9615 8.47314L22.7304 17.512L17.1411 17.5427V8.47314H29.9615Z" fill="#AAA9A9"/>
<path d="M28.3259 20.7216L22.0848 31.193H17.1411V20.7216H28.3259Z" fill="#AAA9A9"/>
</svg>
