<svg width="68" height="41" viewBox="0 0 68 41" fill="none" xmlns="http://www.w3.org/2000/svg">
<path d="M54.6754 6.25531C51.0609 6.25531 47.9512 8.61035 46.706 11.9217C46.6411 12.0907 46.4208 12.7901 46.4208 12.7901L41.3889 34.4047H52.9471C56.9181 34.4047 60.2786 31.5634 61.2302 27.7332C61.2302 27.7349 61.2302 27.7349 61.2302 27.7355L66.2288 6.25531H54.6754Z" fill="#C4C4C4"/>
<path d="M35.4305 0C31.561 0 28.2951 2.5995 27.2814 6.14687C27.2054 6.41187 27.1433 6.68294 27.0933 6.95703L19.2478 40.6606H30.7961C34.7535 40.6606 38.0819 37.9412 39.0117 34.27H39.0148L46.992 0.000336576H35.4305V0Z" fill="#C4C4C4"/>
<path d="M13.2841 6.25534C9.53787 6.25534 6.33413 8.78346 5.1843 12.286C5.15952 12.3645 5.13404 12.4433 5.10995 12.5221L4.91712 13.2757L0 34.4047H11.8372C15.3737 34.4047 18.41 32.0769 19.5891 28.8158L20.0579 26.8052L24.8396 6.255H13.2841V6.25534Z" fill="#C4C4C4"/>
<path d="M11.1236 13.2743L11.1189 13.2928H10.9396C10.1147 13.2928 9.33728 13.5844 8.62536 14.1609C7.93926 14.7155 7.4891 15.3909 7.33329 15.9448H7.32682L4.67578 27.3668L4.82651 27.3649C5.66029 27.3649 6.44823 27.0719 7.16354 26.4897C7.88291 25.9109 8.34223 25.1994 8.52794 24.3788L9.10744 21.8999L14.3797 21.9014C15.2036 21.9014 15.9987 21.5963 16.7181 21.0205C17.4357 20.445 17.894 19.7383 18.0791 18.9197L18.1123 18.7699L9.84141 18.7638L10.3924 16.4088L17.5563 16.3983C18.3809 16.3983 19.1596 16.1098 19.8702 15.5383C20.579 14.9656 21.0224 14.246 21.221 13.4348L21.2577 13.2836L11.1236 13.2743Z" fill="#010101"/>
<path d="M40.3676 13.9679C39.912 13.5151 39.3183 13.2857 38.6013 13.2857L28.491 13.2743L25.2258 27.349H25.23L25.2258 27.3671L25.3766 27.3652C26.2107 27.3652 26.9976 27.0723 27.7139 26.4901C28.433 25.9113 28.8916 25.1998 29.078 24.3792L29.665 21.8716L36.6642 21.878C37.4857 21.878 38.22 21.7844 38.9323 21.2146C39.6411 20.6459 40.1459 19.7425 40.3462 18.9115L40.9607 16.3035C41.0055 16.0978 41.031 15.8823 41.0354 15.6628C41.0473 14.991 40.8236 14.4199 40.3676 13.968V13.9679ZM37.2128 18.7615L30.3935 18.7551L30.9452 16.3957L37.7651 16.4028L37.2128 18.7615Z" fill="#010101"/>
<path d="M60.9377 13.9764C60.491 13.5231 59.8969 13.2932 59.1768 13.2932H54.7238H54.443H48.5088L48.4877 13.3932C48.4399 13.614 48.4141 13.8174 48.4103 14.0131C48.3988 14.6993 48.6201 15.2775 49.069 15.733C49.5174 16.1853 50.1105 16.4149 50.8312 16.4149H53.0633L50.5209 27.3672L50.672 27.3652C51.5058 27.3652 52.2931 27.0723 53.009 26.4901C53.7284 25.9113 54.1871 25.1998 54.3727 24.3792L56.2362 16.4147H61.4992L61.521 16.315C61.5661 16.1059 61.5906 15.8907 61.5946 15.6756C61.6058 14.9988 61.3865 14.4273 60.9377 13.9765V13.9764Z" fill="#010101"/>
<path d="M63.0105 31.9769C63.0105 30.6421 64.107 29.5549 65.4538 29.5549C66.8039 29.5549 67.8991 30.6421 67.8991 31.9769C67.8991 33.3137 66.8036 34.4027 65.4538 34.4027C64.107 34.4027 63.0105 33.3137 63.0105 31.9769ZM67.3057 31.9769C67.3057 30.8438 66.4787 30.0219 65.4538 30.0219C64.4333 30.0219 63.6077 30.8435 63.6077 31.9769C63.6077 33.1123 64.4333 33.9323 65.4538 33.9323C66.479 33.9323 67.3057 33.1123 67.3057 31.9769ZM64.5144 30.5933H65.5434C66.2064 30.5933 66.568 30.8223 66.568 31.4004C66.568 31.8709 66.2954 32.0978 65.8411 32.1385L66.5856 33.3393H66.0577L65.3411 32.1561H65.0294V33.3393H64.5141V30.5933H64.5144ZM65.0294 31.7695H65.4843C65.7861 31.7695 66.0513 31.7267 66.0513 31.3607C66.0513 31.0351 65.7549 30.9836 65.4904 30.9836H65.0298V31.7695H65.0294Z" fill="#C4C4C4"/>
</svg>
