<svg width="88" height="41" viewBox="0 0 88 41" fill="none" xmlns="http://www.w3.org/2000/svg">
<g clip-path="url(#clip0_1002_5008)">
<path d="M61.0806 14.8111C60.924 14.6577 60.738 14.5335 60.5289 14.4413C60.3172 14.349 60.0903 14.302 59.8545 14.302H53.6755C53.4397 14.302 53.2119 14.349 53.0011 14.4413C52.7911 14.5335 52.606 14.6577 52.4494 14.8111C52.292 14.9655 52.1665 15.15 52.0766 15.3602C51.9868 15.5704 51.9414 15.7966 51.9414 16.0316V24.1395C51.9414 24.3745 51.9868 24.6007 52.0766 24.8109C52.1665 25.0202 52.292 25.2065 52.4485 25.3626C52.606 25.5196 52.792 25.6447 53.0019 25.7334C53.2128 25.823 53.4397 25.8682 53.6755 25.8682H59.8545C60.0903 25.8682 60.3172 25.823 60.528 25.7334C60.738 25.6438 60.9249 25.5187 61.0815 25.3626C61.2389 25.2056 61.3635 25.0202 61.4534 24.8109C61.5432 24.5998 61.5886 24.3745 61.5886 24.1395V19.6549H56.6578V21.491H59.7469V24.033H53.7822V16.138H59.7469V17.6024H61.5886V16.0316C61.5886 15.7974 61.5432 15.5713 61.4525 15.3602C61.3635 15.15 61.238 14.9655 61.0806 14.8111Z" fill="#C4C4C4"/>
<path d="M73.0638 20.6253C72.9197 20.4009 72.7417 20.2137 72.5353 20.0691C72.3965 19.9724 72.2462 19.8891 72.086 19.8225C72.4268 19.6203 72.6893 19.3409 72.8672 18.9888C73.0772 18.5719 73.1839 18.0291 73.1839 17.3772V17.1714C73.1839 15.267 72.2177 14.302 70.3137 14.302H64.2983V25.8682H70.6402C72.5451 25.8682 73.5114 24.9049 73.5114 23.0068V22.4365C73.5114 22.0551 73.4731 21.71 73.3966 21.4129C73.3192 21.1122 73.2071 20.847 73.0638 20.6253ZM66.108 19.1227V16.1052H70.2666C70.6625 16.1052 70.949 16.1957 71.118 16.3731C71.2888 16.5523 71.3751 16.8476 71.3751 17.2503V17.9945C71.3751 18.3777 71.2968 18.6624 71.1429 18.8389C70.9917 19.0127 70.7328 19.1085 70.3778 19.1227H66.108ZM71.6999 22.048V22.927C71.6999 23.3243 71.6136 23.617 71.4437 23.7962C71.2746 23.9736 70.9881 24.0641 70.5922 24.0641H66.1089V20.9197H70.5922C70.989 20.9197 71.2764 21.0075 71.4445 21.1805C71.6136 21.3544 71.6999 21.6462 71.6999 22.048Z" fill="#C4C4C4"/>
<path d="M83.6302 14.301L80.154 23.4493L76.685 14.301H74.709L79.1834 25.8681H81.1247L85.5991 14.301H83.6302Z" fill="#C4C4C4"/>
<path d="M42.4979 22.9589V22.8986C42.4979 22.7283 42.4071 22.5713 42.2594 22.4852L32.8089 16.9966V14.6612V6.16484C32.8089 6.16306 32.808 6.16129 32.808 6.15951V6.09654C32.808 5.92624 32.7172 5.76836 32.5695 5.68321L22.8867 0.0650861C22.7382 -0.0209508 22.5549 -0.0218382 22.4063 0.0633118L12.712 5.61491C12.5634 5.70006 12.4708 5.85883 12.4708 6.03002V6.09654C12.4708 6.09743 12.4708 6.09743 12.4708 6.09831V16.9292L3.02295 22.3469C2.87436 22.432 2.78183 22.5908 2.78272 22.762V22.8258C2.78272 22.8276 2.78272 22.8285 2.78272 22.8303V34.0053C2.78272 34.1756 2.87347 34.3326 3.02117 34.4186L12.7102 40.0403C12.7191 40.0456 12.728 40.0501 12.7369 40.0545C12.7493 40.0607 12.7618 40.066 12.7751 40.0705C12.7778 40.0714 12.7796 40.0722 12.7822 40.0731C12.8072 40.0829 12.8321 40.0891 12.8579 40.0944C12.8588 40.0944 12.8596 40.0953 12.8605 40.0953C12.8614 40.0953 12.8632 40.0953 12.8641 40.0953C12.8935 40.1006 12.9228 40.1042 12.9522 40.1042C12.9548 40.1042 12.9575 40.1033 12.9593 40.1033C12.9602 40.1033 12.9611 40.1033 12.962 40.1033C12.9646 40.1033 12.9664 40.1024 12.9691 40.1024C12.9887 40.1015 13.0073 40.1006 13.0269 40.0971C13.0314 40.0962 13.0349 40.0953 13.0394 40.0944C13.0563 40.0909 13.0741 40.0873 13.091 40.0829C13.0954 40.0811 13.0999 40.0793 13.1043 40.0785C13.1203 40.0731 13.1363 40.0678 13.1515 40.0607C13.1541 40.0598 13.1568 40.0581 13.1595 40.0563C13.1746 40.0492 13.1906 40.0412 13.2049 40.0323C13.2066 40.0315 13.2084 40.0297 13.2102 40.0288L22.6421 34.6218L32.0891 40.1024C32.1024 40.1104 32.1158 40.1166 32.13 40.1228C32.1336 40.1246 32.1371 40.1272 32.1416 40.129C32.146 40.1308 32.1505 40.1326 32.1549 40.1343C32.1603 40.1361 32.1656 40.137 32.1709 40.1388C32.1807 40.1423 32.1896 40.1459 32.1985 40.1485C32.2056 40.1503 32.2127 40.1512 32.2199 40.153C32.2323 40.1556 32.2457 40.1592 32.2581 40.1609C32.2697 40.1627 32.2804 40.1636 32.2919 40.1645C32.3053 40.1654 32.3186 40.168 32.3329 40.168C32.4156 40.168 32.4983 40.1468 32.5722 40.1042L42.2585 34.5508C42.4071 34.4657 42.4996 34.3042 42.4996 34.133V22.966C42.4996 22.9651 42.4996 22.9651 42.4996 22.9642C42.4996 22.9633 42.4996 22.9624 42.4996 22.9615C42.4979 22.9615 42.4979 22.9598 42.4979 22.9589ZM31.8489 14.9362V17.064L23.1252 22.0657V11.9932L31.8489 6.99239V14.9362ZM22.1607 22.0604L13.4335 16.9975L13.4317 6.9303L22.1607 11.9949V22.0604ZM21.6821 22.8941L12.9557 27.8967L4.22317 22.8303L12.9495 17.8268L21.6821 22.8941ZM23.6074 22.9003L32.3311 17.8969L41.0601 22.9607L32.3337 27.9632L23.6074 22.9003ZM22.6439 11.1647L13.9122 6.0992L22.6394 1.09575L31.3711 6.16129L22.6439 11.1647ZM3.74273 23.6623L12.4708 28.726V38.7267L3.75251 33.6683L3.74273 23.6623ZM13.4317 38.7311V28.7367L22.1607 23.7297V33.7259L13.4317 38.7311ZM23.1252 33.7304V23.7306L31.8497 28.7917V38.7897L23.1252 33.7304ZM41.5379 33.7898L32.8097 38.7959V28.7996L41.5379 23.7953V33.7898Z" fill="#C4C4C4"/>
</g>
<defs>
<clipPath id="clip0_1002_5008">
<rect width="86.8163" height="40.168" fill="white" transform="translate(0.782715)"/>
</clipPath>
</defs>
</svg>
