<svg width="79" height="41" viewBox="0 0 79 41" fill="none" xmlns="http://www.w3.org/2000/svg">
<g clip-path="url(#clip0_1032_4133)">
<path d="M42.2458 19.2373C42.0468 19.3562 41.808 19.3958 41.5294 19.3958C41.4299 19.3958 41.2111 19.3958 40.8728 19.3562V20.3663C41.1912 20.4456 41.4896 20.4852 41.808 20.4852C42.3055 20.4852 42.7034 20.3465 43.0218 20.1088C43.36 19.8514 43.6386 19.475 43.8774 18.9402L46.6432 12.7407L45.3299 12.7605L43.6585 16.8209L42.0269 12.7605H40.7136L42.982 18.0687L42.7432 18.6035C42.6039 18.9006 42.4248 19.1185 42.2458 19.2373Z" fill="#C4C4C4"/>
<path d="M48.6925 17.5538C48.8915 17.8311 49.19 18.0687 49.5083 18.2074C49.8466 18.3658 50.2247 18.4451 50.6624 18.4451C51.4583 18.4451 52.115 18.1876 52.6323 17.6132C53.1497 17.0586 53.4282 16.3654 53.4282 15.5335C53.4282 14.7016 53.1696 14.0084 52.6323 13.4538C52.0951 12.8992 51.4384 12.6219 50.6425 12.6219H50.6823C49.8665 12.6219 49.2298 12.8794 48.7721 13.4142V9.80933H47.5583V18.2866H48.6925V17.5538ZM49.2099 14.2064C49.5481 13.8895 49.9461 13.7311 50.4237 13.7311C50.9211 13.7311 51.339 13.8895 51.6772 14.246C52.0155 14.6026 52.1747 15.0185 52.1747 15.5533C52.1747 16.0881 52.0155 16.5238 51.6772 16.8803C51.339 17.2171 50.9609 17.4151 50.4634 17.4151H50.4436C49.966 17.4151 49.568 17.2765 49.2298 16.9596C48.8915 16.6427 48.7323 16.2069 48.7323 15.6127C48.7323 15.0185 48.8716 14.5233 49.2099 14.2064Z" fill="#C4C4C4"/>
<path d="M37.9079 25.9716C37.1916 25.9716 36.6344 26.2093 36.1967 26.6451V26.0905H35.0625V31.676H36.2763V28.3484C36.2763 27.9721 36.3957 27.675 36.6344 27.4175C36.8732 27.1798 37.1916 27.061 37.5696 27.061C37.9278 27.061 38.2263 27.1996 38.4651 27.4175C38.7038 27.6552 38.8033 27.9721 38.8033 28.3484V31.6562H40.0171V28.1702C40.0171 27.5165 39.838 26.9818 39.4599 26.5658C39.0819 26.1499 38.5645 25.9716 37.9079 25.9716Z" fill="#C4C4C4"/>
<path d="M44.0563 25.9716C43.2405 25.9716 42.5441 26.2489 41.987 26.8233C41.4298 27.3977 41.1313 28.0711 41.1313 28.903C41.1313 29.7349 41.4298 30.4281 41.987 30.9827C42.564 31.5373 43.3002 31.8146 44.1558 31.8146C45.0114 31.8146 45.7676 31.5175 46.4242 30.9233L45.8472 30.1112C45.3497 30.547 44.7926 30.7649 44.1956 30.7649C43.6982 30.7649 43.2803 30.6262 42.9421 30.3687C42.6038 30.1112 42.4048 29.7349 42.3252 29.2793H46.5635C46.663 29.0021 46.6829 28.5267 46.6829 28.5267C46.6829 27.7938 46.4242 27.1798 45.9268 26.6847C45.4492 26.2093 44.8125 25.9716 44.0563 25.9716ZM42.365 28.3484C42.4645 27.9325 42.6635 27.5958 42.962 27.3581C43.2604 27.1006 43.5987 26.9818 43.9967 26.9818C44.3946 26.9818 44.7329 27.1204 45.0114 27.3581C45.29 27.6156 45.4293 27.9325 45.4293 28.3484H42.365Z" fill="#C4C4C4"/>
<path d="M57.5671 18.4649C58.4227 18.4649 59.1788 18.1678 59.8355 17.5735L59.2584 16.7615C58.761 17.1972 58.2038 17.4151 57.6069 17.4151C57.1094 17.4151 56.6916 17.2764 56.3533 17.019C56.0151 16.7615 55.8161 16.3851 55.7365 15.9296H59.9548C60.0742 15.6325 60.0742 15.1769 60.0742 15.1769C60.0742 14.4441 59.8156 13.8301 59.3181 13.3349C58.8207 12.8397 58.2038 12.6021 57.4477 12.6021C56.6319 12.6021 55.9355 12.8793 55.3783 13.4537C54.8212 14.0281 54.5227 14.7016 54.5227 15.5335C54.5227 16.3653 54.8212 17.0586 55.3783 17.6132C55.9554 18.1876 56.6916 18.4649 57.5671 18.4649ZM56.3533 14.0281C56.6518 13.7706 56.9901 13.6518 57.388 13.6518C57.786 13.6518 58.1242 13.7905 58.4028 14.0281C58.6814 14.2856 58.8207 14.6025 58.8207 15.0185H55.7365C55.8559 14.6025 56.035 14.2856 56.3533 14.0281Z" fill="#C4C4C4"/>
<path d="M50.7222 30.7055C50.3641 30.7055 50.0656 30.646 49.9064 30.4876C49.7273 30.3489 49.6279 30.0915 49.6279 29.7349V27.1204H51.2993V26.0905H49.6279V24.6446H48.4141V26.0905H47.4988V27.1204H48.4141V29.834C48.4141 30.4876 48.5932 30.9629 48.9712 31.2799C49.3294 31.5968 49.8467 31.7552 50.5034 31.7552C50.8018 31.7552 51.1202 31.7156 51.4983 31.6166V30.6064C51.16 30.6857 50.9212 30.7055 50.7222 30.7055Z" fill="#C4C4C4"/>
<path d="M58.9003 29.6953L57.1493 25.9716H56.7314L55.0202 29.7349L53.5279 26.1103H52.2544L54.7615 31.775H55.1794L56.9503 28.0909L58.7212 31.775H59.1391L61.6462 26.1103H60.3529L58.9003 29.6953Z" fill="#C4C4C4"/>
<path d="M64.9691 25.9716C64.1334 25.9716 63.417 26.2489 62.84 26.8035C62.2629 27.3581 61.9844 28.0513 61.9844 28.8634C61.9844 29.6755 62.2828 30.3687 62.84 30.9233C63.417 31.4779 64.1135 31.7552 64.9691 31.775C65.7849 31.775 66.5012 31.4977 67.0981 30.9233C67.6951 30.3489 67.9737 29.6755 67.9737 28.8436C67.9737 28.0315 67.6752 27.3383 67.0782 26.7837C66.5012 26.2489 65.8048 25.9914 64.9691 25.9716ZM66.2027 30.1707C65.8645 30.5074 65.4466 30.6856 64.9492 30.6856C64.4517 30.6856 64.0339 30.5272 63.6956 30.1707C63.3573 29.8339 63.1982 29.3982 63.1982 28.8832C63.1982 28.3484 63.3573 27.9325 63.6956 27.5958C64.0339 27.2591 64.4517 27.0808 64.9492 27.061C65.4466 27.061 65.8645 27.2393 66.2027 27.576C66.541 27.9127 66.7002 28.3484 66.7002 28.8634C66.7002 29.3784 66.541 29.8141 66.2027 30.1707Z" fill="#C4C4C4"/>
<path d="M70.2023 26.8234V26.0905H69.0681V31.676H70.2819V28.705C70.2819 28.2098 70.4411 27.8533 70.7594 27.576C71.0778 27.3185 71.4559 27.1799 71.9334 27.1799H72.2916V26.1301C72.1523 26.0905 72.013 26.0707 71.8339 26.0707C71.1773 26.0509 70.6201 26.3084 70.2023 26.8234Z" fill="#C4C4C4"/>
<path d="M62.4024 15.375C62.4024 14.8799 62.5616 14.5233 62.8799 14.246C63.1983 13.9886 63.5764 13.8499 64.0539 13.8499H64.4121V12.8001C64.2728 12.7605 64.1335 12.7407 63.9544 12.7407C63.258 12.7407 62.7008 12.9982 62.3029 13.533V12.8001H61.1687V18.3658H62.3825L62.4024 15.375Z" fill="#C4C4C4"/>
<path d="M74.6396 23.1591H73.4258V31.676H74.6396V23.1591Z" fill="#C4C4C4"/>
<path d="M76.1121 28.5465L78.3805 26.1103H76.8881L74.6794 28.5465L77.1468 31.676H78.5993L76.1121 28.5465Z" fill="#C4C4C4"/>
<path d="M40.0371 12.7606H38.5248L36.3162 15.2166L38.7835 18.3461H40.2361L37.7488 15.2166L40.0371 12.7606Z" fill="#C4C4C4"/>
<path d="M36.2965 9.82996H35.0828V18.3469H36.2965V9.82996Z" fill="#C4C4C4"/>
<path d="M12.896 20.4851L28.2771 29.2397C28.8144 29.5368 29.4909 29.1605 29.4909 28.5465V12.404C29.4909 11.79 28.8144 11.4136 28.2771 11.7107L12.896 20.4851Z" fill="#C4C4C4"/>
<path d="M27.919 7.84845L17.4128 0.163425C16.9154 -0.193097 16.219 0.0643913 16.0996 0.638787L12.2593 17.7518L27.8195 9.1755C28.3567 8.8784 28.3965 8.18516 27.919 7.84845Z" fill="#C4C4C4"/>
<path d="M17.413 40.8069L27.9191 33.1219C28.3966 32.7654 28.3369 32.0919 27.8395 31.7948L12.2793 23.2185L16.1196 40.3316C16.2191 40.9258 16.9354 41.1634 17.413 40.8069Z" fill="#C4C4C4"/>
<path d="M8.89657 20.1881L12.8762 1.58954C13.0353 0.856686 12.1996 0.321904 11.6226 0.777459L1.43483 8.58132C0.917488 8.97746 0.599121 9.61128 0.599121 10.2649V30.0717C0.599121 30.7253 0.89759 31.3591 1.43483 31.7552L11.6226 39.5591C12.2195 40.0147 13.0353 39.4799 12.8762 38.747L8.89657 20.1881Z" fill="#C4C4C4"/>
</g>
<defs>
<clipPath id="clip0_1032_4133">
<rect width="78" height="40.9744" fill="white" transform="translate(0.599121)"/>
</clipPath>
</defs>
</svg>
