<svg width="145" height="29" viewBox="0 0 145 29" fill="none" xmlns="http://www.w3.org/2000/svg">
<g clip-path="url(#clip0_1076_4153)">
<path d="M50.4429 22.2742L57.1676 6.50269H59.2945L66.023 22.2742H62.8603L61.3808 18.7831H55.0925L53.6129 22.2742H50.4429ZM56.2244 16.0801H60.2193L58.2218 11.4141L56.2244 16.0801Z" fill="#C4C4C4"/>
<path d="M69.9441 22.2742H67.0293V6.50269H69.9441V12.1354C70.7904 11.4752 71.8319 11.1179 72.9033 11.1204C73.6208 11.1181 74.3301 11.2745 74.9808 11.5784C75.6315 11.8823 76.2078 12.3263 76.6688 12.879C77.3864 13.7341 77.7785 14.8383 77.7785 16.7085V22.2854H74.8637V16.4817C74.8637 15.4035 74.6196 14.8383 74.2164 14.4331C73.7706 14.0225 73.182 13.8048 72.5778 13.827C72.0647 13.842 71.5612 13.9708 71.1033 14.2041C70.6455 14.4374 70.2446 14.7695 69.9293 15.1767L69.9441 22.2742Z" fill="#C4C4C4"/>
<path d="M90.6842 22.2742H87.8841V21.3967C87.0434 22.1274 85.966 22.5241 84.8546 22.5121C84.0787 22.5128 83.3116 22.3474 82.6043 22.0269C81.897 21.7063 81.2657 21.238 80.7524 20.6532C79.8492 19.5843 79.3559 18.2261 79.3616 16.8237C79.3616 13.6002 81.7401 11.1203 84.6993 11.1203C85.8575 11.1093 86.9834 11.5037 87.8841 12.2357V11.3471H90.6842V22.2742ZM87.7694 15.1766C87.4575 14.7549 87.0512 14.413 86.5833 14.1786C86.1155 13.9441 85.5993 13.8237 85.0765 13.827C83.3713 13.827 82.2727 15.2435 82.2727 16.8237C82.2561 17.2112 82.3183 17.598 82.4555 17.9606C82.5927 18.3231 82.8021 18.6537 83.0707 18.9321C83.3394 19.2105 83.6618 19.4309 84.0181 19.5798C84.3745 19.7287 84.7573 19.8029 85.1431 19.798C85.6561 19.8023 86.1626 19.6818 86.6192 19.4468C87.0759 19.2118 87.4692 18.8693 87.7657 18.4484L87.7694 15.1766Z" fill="#C4C4C4"/>
<path d="M101.352 15.9426L107.049 6.50269H109.179V22.2742H106.161V13.4887L102.388 19.6828H100.279L96.5101 13.4887V22.2742H93.4844V6.50269H95.615L101.352 15.9426Z" fill="#C4C4C4"/>
<path d="M116.888 11.1204C118.002 11.1446 119.084 11.4985 119.999 12.138C120.914 12.7775 121.621 13.674 122.031 14.7154C122.441 15.7567 122.537 16.8966 122.306 17.9923C122.074 19.088 121.527 20.0908 120.731 20.875C119.936 21.6593 118.928 22.1903 117.833 22.4014C116.739 22.6125 115.607 22.4945 114.579 22.062C113.551 21.6295 112.673 20.9018 112.055 19.97C111.436 19.0382 111.105 17.9438 111.103 16.8238C111.1 16.0647 111.249 15.3129 111.541 14.6127C111.832 13.9124 112.26 13.2779 112.799 12.7464C113.338 12.2149 113.978 11.7972 114.68 11.518C115.382 11.2387 116.133 11.1036 116.888 11.1204ZM116.888 19.7944C117.477 19.8129 118.058 19.6543 118.556 19.3389C119.055 19.0236 119.449 18.5658 119.687 18.0242C119.925 17.4826 119.997 16.8818 119.893 16.2989C119.79 15.7159 119.516 15.1773 119.106 14.7519C118.696 14.3266 118.169 14.034 117.592 13.9115C117.016 13.789 116.416 13.8422 115.87 14.0643C115.324 14.2865 114.856 14.6674 114.527 15.1583C114.197 15.6493 114.021 16.2279 114.021 16.82C114.004 17.2072 114.067 17.5938 114.204 17.956C114.341 18.3183 114.55 18.6487 114.818 18.9271C115.086 19.2054 115.408 19.4259 115.764 19.575C116.12 19.7242 116.502 19.7988 116.888 19.7944Z" fill="#C4C4C4"/>
<path d="M128.661 18.0172L131.643 11.3472H134.669L129.671 22.2742H127.652L122.651 11.3472H125.68L128.661 18.0172Z" fill="#C4C4C4"/>
<path d="M144.826 20.5379C144.265 21.1656 143.576 21.6654 142.807 22.004C142.037 22.3426 141.205 22.512 140.365 22.501C137.11 22.501 134.669 20.2479 134.669 16.8237C134.669 13.7824 136.733 11.1204 139.962 11.1204C142.966 11.1204 145.092 13.6672 145.092 16.6973C145.094 16.9775 145.072 17.2574 145.026 17.5338H137.495C137.562 18.2614 137.903 18.9358 138.448 19.4194C138.993 19.903 139.701 20.1594 140.428 20.1364C140.945 20.122 141.455 20.0026 141.925 19.7854C142.396 19.5682 142.817 19.2576 143.165 18.8723L144.826 20.5379ZM142.111 15.4034C142.048 14.8754 141.794 14.3889 141.398 14.0361C141.002 13.6832 140.491 13.4885 139.962 13.4887C139.412 13.4838 138.878 13.6727 138.452 14.0225C138.027 14.3722 137.736 14.8609 137.632 15.4034H142.111Z" fill="#C4C4C4"/>
<path d="M42.6271 26.9216L34.9739 5.78137C34.3689 4.05327 33.2427 2.55788 31.7522 1.50358C30.2617 0.44927 28.4811 -0.111441 26.6586 -0.100427C25.0525 -0.0663393 23.4824 0.38336 22.0996 1.20525C20.7169 2.02715 19.5684 3.19347 18.7649 4.59162L17.7292 6.38739H8.98114C8.69757 6.38825 8.41919 6.46391 8.17383 6.60679C7.92846 6.74968 7.72471 6.95479 7.58292 7.20163L6.88382 8.41739C6.81301 8.54066 6.77575 8.6805 6.77578 8.82284C6.77581 8.96518 6.81314 9.10501 6.88401 9.22824C6.95487 9.35148 7.05678 9.45378 7.17947 9.52486C7.30216 9.59595 7.44131 9.6333 7.58292 9.63316H17.6959C17.8379 9.63237 17.9775 9.66925 18.1007 9.74006C18.2239 9.81088 18.3263 9.91312 18.3976 10.0365C18.4689 10.1598 18.5066 10.2999 18.5068 10.4426C18.507 10.5852 18.4697 10.7254 18.3987 10.8489L17.6996 12.0647C17.558 12.3114 17.3541 12.5161 17.1087 12.6584C16.8632 12.8007 16.5848 12.8755 16.3014 12.8752H2.02706C1.7437 12.8749 1.46527 12.9497 1.21981 13.092C0.974351 13.2343 0.770521 13.4391 0.628843 13.6857L-0.0702644 14.9052C-0.140803 15.0288 -0.17786 15.1688 -0.177734 15.3112C-0.177608 15.4536 -0.140304 15.5936 -0.0695475 15.717C0.00120892 15.8404 0.102941 15.943 0.225491 16.0146C0.348042 16.0861 0.487123 16.1241 0.628843 16.1247H12.1364L10.2869 19.363H4.7569C4.4737 19.3635 4.19556 19.4386 3.95023 19.5808C3.7049 19.723 3.50094 19.9274 3.35869 20.1735L2.65588 21.3968C2.58492 21.5203 2.54765 21.6605 2.54784 21.8031C2.54804 21.9458 2.58569 22.0859 2.65699 22.2092C2.7283 22.3326 2.83073 22.4348 2.95393 22.5056C3.07714 22.5764 3.21676 22.6133 3.35869 22.6125H8.4041L6.07374 26.6725C5.93213 26.9191 5.8576 27.1987 5.85767 27.4834C5.85774 27.7681 5.93239 28.0477 6.07412 28.2942C6.21585 28.5407 6.41966 28.7453 6.66504 28.8875C6.91042 29.0296 7.18873 29.1043 7.47195 29.1041H15.7355C16.3022 29.1027 16.8588 28.952 17.3495 28.6669C17.8402 28.3818 18.2479 27.9723 18.5319 27.4793L21.3246 22.6125H31.3859L33.2058 27.483C33.3775 27.944 33.6845 28.3415 34.0861 28.6231C34.4878 28.9046 34.9651 29.0568 35.4547 29.0595L41.0994 29.1003C41.3598 29.1017 41.6166 29.0397 41.8481 28.9198C42.0795 28.7999 42.2787 28.6255 42.4287 28.4116C42.5788 28.1977 42.6751 27.9505 42.7097 27.6911C42.7442 27.4316 42.7158 27.1677 42.6271 26.9216ZM24.1137 16.1396C23.7946 16.1396 23.4827 16.0446 23.2172 15.8668C22.9517 15.6889 22.7445 15.436 22.6217 15.14C22.499 14.844 22.4661 14.518 22.5273 14.2033C22.5885 13.8885 22.7409 13.599 22.9655 13.3712C23.1901 13.1434 23.4768 12.9875 23.7893 12.9231C24.1019 12.8588 24.4265 12.8888 24.7221 13.0095C25.0177 13.1302 25.2711 13.3362 25.4505 13.6014C25.6299 13.8666 25.7272 14.1793 25.7301 14.5C25.7301 14.9309 25.5598 15.3441 25.2567 15.6488C24.9535 15.9535 24.5424 16.1247 24.1137 16.1247V16.1396ZM30.1652 16.1396C29.847 16.1396 29.5359 16.0449 29.2711 15.8676C29.0063 15.6903 28.7996 15.4382 28.677 15.1431C28.5545 14.848 28.5215 14.523 28.5822 14.2091C28.643 13.8951 28.7947 13.6063 29.0184 13.3789C29.2421 13.1514 29.5278 12.9956 29.8394 12.931C30.151 12.8663 30.4747 12.8958 30.7697 13.0156C31.0647 13.1355 31.3178 13.3404 31.4972 13.6045C31.6766 13.8686 31.7743 14.1802 31.7779 14.5C31.777 14.9292 31.6066 15.3406 31.3043 15.6438C31.0019 15.947 30.5923 16.1173 30.1652 16.1173V16.1396Z" fill="#C4C4C4"/>
</g>
<defs>
<clipPath id="clip0_1076_4153">
<rect width="145" height="29" fill="white"/>
</clipPath>
</defs>
</svg>
