<svg width="160" height="39" viewBox="0 0 160 39" fill="none" xmlns="http://www.w3.org/2000/svg">
<path fill-rule="evenodd" clip-rule="evenodd" d="M81.8442 20.6497C80.4438 20.8835 79.1015 21.3845 77.8905 22.1255C75.7999 23.4659 73.6846 26.5588 73.0882 29.1351C72.5348 31.5455 72.9529 34.3432 74.0843 35.8251C76.3594 38.8134 81.6474 39.2807 86.216 36.9073C87.0092 36.4892 87.7963 36.0526 87.9623 35.9296C88.1283 35.8066 88.448 34.7736 88.817 32.929C89.1244 31.4041 89.4319 29.9652 89.4687 29.7377L89.5671 29.3258H85.7856C84.4948 29.2851 83.2028 29.3303 81.918 29.461C81.8114 29.793 81.7393 30.135 81.7028 30.4817L81.5675 31.3549H84.0885C87.0645 31.3549 86.8616 31.0659 86.1422 34.2448C86.0192 34.7921 83.9532 35.7636 82.1516 36.0895C79.4092 36.6306 77.0173 35.8066 75.9228 33.9435C75.4678 33.1749 75.4186 32.9044 75.4248 31.4164C75.4248 26.8416 77.8843 23.4721 81.7581 22.6543C82.7925 22.3704 83.8876 22.3982 84.9063 22.7342C85.5088 22.869 86.0634 23.1651 86.5107 23.5907C86.958 24.0164 87.2812 24.5556 87.4458 25.1507C87.6056 25.6979 87.8086 26.1468 87.8946 26.1468C87.9807 26.1468 88.4788 26.0484 88.9953 25.9316C90.059 25.6856 90.1144 25.5258 89.6655 24.0378C89.5334 23.4426 89.2623 22.8872 88.8744 22.417C88.4864 21.9467 87.9927 21.575 87.4335 21.3323C85.7011 20.4795 83.7309 20.2389 81.8442 20.6497ZM117.206 20.7543C113.591 21.5229 110.682 24.2837 109.416 28.1329C109.016 29.2158 108.838 30.3679 108.893 31.5209C108.924 35.9296 111.353 38.3646 115.718 38.3646C117.044 38.4158 118.366 38.1803 119.592 37.6741C120.819 37.168 121.922 36.403 122.826 35.4316C123.916 34.3926 124.778 33.1383 125.357 31.7484C125.936 30.3586 126.219 28.8635 126.19 27.3581C126.19 23.6688 124.302 21.2462 120.914 20.5944C119.683 20.3511 118.412 20.406 117.206 20.7543ZM92.9182 29.2766C91.9836 33.9313 91.2273 37.8419 91.2273 37.971C91.2273 38.1002 91.584 38.1985 92.4141 38.1985H93.6008L93.7852 37.3254C93.8836 36.8397 94.2402 35.0811 94.5723 33.4147L95.1872 30.3834L97.3085 30.4879C99.7373 30.6047 100.02 30.7338 100.998 32.1911C101.642 33.3113 102.227 34.4648 102.75 35.6468L103.906 38.1985H105.345C105.83 38.2479 106.32 38.1956 106.784 38.0448C105.967 35.9873 105.027 33.9812 103.968 32.0374C103.633 31.5324 103.217 31.0858 102.738 30.7154L102.123 30.285L102.861 30.162C104.192 29.8581 105.425 29.2237 106.446 28.3173C106.95 27.8475 107.347 27.2751 107.611 26.6387C107.875 26.0023 108 25.3167 107.977 24.628C107.977 22.5743 107.085 21.4675 105.093 21.0371C103.2 20.8703 101.299 20.8046 99.3991 20.8404H94.6276L92.9182 29.2766ZM130.15 21.2093C130.094 21.4429 129.584 23.9148 129.012 26.7432C127.628 33.507 127.61 35.5422 128.907 36.9811C129.928 38.1125 132.646 38.7458 135.087 38.4138C138.346 37.9772 140.332 36.4338 141.513 33.4209C141.728 32.8736 142.429 29.8177 143.074 26.6572L144.243 20.8588H141.752L140.775 25.7779C139.342 33.0704 139.004 34.1157 137.743 35.2225C136.883 35.9788 135.843 36.274 134.054 36.274C131.564 36.274 130.445 35.327 130.451 33.1995C130.451 32.6523 130.949 29.7131 131.558 26.6572C132.166 23.6012 132.664 21.0494 132.664 20.9695C132.282 20.8368 131.874 20.7906 131.472 20.8342C130.352 20.8158 130.236 20.8527 130.15 21.2093ZM147.065 20.8342C147.065 20.8711 146.315 24.6403 145.399 29.2089C144.482 33.7775 143.732 37.6882 143.732 37.8727C143.732 38.1555 143.905 38.1985 144.888 38.1985H146.05L146.807 34.6876L147.526 31.1704H150.219C153.349 31.1704 154.954 30.9552 156.251 30.3588C158.637 29.2643 160.217 26.2452 159.676 23.8287C159.571 23.2719 159.33 22.7496 158.975 22.3079C158.62 21.8661 158.162 21.5184 157.641 21.2954C156.872 20.9387 156.411 20.9018 151.947 20.8465C149.266 20.8158 147.065 20.8158 147.065 20.8526V20.8342ZM121.307 23.1093C123.988 24.3083 124.499 28.1206 122.537 32.2096C121.806 33.7595 120.561 35.0087 119.014 35.7452C118.098 36.1756 117.723 36.2432 116.198 36.2371C114.673 36.2309 114.31 36.1633 113.701 35.8374C112.109 34.9889 111.389 33.6607 111.389 31.5639C111.389 28.84 112.429 26.03 113.99 24.5973C114.931 23.6615 116.127 23.0233 117.428 22.7619C118.729 22.5006 120.078 22.6278 121.307 23.1277V23.1093ZM104.324 23.1831C105.431 23.7488 105.732 24.7879 105.179 26.1161C105.039 26.5089 104.819 26.8685 104.534 27.1723C104.248 27.476 103.902 27.7172 103.519 27.8808C102.861 28.2313 102.4 28.2805 99.2147 28.3481C96.5092 28.4034 95.6545 28.3481 95.6545 28.1944C95.6545 28.0407 95.8758 26.8109 96.1464 25.4028L96.6383 22.8326H100.131C103.218 22.851 103.709 22.8941 104.324 23.2015V23.1831ZM155.606 23.0232C156.062 23.1398 156.469 23.3999 156.767 23.7652C157.065 24.1304 157.238 24.5816 157.26 25.0523C157.288 25.7391 157.124 26.4202 156.787 27.0189C156.449 27.6175 155.95 28.1098 155.348 28.4403C154.665 28.797 154.222 28.8523 151.295 28.9199C149.236 28.963 148.012 28.9199 148.012 28.8154C148.012 28.7109 148.215 27.6471 148.455 26.4358C148.694 25.2245 148.953 23.9271 149.02 23.5397L149.143 22.851H152.046C153.236 22.8294 154.426 22.8972 155.606 23.0539V23.0232Z" fill="#C4C4C4"/>
<path fill-rule="evenodd" clip-rule="evenodd" d="M49.3475 0.0265233C41.2512 0.541214 33.2908 2.35794 25.7728 5.40676C14.6065 9.83393 5.28484 16.3517 1.07903 22.6912C0.769267 23.1207 0.495727 23.5752 0.26123 24.0501C0.737197 23.7475 1.17134 23.3836 1.55249 22.9679C9.44146 15.5216 23.6392 8.91161 36.9576 6.50126C40.3042 5.82507 43.714 5.51171 47.1278 5.56664C52.5264 5.56664 55.5701 6.12618 58.7737 7.68184C60.9319 8.72714 62.3892 10.043 63.2316 11.7093C63.7235 12.687 63.7665 12.9391 63.7542 14.71C63.7542 16.6715 63.7235 16.7514 62.6536 19.4261C62.4076 20.041 63.3669 19.0818 64.7011 17.3786C67.0685 14.3595 68.2244 11.4818 68.0707 9.00384C68.0637 8.11665 67.8776 7.24001 67.5237 6.42645C67.1697 5.6129 66.6552 4.87916 66.0109 4.26923C64.0801 2.30775 61.4976 1.15176 57.5378 0.475389C54.8263 0.0840788 52.0855 -0.0661306 49.3475 0.0265233Z" fill="#C4C4C4"/>
<path fill-rule="evenodd" clip-rule="evenodd" d="M19.4888 15.5462C16.4143 16.2349 13.6658 18.2271 12.5406 20.5391C12.099 21.3596 11.9107 22.2925 11.9995 23.22C11.9995 24.4498 12.0794 24.9417 12.4053 25.5566C13.1739 27.0016 14.582 27.8562 17.7363 28.7847C20.6386 29.6456 21.7146 30.1006 22.1328 30.6601C22.4648 31.1028 22.4771 31.2443 22.2865 31.8899C21.8561 33.3164 20.6017 33.9436 18.1729 33.9436C17.0108 33.9436 16.6541 33.876 16.1376 33.5255C15.7768 33.3082 15.4837 32.9946 15.2914 32.6198C15.0991 32.245 15.0153 31.824 15.0493 31.4041V30.6171H9.34316L9.22018 31.7915C8.97422 34.0481 9.77973 36.0957 11.3231 37.1717C12.7189 38.131 13.8318 38.4323 16.4328 38.5245C19.3227 38.6352 21.1305 38.3216 23.1412 37.3747C27.0703 35.53 29.3761 30.863 27.9127 27.7271C27.1933 26.1838 25.7237 25.3045 22.0528 24.2284C18.2344 23.1155 17.6872 22.7773 17.8962 21.6582C18.1053 20.5391 19.5256 19.8135 21.4379 19.9365C22.8768 20.0534 23.67 20.5514 23.8421 21.4553C23.9109 21.7277 23.9109 22.013 23.8421 22.2854C23.7499 22.433 24.5616 22.476 26.6399 22.4391L29.5667 22.3838V20.8158C29.5667 19.4016 29.5052 19.1372 28.9887 18.2271C28.2538 17.0044 27.0826 16.1058 25.7114 15.7123C23.6656 15.2699 21.5552 15.2136 19.4888 15.5462Z" fill="#C4C4C4"/>
<path fill-rule="evenodd" clip-rule="evenodd" d="M54.0575 16.0504C53.916 16.3825 48.8801 37.8542 48.8801 38.1309C48.8801 38.1678 50.1653 38.1986 51.7394 38.1986C54.2973 38.1986 54.5986 38.1986 54.6846 37.8788C54.8384 37.3562 59.7943 15.909 59.7943 15.743C58.8743 15.6093 57.9437 15.564 57.0151 15.6077C54.3096 15.6323 54.2296 15.6754 54.0575 16.0504Z" fill="#C4C4C4"/>
<path fill-rule="evenodd" clip-rule="evenodd" d="M49.8272 22.4821C50.1838 21.7935 50.2638 21.363 50.2638 20.0595C50.2638 18.7559 50.2084 18.387 49.8272 17.8336C49.1813 16.9603 48.2503 16.3404 47.1955 16.0812C46.3593 15.8106 45.2156 15.7491 39.8722 15.6815C34.6703 15.6139 33.5266 15.6446 33.4528 15.8475C33.2929 16.3394 28.3616 37.7866 28.3616 37.9834C28.3616 38.1801 29.8988 38.1924 34.9716 38.1494L41.5816 38.0879L43.0143 37.5776C44.4513 37.1778 45.736 36.3577 46.7036 35.2226C49.4398 32.1789 49.6612 27.7947 47.1525 26.276L46.4576 25.8517L47.3738 25.2368C48.4223 24.5534 49.2693 23.6024 49.8272 22.4821ZM41.7845 32.8921C41.3295 33.2365 40.9667 33.2795 38.2366 33.3349C36.3243 33.3717 35.1991 33.3349 35.1991 33.2119C35.1991 33.0889 36.0476 29.375 36.2444 28.6863C36.3366 28.3727 36.5703 28.3543 39.1774 28.4096C41.7845 28.465 42.0674 28.508 42.5347 28.8585C43.002 29.209 43.0573 29.3566 43.0573 30.3711C43.1052 30.8687 43.011 31.3696 42.7857 31.8158C42.5604 32.262 42.2133 32.6352 41.7845 32.8921ZM44.2748 22.3776C44.2081 22.7469 44.0545 23.095 43.8268 23.3933C43.5991 23.6916 43.3037 23.9315 42.9651 24.0931C42.3871 24.4436 42.0428 24.4867 39.7615 24.4867C37.4803 24.4867 37.2159 24.4867 37.302 24.1669C37.3512 23.9886 37.5725 23.0294 37.8001 22.0394L38.2059 20.2378H40.4994C41.4849 20.1702 42.4749 20.2594 43.4324 20.5022C44.2809 20.8834 44.5392 21.4553 44.2748 22.4022V22.3776Z" fill="#C4C4C4"/>
</svg>
